<?xml version="1.0" encoding="UTF-8"?> <svg xmlns="http://www.w3.org/2000/svg" viewBox="0 0 20 16" width="20" height="16"><style> tspan { white-space:pre } .shp0 { fill: #3076bb } </style><path id="email" class="shp0" d="M16.57 13.56L12.23 9.47L11.94 9.75C11.12 10.51 9.87 10.51 9.06 9.75L8.77 9.47L4.43 13.56L16.57 13.56ZM17.58 12.54L17.58 4.45L13.28 8.49L17.58 12.54ZM3.42 12.54L7.72 8.49L3.42 4.45L3.42 12.54ZM16.57 3.44L4.43 3.44L10.02 8.68C10.29 8.94 10.71 8.94 10.98 8.68L16.57 3.44ZM3.42 2L17.58 2C18.37 2 19 2.65 19 3.44L19 13.56C19 14.35 18.37 15 17.58 15L3.42 15C2.63 15 2 14.35 2 13.56L2 3.44C2 2.65 2.63 2 3.42 2Z"></path></svg> 