<?xml version="1.0" encoding="UTF-8"?> <svg xmlns="http://www.w3.org/2000/svg" viewBox="0 0 148 152" width="148" height="152"><style> tspan { white-space:pre } .shp0 { fill: #0c0d0d } </style><g id="Layer 1"><g id="&lt;Group&gt;"><path id="&lt;Compound Path&gt;" fill-rule="evenodd" class="shp0" d="M0 -574L0 -486C0 -478.2 -6.2 -472 -14 -472L-14 -464L-30 -464L-30 -472L-70 -472L-70 -464L-86 -464L-86 -472C-93.8 -472 -100 -478.2 -100 -486L-100 -574C-100 -581.8 -93.8 -588 -86 -588L-14 -588C-6.2 -588 0 -581.8 0 -574ZM-96 -574L-96 -560L-4 -560L-4 -574C-4 -579.6 -8.4 -584 -14 -584L-86 -584C-91.6 -584 -96 -579.6 -96 -574ZM-96 -556L-96 -490L-4 -490L-4 -556L-96 -556ZM-74 -472L-82 -472L-82 -468L-74 -468L-74 -472ZM-18 -472L-26 -472L-26 -468L-18 -468L-18 -472ZM-4 -486L-96 -486C-96 -480.4 -91.6 -476 -86 -476L-14 -476C-8.4 -476 -4 -480.4 -4 -486Z"></path><path id="&lt;Path&gt;" class="shp0" d="M-78 -500L-78 -504L-82 -504L-82 -542L-78 -542L-78 -546L-86 -546L-86 -500L-78 -500Z"></path><path id="&lt;Path&gt;" class="shp0" d="M-52 -574L-48 -574L-48 -570L-52 -570L-52 -574Z"></path><path id="&lt;Path&gt;" class="shp0" d="M-44 -574L-40 -574L-40 -570L-44 -570L-44 -574Z"></path><path id="&lt;Path&gt;" class="shp0" d="M-60 -574L-56 -574L-56 -570L-60 -570L-60 -574Z"></path></g><g id="&lt;Group&gt;"><g id="&lt;Group&gt;"><path id="&lt;Compound Path&gt;" fill-rule="evenodd" class="shp0" d="M-100 -223.95L-20 -223.95C-15.58 -223.95 -12 -220.37 -12 -215.95L-12 -159.95C-12 -155.53 -15.58 -151.95 -20 -151.95L-100 -151.95C-104.42 -151.95 -108 -155.53 -108 -159.95L-108 -215.95C-108 -220.37 -104.42 -223.95 -100 -223.95ZM-20 -165.55L-20 -210.36L-44.32 -188L-20 -165.55ZM-100 -165.55L-75.68 -188L-100 -210.36L-100 -165.55ZM-25.73 -215.95L-94.27 -215.95L-62.71 -186.94C-61.18 -185.54 -58.82 -185.54 -57.29 -186.94L-25.73 -215.95ZM-25.73 -159.95L-50.23 -182.57L-51.88 -181.05C-56.47 -176.83 -63.53 -176.83 -68.12 -181.05L-69.77 -182.57L-94.27 -159.95L-25.73 -159.95Z"></path></g></g><path id="&lt;Compound Path&gt;" fill-rule="evenodd" class="shp0" d="M46 -159.95L46 -199.95L52 -199.95C52 -203.35 54.6 -205.95 58 -205.95L62 -205.95C65.4 -205.95 68 -203.35 68 -199.95L70 -199.95L70 -215.95L102 -215.95L102 -199.95L110 -199.95L110 -159.95L46 -159.95ZM64 -199.95C64 -201.15 63.2 -201.95 62 -201.95L58 -201.95C56.8 -201.95 56 -201.15 56 -199.95L56 -171.95C56 -170.75 56.8 -169.95 58 -169.95L62 -169.95C63.2 -169.95 64 -170.75 64 -171.95L64 -199.95ZM98 -211.95L74 -211.95L74 -197.95L98 -197.95L98 -211.95ZM106 -195.95L102 -195.95L102 -193.95L70 -193.95L70 -195.95L68 -195.95L68 -171.95C68 -168.55 65.4 -165.95 62 -165.95L58 -165.95C54.6 -165.95 52 -168.55 52 -171.95L52 -195.95L50 -195.95L50 -163.95L106 -163.95L106 -195.95ZM76 -181.95L72 -181.95L72 -185.95L76 -185.95L76 -181.95ZM76 -175.95L72 -175.95L72 -179.95L76 -179.95L76 -175.95ZM76 -169.95L72 -169.95L72 -173.95L76 -173.95L76 -169.95ZM82 -181.95L78 -181.95L78 -185.95L82 -185.95L82 -181.95ZM82 -175.95L78 -175.95L78 -179.95L82 -179.95L82 -175.95ZM82 -169.95L78 -169.95L78 -173.95L82 -173.95L82 -169.95ZM88 -181.95L84 -181.95L84 -185.95L88 -185.95L88 -181.95ZM88 -175.95L84 -175.95L84 -179.95L88 -179.95L88 -175.95ZM88 -169.95L84 -169.95L84 -173.95L88 -173.95L88 -169.95ZM98 -185.95C99.2 -185.95 100 -185.15 100 -183.95C100 -182.75 99.2 -181.95 98 -181.95C96.8 -181.95 96 -182.75 96 -183.95C96 -185.15 96.8 -185.95 98 -185.95Z"></path><path id="&lt;Path&gt;" class="shp0" d="M201.25 -199.21C205.72 -198.44 209.81 -196.33 213.07 -193.08C216.32 -189.84 218.44 -185.75 219.21 -181.26C219.5 -179.5 221.02 -178.22 222.82 -178.22C223.05 -178.22 223.25 -178.25 223.4 -178.27C223.41 -178.27 223.41 -178.27 223.42 -178.28C224.4 -178.44 225.24 -178.97 225.81 -179.78C226.37 -180.58 226.58 -181.55 226.41 -182.5C225.4 -188.49 222.57 -193.93 218.24 -198.27C213.9 -202.6 208.44 -205.42 202.47 -206.43L202.46 -206.43C200.46 -206.76 198.58 -205.41 198.25 -203.43C197.94 -201.43 199.28 -199.54 201.25 -199.21L201.25 -199.21Z"></path><path id="&lt;Compound Path&gt;" fill-rule="evenodd" class="shp0" d="M223.76 -168.56L233.67 -158.63C235.73 -156.57 236.82 -154.13 236.83 -151.58C236.84 -149.04 235.76 -146.57 233.74 -144.45C232.95 -143.62 232.14 -142.84 231.34 -142.08C230.19 -140.97 229.16 -139.98 228.27 -138.91C228.25 -138.87 228.22 -138.85 228.18 -138.81L228.14 -138.77C225.16 -135.54 221.35 -133.91 216.84 -133.91C216.44 -133.91 216.06 -133.93 215.69 -133.94C215.68 -133.94 215.63 -133.94 215.62 -133.94C209.19 -134.36 203.49 -136.74 199.25 -138.77L199.24 -138.77C188.23 -144.1 178.56 -151.67 170.51 -161.27C163.91 -169.22 159.44 -176.66 156.47 -184.7C154.5 -190.01 153.74 -194.44 154.07 -198.64L154.07 -198.65C154.39 -202.19 155.82 -205.28 158.35 -207.8L164.54 -213.98C164.54 -213.99 164.55 -213.99 164.56 -214C166.62 -215.97 169.04 -217.02 171.58 -217.02C174.12 -217.02 176.52 -215.97 178.51 -214C179.52 -213.06 180.53 -212.04 181.51 -211.04L181.9 -210.64C182.18 -210.37 182.46 -210.08 182.74 -209.79C183.02 -209.51 183.3 -209.22 183.59 -208.94L188.53 -204C190.64 -201.89 191.77 -199.44 191.77 -196.91C191.78 -194.37 190.65 -191.91 188.53 -189.78C188.27 -189.52 188.01 -189.26 187.76 -189.01C187.5 -188.75 187.25 -188.49 187 -188.24C185.88 -187.09 184.69 -185.89 183.42 -184.68C184.43 -182.59 185.8 -180.5 187.77 -178.02C192.36 -172.4 197.12 -168.06 202.33 -164.74C202.85 -164.42 203.47 -164.11 204.02 -163.83L204.28 -163.71C204.39 -163.65 204.52 -163.58 204.64 -163.52L209.72 -168.6C211.77 -170.65 214.21 -171.74 216.76 -171.74C219.34 -171.74 221.76 -170.64 223.76 -168.56L223.76 -168.56ZM222.78 -143.67C223.91 -145.01 225.1 -146.17 226.35 -147.34C226.49 -147.47 226.62 -147.61 226.75 -147.73C227.37 -148.33 227.95 -148.89 228.5 -149.48L228.5 -149.49C230.24 -151.31 229.57 -152.47 228.58 -153.46C228.58 -153.47 218.6 -163.44 218.59 -163.45C218.16 -163.9 217.5 -164.42 216.82 -164.42C216.09 -164.42 215.4 -163.89 214.95 -163.44L208.77 -157.26C207.76 -156.2 206.51 -155.64 205.15 -155.64C204.36 -155.64 203.59 -155.82 202.81 -156.22C202.75 -156.24 202.7 -156.28 202.64 -156.3L202.62 -156.32C202.58 -156.34 202.55 -156.36 202.51 -156.39C201.99 -156.7 201.37 -157.02 200.81 -157.3C200.06 -157.67 199.26 -158.08 198.48 -158.57C192.54 -162.34 187.2 -167.22 182.12 -173.46C182.12 -173.47 182.11 -173.47 182.11 -173.48C179.26 -177.09 177.4 -180.12 176.08 -183.31C176.06 -183.34 176.05 -183.36 176.04 -183.39C176.02 -183.43 176.01 -183.48 175.99 -183.53C175.28 -185.57 175.69 -187.37 177.2 -188.88L177.29 -188.97C177.31 -189 177.34 -189.01 177.35 -189.03C178.77 -190.29 180.08 -191.61 181.46 -193.01L181.83 -193.39C182.35 -193.93 182.87 -194.45 183.39 -194.97C184.83 -196.41 184.83 -197.42 183.39 -198.86L178.46 -203.78C177.85 -204.38 177.24 -205.01 176.71 -205.55L176.68 -205.59C175.58 -206.7 174.54 -207.75 173.48 -208.75C173.47 -208.76 173.46 -208.77 173.45 -208.78C172.8 -209.41 172.18 -209.73 171.6 -209.73C170.99 -209.73 170.33 -209.4 169.68 -208.78L163.54 -202.64C162.23 -201.35 161.54 -199.88 161.38 -198.04C161.13 -194.89 161.74 -191.55 163.34 -187.24C166.03 -179.99 170.09 -173.22 176.12 -165.96C183.49 -157.15 192.35 -150.22 202.46 -145.36C206.12 -143.62 210.98 -141.58 216.13 -141.25C216.4 -141.23 216.65 -141.21 216.89 -141.21C219.37 -141.21 221.19 -141.97 222.78 -143.67Z"></path><path id="&lt;Path&gt;" class="shp0" d="M241.94 -183.22C240.3 -192.89 235.73 -201.71 228.72 -208.72C221.68 -215.74 212.86 -220.31 203.18 -221.95C201.19 -222.28 199.3 -220.93 198.97 -218.95C198.64 -216.96 199.99 -215.07 201.96 -214.74C210.15 -213.35 217.61 -209.47 223.54 -203.55C229.47 -197.62 233.34 -190.17 234.73 -181.99C235.02 -180.22 236.54 -178.94 238.34 -178.94C238.34 -178.94 238.35 -178.94 238.36 -178.94C238.59 -178.94 238.77 -178.97 238.92 -179C238.93 -179 238.93 -179 238.94 -179C239.92 -179.16 240.76 -179.69 241.33 -180.5C241.9 -181.3 242.11 -182.26 241.94 -183.22L241.94 -183.22Z"></path><g id="&lt;Group&gt;"><path id="&lt;Compound Path&gt;" fill-rule="evenodd" class="shp0" d="M185.97 -473.99C185.97 -473.91 185.98 -473.84 185.98 -473.77C186.04 -472.49 184.85 -471.41 183.63 -471.41C183.55 -471.41 183.48 -471.41 183.41 -471.41C181.71 -471.38 180.01 -471.41 178.31 -471.41C176.47 -471.41 174.62 -471.41 172.77 -471.41C172.77 -470.42 172.77 -469.44 172.77 -468.45C172.77 -467.13 171.68 -466.16 170.41 -466.1C169.14 -466.03 168.05 -467.23 168.05 -468.45C168.05 -469.44 168.05 -470.42 168.05 -471.41C167.88 -471.41 167.7 -471.41 167.52 -471.41C162.51 -471.41 157.51 -471.41 152.5 -471.41C146.56 -471.41 140.63 -471.41 134.71 -471.41C128.35 -471.41 122 -471.41 115.63 -471.41C109.36 -471.41 103.09 -471.41 96.83 -471.41C91.07 -471.41 85.32 -471.41 79.57 -471.41C75.7 -471.41 71.83 -471.41 67.96 -471.41C67.96 -470.42 67.96 -469.44 67.96 -468.45C67.96 -467.13 66.88 -466.16 65.6 -466.1C64.33 -466.03 63.25 -467.23 63.25 -468.45C63.25 -469.44 63.25 -470.42 63.25 -471.41C60.79 -471.41 58.34 -471.41 55.88 -471.41C54.7 -471.41 53.54 -471.41 52.36 -471.41C51.08 -471.41 50 -472.49 50 -473.77C50 -474.35 50 -474.94 50 -475.52C50 -479.88 50 -484.21 50 -488.57C50 -495.75 50 -502.94 50 -510.14C50 -518.52 50 -526.89 50 -535.27C50 -543.15 50 -551.03 50 -558.91C50 -564.63 50 -570.34 50 -576.06C50 -577.6 50 -579.14 50 -580.68C50 -582.67 50.2 -584.57 51.71 -586.13C53.21 -587.67 55.12 -588 57.12 -588C58.45 -588 59.81 -588 61.16 -588C66.33 -588 71.51 -588 76.68 -588C84.1 -588 91.51 -588 98.93 -588C107.32 -588 115.7 -588 124.09 -588C132.16 -588 140.24 -588 148.32 -588C154.82 -588 161.31 -588 167.82 -588C171.45 -588 175.09 -588 178.72 -588C180.48 -588 182.13 -587.83 183.62 -586.66C185.16 -585.45 185.95 -583.66 185.97 -581.75C185.97 -581.42 185.97 -581.1 185.97 -580.77C185.97 -577.1 185.97 -573.42 185.97 -569.74C185.98 -569.65 185.99 -569.54 186 -569.44C186.01 -569.29 185.99 -569.14 185.97 -568.99C185.97 -568.97 185.97 -568.96 185.97 -568.94C185.97 -561.98 185.97 -555 185.97 -548.03C185.97 -539.7 185.97 -531.37 185.97 -523.04C185.97 -515.03 185.97 -507.01 185.97 -499C185.97 -492.98 185.97 -486.95 185.97 -480.91C185.97 -478.6 185.97 -476.3 185.97 -473.99ZM55.88 -583.29C55.77 -583.25 55.67 -583.22 55.57 -583.19C55.75 -583.22 55.14 -582.84 55.18 -582.94C55.08 -582.83 54.96 -582.69 55.02 -582.8C54.94 -582.67 54.87 -582.55 54.81 -582.42C54.8 -582.4 54.8 -582.37 54.79 -582.34C54.77 -582.19 54.75 -582.08 54.73 -582C54.73 -581.96 54.73 -581.92 54.73 -581.89C54.73 -581.81 54.73 -581.75 54.73 -581.67C54.73 -581.29 54.73 -580.91 54.73 -580.54C54.73 -577.63 54.73 -574.71 54.73 -571.8C57.95 -571.8 61.18 -571.8 64.39 -571.8C70.58 -571.8 76.79 -571.8 82.98 -571.8C88.18 -571.8 93.37 -571.8 98.55 -571.8C100.36 -571.8 102.18 -571.8 103.99 -571.8C109.44 -571.8 114.9 -571.8 120.35 -571.8C124.75 -571.8 129.16 -571.8 133.58 -571.8C135.86 -571.8 138.15 -571.8 140.43 -571.8C146.16 -571.8 151.92 -571.8 157.67 -571.8C163.61 -571.8 169.53 -571.8 175.45 -571.8C177.39 -571.8 179.32 -571.8 181.25 -571.8C181.25 -573.05 181.25 -574.3 181.25 -575.56C181.25 -577.17 181.25 -578.79 181.25 -580.41C181.25 -580.8 181.25 -581.21 181.25 -581.6C181.25 -581.68 181.25 -581.78 181.25 -581.86C181.25 -581.87 181.25 -581.88 181.25 -581.89C181.26 -581.95 181.25 -582.04 181.25 -582.08C181.23 -582.16 181.21 -582.24 181.19 -582.33C181.18 -582.36 181.18 -582.39 181.17 -582.41C181.17 -582.42 181.16 -582.43 181.16 -582.44C181.11 -582.54 181.05 -582.64 180.99 -582.74C180.97 -582.75 180.89 -582.84 180.82 -582.91C180.76 -582.96 180.66 -583.04 180.61 -583.08C180.54 -583.13 180.37 -583.2 180.33 -583.22C180.26 -583.24 180.18 -583.26 180.11 -583.29C180.06 -583.3 180.04 -583.31 180.01 -583.32C179.98 -583.31 179.93 -583.31 179.85 -583.3C179.81 -583.3 179.74 -583.3 179.68 -583.3C179.37 -583.3 179.04 -583.3 178.72 -583.3C177.34 -583.3 175.96 -583.3 174.57 -583.3C169.4 -583.3 164.22 -583.3 159.05 -583.3C151.66 -583.3 144.28 -583.3 136.89 -583.3C128.55 -583.3 120.22 -583.3 111.88 -583.3C103.9 -583.3 95.9 -583.3 87.92 -583.3C81.43 -583.3 74.94 -583.3 68.45 -583.3C64.75 -583.3 61.06 -583.3 57.37 -583.3C57.02 -583.3 56.69 -583.3 56.35 -583.3C56.29 -583.3 56.21 -583.3 56.14 -583.3C56.1 -583.3 56.05 -583.3 56 -583.3C55.97 -583.3 55.95 -583.3 55.93 -583.3C55.91 -583.3 55.9 -583.29 55.88 -583.29ZM180.12 -476.14C180.5 -476.14 180.88 -476.14 181.25 -476.14C181.25 -480.21 181.25 -484.28 181.25 -488.35C181.25 -495.47 181.25 -502.58 181.25 -509.7C181.25 -518.01 181.25 -526.33 181.25 -534.64C181.25 -542.49 181.25 -550.34 181.25 -558.19C181.25 -561.15 181.25 -564.12 181.25 -567.09C178.04 -567.09 174.82 -567.09 171.6 -567.09C165.41 -567.09 159.21 -567.09 153.02 -567.09C147.81 -567.09 142.63 -567.09 137.44 -567.09C137.01 -567.09 136.56 -567.09 136.12 -567.09C136.12 -566.15 136.12 -565.21 136.12 -564.27C136.12 -563.2 136.08 -562.12 135.75 -561.08C135.15 -559.24 133.99 -557.72 132.4 -556.61C129.74 -554.74 126.26 -555.16 123.18 -555.16C119.36 -555.16 115.52 -555.16 111.71 -555.16C110.64 -555.16 109.57 -555.16 108.5 -555.16C105.97 -555.18 103.52 -556.2 101.9 -558.16C100.75 -559.56 100.11 -561.16 99.94 -562.95C99.87 -563.58 99.91 -564.23 99.91 -564.87C99.91 -565.61 99.91 -566.35 99.91 -567.09C98.46 -567.09 97.01 -567.09 95.57 -567.09C89.83 -567.09 84.08 -567.09 78.33 -567.09C72.39 -567.09 66.47 -567.09 60.54 -567.09C58.6 -567.09 56.67 -567.09 54.73 -567.09C54.73 -560.49 54.73 -553.9 54.73 -547.3C54.73 -539.04 54.73 -530.77 54.73 -522.51C54.73 -514.59 54.73 -506.67 54.73 -498.75C54.73 -492.78 54.73 -486.81 54.73 -480.84C54.73 -479.28 54.73 -477.72 54.73 -476.16C55.71 -476.16 56.7 -476.14 57.68 -476.14C61.28 -476.14 64.88 -476.14 68.48 -476.14C73.49 -476.14 78.49 -476.14 83.5 -476.14C89.44 -476.14 95.36 -476.14 101.29 -476.14C107.65 -476.14 114 -476.14 120.36 -476.14C126.63 -476.14 132.9 -476.14 139.17 -476.14C144.92 -476.14 150.67 -476.14 156.43 -476.14C161.14 -476.14 165.85 -476.14 170.57 -476.14C173.74 -476.14 176.93 -476.14 180.12 -476.14ZM131.41 -563.66C131.41 -564.18 131.41 -564.68 131.41 -565.2C131.41 -565.81 131.41 -566.42 131.41 -567.02C130.9 -567.02 130.39 -567.02 129.89 -567.02C124.23 -567.02 118.57 -567.02 112.92 -567.02C110.15 -567.02 107.38 -567.02 104.62 -567.02C104.62 -566.18 104.62 -565.34 104.62 -564.49C104.62 -564.23 104.62 -563.94 104.62 -563.68C104.62 -563.58 104.62 -563.49 104.62 -563.38C104.62 -563.31 104.7 -562.83 104.65 -563.01C104.67 -562.92 104.69 -562.84 104.71 -562.75C104.77 -562.57 104.82 -562.4 104.88 -562.23C104.9 -562.16 104.93 -562.09 104.95 -562.06C105.03 -561.92 105.11 -561.76 105.2 -561.62C105.19 -561.62 105.29 -561.48 105.35 -561.38C105.43 -561.3 105.61 -561.08 105.64 -561.05C105.75 -560.94 105.88 -560.83 106 -560.71C106.02 -560.69 106.03 -560.68 106.04 -560.67C106.05 -560.66 106.06 -560.65 106.08 -560.64C106.22 -560.56 106.36 -560.45 106.5 -560.38C106.65 -560.28 106.81 -560.2 106.97 -560.13C107 -560.13 107.03 -560.12 107.07 -560.11C107.32 -560.05 107.55 -559.98 107.79 -559.93C107.55 -559.98 108.25 -559.89 108.37 -559.89C108.64 -559.89 108.92 -559.89 109.19 -559.89C110.51 -559.89 111.82 -559.89 113.12 -559.89C116.77 -559.89 120.43 -559.89 124.07 -559.89C125.16 -559.89 126.24 -559.89 127.32 -559.89C127.42 -559.89 127.53 -559.89 127.62 -559.89C127.81 -559.9 128.57 -560 128.11 -559.9C128.46 -559.97 128.79 -560.06 129.12 -560.17C128.68 -560.03 129.43 -560.34 129.57 -560.42C129.69 -560.51 129.82 -560.59 129.94 -560.67C129.96 -560.68 129.97 -560.7 130 -560.72C130.2 -560.91 130.39 -561.11 130.58 -561.3C130.61 -561.33 130.63 -561.36 130.65 -561.38C130.66 -561.4 130.68 -561.43 130.7 -561.48C130.8 -561.63 130.89 -561.76 130.97 -561.92C131.03 -562.03 131.1 -562.15 131.16 -562.28C131.16 -562.29 131.17 -562.29 131.17 -562.3C131.18 -562.33 131.18 -562.35 131.19 -562.39C131.24 -562.62 131.31 -562.83 131.36 -563.05C131.34 -562.97 131.41 -563.57 131.41 -563.66ZM130 -560.71C129.99 -560.7 129.98 -560.7 129.98 -560.69C129.99 -560.7 129.99 -560.7 130 -560.71Z"></path><path id="&lt;Path&gt;" class="shp0" d="M133.03 -523.34C134.13 -523.97 134.52 -525.48 133.88 -526.56C133.23 -527.66 131.76 -528.04 130.66 -527.41C127.53 -525.6 124.42 -523.81 121.29 -522C120.98 -521.83 120.67 -521.65 120.36 -521.47C120.36 -524.11 120.36 -526.75 120.36 -529.39C120.36 -530.71 120.36 -532.05 120.36 -533.37C120.36 -534.59 119.28 -535.79 118.01 -535.72C116.73 -535.66 115.65 -534.69 115.65 -533.37C115.65 -529.77 115.65 -526.15 115.65 -522.55C115.65 -522.19 115.65 -521.82 115.65 -521.46C113.36 -522.78 111.08 -524.1 108.8 -525.41C107.65 -526.07 106.5 -526.73 105.36 -527.41C104.26 -528.05 102.78 -527.66 102.14 -526.56C101.49 -525.46 101.87 -523.97 102.97 -523.34C106.1 -521.53 109.21 -519.74 112.33 -517.93C112.65 -517.75 112.97 -517.57 113.29 -517.39C111 -516.07 108.71 -514.75 106.43 -513.43C105.28 -512.77 104.13 -512.11 102.98 -511.43C101.88 -510.8 101.49 -509.29 102.14 -508.21C102.78 -507.11 104.26 -506.73 105.36 -507.36C108.48 -509.17 111.6 -510.96 114.72 -512.77C115.03 -512.94 115.34 -513.12 115.65 -513.3C115.65 -510.67 115.65 -508.03 115.65 -505.4C115.65 -504.08 115.65 -502.74 115.65 -501.42C115.65 -500.19 116.73 -499 118.01 -499.06C119.28 -499.13 120.36 -500.1 120.36 -501.42C120.36 -505.02 120.36 -508.63 120.36 -512.23C120.36 -512.59 120.36 -512.94 120.36 -513.3C122.64 -511.99 124.92 -510.67 127.2 -509.36C128.35 -508.7 129.49 -508.04 130.64 -507.36C131.74 -506.72 133.22 -507.11 133.86 -508.21C134.51 -509.31 134.13 -510.8 133.01 -511.43C129.92 -513.22 126.79 -515.03 123.66 -516.83C123.35 -517.02 123.03 -517.2 122.72 -517.38C125.01 -518.7 127.3 -520.02 129.59 -521.34C130.73 -522 131.88 -522.66 133.03 -523.34Z"></path><path id="&lt;Path&gt;" class="shp0" d="M69.58 -488.32C67.9 -488.32 66.23 -488.32 64.55 -488.32C63.32 -488.32 62.13 -487.23 62.19 -485.96C62.24 -484.67 63.23 -483.6 64.55 -483.6C66.23 -483.6 67.9 -483.6 69.58 -483.6C70.8 -483.6 72 -484.69 71.94 -485.96C71.87 -487.23 70.9 -488.32 69.58 -488.32Z"></path><path id="&lt;Path&gt;" class="shp0" d="M84.95 -488.32C83.26 -488.32 81.6 -488.32 79.92 -488.32C78.69 -488.32 77.5 -487.23 77.56 -485.96C77.62 -484.67 78.6 -483.6 79.92 -483.6C81.6 -483.6 83.26 -483.6 84.95 -483.6C86.17 -483.6 87.37 -484.69 87.3 -485.96C87.24 -487.23 86.27 -488.32 84.95 -488.32Z"></path></g><path id="&lt;Compound Path&gt;" fill-rule="evenodd" class="shp0" d="M342.21 -521.64L342.21 -479.24C342.21 -478.1 341.29 -477.18 340.15 -477.18L335.32 -477.18L335.32 -474.67C335.32 -473.53 334.39 -472.6 333.25 -472.6L328.02 -472.6L328.02 -467.16C328.02 -466.02 327.09 -465.09 325.95 -465.09L230.43 -465.09C229.29 -465.09 228.37 -466.02 228.37 -467.16L228.37 -472.6L223.16 -472.6C222.02 -472.6 221.1 -473.53 221.1 -474.67L221.1 -477.23L215.13 -477.23C214.58 -477.23 214.13 -477.68 214.13 -478.23L214.13 -521.7C213.21 -523.62 213.17 -525.72 214.02 -527.94C214.6 -529.48 215.62 -531.08 217.05 -532.71C217.05 -540.37 217.67 -547.92 218.89 -555.16C220.38 -564.02 222.72 -572.08 225.85 -579.11L225.85 -586.03C225.85 -587.13 226.72 -588.03 227.8 -588.09C227.84 -588.1 227.87 -588.1 227.91 -588.1L327.99 -588.1C329.12 -588.1 330.05 -587.17 330.05 -586.03L330.05 -579.3C333.27 -572.17 335.68 -563.96 337.21 -554.9C338.41 -547.81 339.03 -540.43 339.05 -532.94C340.61 -531.2 341.72 -529.51 342.33 -527.89C343.17 -525.66 343.13 -523.56 342.21 -521.64ZM232.5 -472.6L232.5 -469.22L323.89 -469.22L323.89 -472.6L232.5 -472.6ZM225.22 -524.18L225.22 -476.73L331.19 -476.73L331.19 -524.18L225.22 -524.18ZM217.78 -523.63C218.95 -522.97 220.26 -523.12 221.1 -523.51L221.1 -524.19L219.21 -524.19C218.53 -524.19 217.92 -524.52 217.55 -525.04C217.52 -524.54 217.6 -524.08 217.78 -523.63ZM218.26 -481.36L220.88 -481.36L220.88 -519.14C220.01 -518.98 219.12 -518.97 218.26 -519.13L218.26 -481.36ZM229.33 -576.8C226.49 -570.24 224.34 -562.74 222.95 -554.48C221.94 -548.54 221.36 -542.38 221.21 -536.11L225.49 -546.05C225.81 -546.81 226.56 -547.3 227.38 -547.3L329.09 -547.3C329.99 -547.3 330.79 -546.72 331.06 -545.86L334.86 -536.62C334.69 -542.62 334.11 -548.52 333.15 -554.22C331.74 -562.58 329.55 -570.17 326.65 -576.8L229.33 -576.8ZM222.34 -528.31L333.78 -528.44L327.71 -543.17L228.74 -543.17L222.34 -528.31ZM325.93 -580.92L325.93 -583.97L229.98 -583.97L229.98 -580.92L325.93 -580.92ZM335.46 -519.08L335.46 -481.3L338.09 -481.3L338.09 -519.07C337.23 -518.92 336.34 -518.92 335.46 -519.08ZM338.57 -523.58C338.82 -524.18 338.87 -524.83 338.73 -525.55C338.52 -525.07 338.13 -524.68 337.63 -524.48C337.35 -524.37 337.07 -524.31 336.77 -524.33L335.32 -524.33L335.32 -523.42C336.15 -523.05 337.43 -522.93 338.57 -523.58Z"></path><g id="&lt;Group&gt;"><path id="&lt;Compound Path&gt;" fill-rule="evenodd" class="shp0" d="M546.9 -579.21C546.9 -574.82 543.32 -571.24 538.92 -571.24L528.06 -571.24L528.06 -472.44C528.06 -471.08 526.96 -469.98 525.6 -469.98L436.32 -469.98C434.96 -469.98 433.86 -471.08 433.86 -472.44L433.86 -571.24L423.01 -571.24C418.61 -571.24 415.03 -574.82 415.03 -579.22C415.03 -583.61 418.61 -587.19 423.01 -587.19L538.92 -587.19C543.32 -587.19 546.9 -583.61 546.9 -579.21ZM523.14 -474.9L523.14 -571.24L438.78 -571.24L438.78 -474.9L523.14 -474.9ZM541.98 -579.21C541.98 -580.9 540.6 -582.27 538.92 -582.27L423.01 -582.27C421.32 -582.27 419.95 -580.9 419.95 -579.21C419.95 -577.53 421.32 -576.16 423.01 -576.16L538.92 -576.16C540.6 -576.16 541.98 -577.53 541.98 -579.21Z"></path><path id="&lt;Compound Path&gt;" fill-rule="evenodd" class="shp0" d="M452.1 -487.13L452.1 -559.01C452.1 -560.36 453.2 -561.46 454.56 -561.46L507.37 -561.46C508.73 -561.46 509.83 -560.36 509.83 -559.01L509.83 -487.13C509.83 -485.77 508.73 -484.67 507.37 -484.67L454.56 -484.67C453.2 -484.67 452.1 -485.77 452.1 -487.13ZM457.02 -489.59L504.91 -489.59L504.91 -556.55L457.02 -556.55L457.02 -489.59Z"></path><path id="&lt;Path&gt;" class="shp0" d="M489.38 -545.53L474.01 -545.53C472.65 -545.53 471.55 -544.43 471.55 -543.07C471.55 -541.71 472.65 -540.61 474.01 -540.61L489.38 -540.61C490.74 -540.61 491.84 -541.71 491.84 -543.07C491.84 -544.43 490.74 -545.53 489.38 -545.53Z"></path></g><g id="&lt;Group&gt;"><path id="&lt;Compound Path&gt;" fill-rule="evenodd" class="shp0" d="M657.29 -575.29L657.29 -571.29C657.29 -569.08 655.49 -567.29 653.29 -567.29L653.29 -485.29C653.29 -481.98 650.59 -479.29 647.29 -479.29L644.85 -479.29L642.85 -471.29L623.72 -471.29L621.72 -479.29L616.85 -479.29L614.85 -471.29L595.72 -471.29L593.72 -479.29L591.29 -479.29C588.68 -479.29 586.48 -480.96 585.65 -483.29L585.29 -483.29L585.29 -567.29C583.08 -567.29 581.29 -569.08 581.29 -571.29L581.29 -575.29C581.29 -577.49 583.08 -579.29 585.29 -579.29L653.29 -579.29C655.49 -579.29 657.29 -577.49 657.29 -575.29ZM612.72 -479.29L597.85 -479.29L598.85 -475.29L611.72 -475.29L612.72 -479.29ZM640.72 -479.29L625.85 -479.29L626.85 -475.29L639.72 -475.29L640.72 -479.29ZM649.29 -567.29L589.29 -567.29L589.29 -485.29C589.29 -484.18 590.18 -483.29 591.29 -483.29L647.29 -483.29C648.39 -483.29 649.29 -484.18 649.29 -485.29L649.29 -567.29ZM653.29 -571.29L653.29 -575.29L585.29 -575.29L585.29 -571.29L653.29 -571.29Z"></path><path id="&lt;Compound Path&gt;" fill-rule="evenodd" class="shp0" d="M645.29 -487.29L593.29 -487.29L593.29 -563.29L645.29 -563.29L645.29 -487.29ZM597.29 -525.29L601.29 -525.29L601.29 -541.29L597.29 -541.29L597.29 -525.29ZM641.29 -523.29L604.73 -523.29C604.04 -522.1 602.76 -521.29 601.29 -521.29L597.29 -521.29L597.29 -491.29L601.29 -491.29L601.29 -503.29L613.29 -503.29L613.29 -491.29L617.29 -491.29L617.29 -503.63C617.29 -505.23 617.91 -506.74 619.04 -507.87L621.29 -510.11L621.29 -515.29L617.29 -515.29L617.29 -519.29L637.29 -519.29L637.29 -515.29L633.29 -515.29L633.29 -510.11L635.53 -507.87C636.66 -506.74 637.29 -505.23 637.29 -503.63L637.29 -491.29L641.29 -491.29L641.29 -523.29ZM633.29 -503.63C633.29 -504.16 633.08 -504.67 632.7 -505.04L629.29 -508.46L629.29 -515.29L625.29 -515.29L625.29 -508.46L621.87 -505.04C621.49 -504.67 621.29 -504.16 621.29 -503.63L621.29 -491.29L633.29 -491.29L633.29 -503.63ZM609.29 -499.29L605.29 -499.29L605.29 -491.29L609.29 -491.29L609.29 -499.29ZM641.29 -559.29L597.29 -559.29L597.29 -545.29L601.29 -545.29C603.49 -545.29 605.29 -543.49 605.29 -541.29L605.29 -539.29L613.29 -539.29L613.29 -527.29L617.29 -527.29L617.29 -539.63C617.29 -541.23 617.91 -542.74 619.04 -543.87L621.29 -546.11L621.29 -551.29L617.29 -551.29L617.29 -555.29L637.29 -555.29L637.29 -551.29L633.29 -551.29L633.29 -546.11L635.53 -543.87C636.66 -542.74 637.29 -541.23 637.29 -539.63L637.29 -527.29L641.29 -527.29L641.29 -559.29ZM629.29 -544.46L629.29 -551.29L625.29 -551.29L625.29 -544.46L621.87 -541.04C621.49 -540.67 621.29 -540.16 621.29 -539.63L621.29 -527.29L633.29 -527.29L633.29 -539.63C633.29 -540.16 633.08 -540.67 632.7 -541.04L629.29 -544.46ZM609.29 -527.29L609.29 -535.29L605.29 -535.29L605.29 -527.29L609.29 -527.29Z"></path></g><g id="&lt;Group&gt;"><path id="&lt;Compound Path&gt;" fill-rule="evenodd" class="shp0" d="M801.42 -570.93L801.42 -489.74C801.42 -487.62 800.75 -485 793.75 -485.91L793.75 -482.07C793.75 -479.96 792.04 -478.24 789.92 -478.24L786.09 -478.24C783.98 -478.24 782.26 -479.96 782.26 -482.07L782.26 -485.91L720.97 -485.91L720.97 -482.07C720.97 -479.96 719.25 -478.24 717.14 -478.24L713.31 -478.24C711.19 -478.24 709.48 -479.96 709.48 -482.07L709.48 -485.91C702.87 -485 701.81 -487.62 701.81 -489.74L701.81 -570.93C701.81 -573.04 703.53 -574.76 705.64 -574.76L797.59 -574.76C799.7 -574.76 801.42 -573.04 801.42 -570.93ZM705.64 -562.52L797.59 -562.52L797.59 -570.18L705.64 -570.18L705.64 -562.52ZM717.14 -485.91L713.31 -485.91L713.31 -482.07L717.14 -482.07L717.14 -485.91ZM789.92 -485.91L786.09 -485.91L786.09 -482.07L789.92 -482.07L789.92 -485.91ZM797.59 -557.96L705.64 -557.96L705.64 -489.74L797.59 -489.74L797.59 -557.96ZM713.31 -501.23L713.31 -508.89C713.31 -511.01 715.02 -512.72 717.14 -512.72L728.63 -512.72C730.75 -512.72 732.46 -511.01 732.46 -508.89L732.46 -501.23C732.46 -499.11 730.75 -497.4 728.63 -497.4L717.14 -497.4C715.02 -497.4 713.31 -499.11 713.31 -501.23ZM717.14 -501.23L728.63 -501.23L728.63 -508.89L717.14 -508.89L717.14 -501.23Z"></path></g><path id="&lt;Compound Path&gt;" fill-rule="evenodd" class="shp0" d="M491.84 -317C491.84 -264.53 449.31 -222 396.84 -222C344.37 -222 301.84 -264.53 301.84 -317C301.84 -369.46 344.37 -412 396.84 -412C449.31 -412 491.84 -369.46 491.84 -317ZM446.84 -316.64L446.84 -317C446.98 -320.13 445.79 -323.18 443.58 -325.4L407.58 -361.4C403.16 -365.82 396 -365.82 391.58 -361.4C387.16 -356.98 387.16 -349.82 391.58 -345.4L408.6 -328.36C408.6 -328.36 358.11 -328.36 358.11 -328.36C351.88 -328.35 346.83 -323.3 346.83 -317.07C346.84 -310.84 351.89 -305.79 358.12 -305.8L408.84 -305.8L391.54 -288.66C387.12 -284.24 387.12 -277.08 391.54 -272.66C395.96 -268.24 403.12 -268.24 407.54 -272.66L443.54 -308.66C445.66 -310.77 446.85 -313.64 446.84 -316.64Z"></path><g id="&lt;Group&gt;"><path id="&lt;Compound Path&gt;" fill-rule="evenodd" class="shp0" d="M128.82 68.05C128.82 75.77 122.54 82.05 114.82 82.05C107.1 82.05 100.82 75.77 100.82 68.05C100.82 60.34 107.1 54.05 114.82 54.05C122.54 54.05 128.82 60.34 128.82 68.05ZM124.82 68.05C124.82 62.54 120.33 58.05 114.82 58.05C109.3 58.05 104.82 62.54 104.82 68.05C104.82 73.57 109.3 78.05 114.82 78.05C120.33 78.05 124.82 73.57 124.82 68.05Z"></path><path id="&lt;Compound Path&gt;" fill-rule="evenodd" class="shp0" d="M140.82 75.62L135.99 76.82L138.55 81.09L131.68 87.96L136.55 122.05L140.82 122.05L140.82 138.05L16.82 138.05L16.82 98.05L96.82 98.05C97.33 98.05 97.83 98.1 98.32 98.16L100.06 90.06L91.09 81.09L93.65 76.82L88.82 75.62L88.82 60.49L93.65 59.29L91.09 55.02L95.19 50.91L92.04 48.05L80.82 48.05L80.82 44.05L72.82 44.05L72.82 64.05C72.82 67.36 70.13 70.05 66.82 70.05L22.82 70.05C19.51 70.05 16.82 67.36 16.82 64.05L16.82 20.05C16.82 16.75 19.51 14.05 22.82 14.05L66.82 14.05C70.13 14.05 72.82 16.75 72.82 20.05L72.82 32.05L80.82 32.05L80.82 28.05L103.65 28.05L117.65 42.05L122.38 42.05L123.59 46.88L127.85 44.32L138.55 55.01L135.99 59.29L140.82 60.49L140.82 75.62ZM68.82 44.05L62.82 44.05C59.51 44.05 56.82 41.36 56.82 38.05C56.82 34.75 59.51 32.05 62.82 32.05L68.82 32.05L68.82 20.05C68.82 18.95 67.92 18.05 66.82 18.05L56.82 18.05L56.82 30.05L32.82 30.05L32.82 18.05L22.82 18.05C21.72 18.05 20.82 18.95 20.82 20.05L20.82 64.05C20.82 65.16 21.72 66.05 22.82 66.05L66.82 66.05C67.92 66.05 68.82 65.16 68.82 64.05L68.82 44.05ZM36.82 26.05L52.82 26.05L52.82 18.05L36.82 18.05L36.82 26.05ZM80.82 40.05L80.82 36.05L62.82 36.05C61.72 36.05 60.82 36.95 60.82 38.05C60.82 39.16 61.72 40.05 62.82 40.05L80.82 40.05ZM98.02 48.08L101.78 44.32L106.05 46.89L107.26 42.05L111.99 42.05L101.99 32.05L84.82 32.05L84.82 44.05L93.59 44.05L98.02 48.08ZM96.82 102.05C92.41 102.05 88.82 105.64 88.82 110.05C88.82 114.47 92.41 118.05 96.82 118.05C101.23 118.05 104.82 114.47 104.82 110.05C104.82 105.64 101.23 102.05 96.82 102.05ZM40.82 118.05C45.23 118.05 48.82 114.47 48.82 110.05C48.82 105.64 45.23 102.05 40.82 102.05C36.41 102.05 32.82 105.64 32.82 110.05C32.82 114.47 36.41 118.05 40.82 118.05ZM52.82 110.05C52.82 113.13 51.65 115.93 49.74 118.05L59.9 118.05C57.99 115.93 56.82 113.13 56.82 110.05C56.82 106.98 57.99 104.18 59.9 102.05L49.74 102.05C51.65 104.18 52.82 106.98 52.82 110.05ZM68.82 118.05C73.23 118.05 76.82 114.47 76.82 110.05C76.82 105.64 73.23 102.05 68.82 102.05C64.41 102.05 60.82 105.64 60.82 110.05C60.82 114.47 64.41 118.05 68.82 118.05ZM80.82 110.05C80.82 113.13 79.65 115.93 77.74 118.05L87.9 118.05C85.99 115.93 84.82 113.13 84.82 110.05C84.82 106.98 85.99 104.18 87.9 102.05L77.74 102.05C79.65 104.18 80.82 106.98 80.82 110.05ZM20.82 118.05L31.9 118.05C29.99 115.93 28.82 113.13 28.82 110.05C28.82 106.98 29.99 104.18 31.9 102.05L20.82 102.05L20.82 118.05ZM92.82 134.05L92.82 122.05L20.82 122.05L20.82 134.05L92.82 134.05ZM136.82 126.05L96.82 126.05L96.82 134.05L136.82 134.05L136.82 126.05ZM128.15 91.49L127.85 91.78L123.59 89.22L122.38 94.05L107.26 94.05L106.05 89.22L104.07 90.41L102.16 99.33C106.1 101.3 108.82 105.36 108.82 110.05C108.82 116.67 103.44 122.05 96.82 122.05L132.51 122.05L128.15 91.49ZM136.82 63.62L131.93 62.39L130.92 59.95L133.51 55.64L127.24 49.36L122.92 51.95L120.64 51.02L120.23 49.95L119.26 46.05L110.38 46.05L109.16 50.96L106.72 51.95L102.4 49.36L96.12 55.64L98.72 59.95L97.71 62.39L92.82 63.62L92.82 72.49L97.72 73.71L98.72 76.15L96.12 80.47L102.4 86.75L106.72 84.16L109 85.09L109.41 86.16L110.38 90.05L119.26 90.05L120.48 85.15L122.92 84.16L127.24 86.75L133.51 80.47L130.92 76.15L131.85 73.88L132.92 73.47L136.82 72.49L136.82 63.62Z"></path><path id="&lt;Path&gt;" class="shp0" d="M121.51 106.26L125.47 105.69L126.03 109.65L122.07 110.22L121.51 106.26Z"></path><path id="&lt;Path&gt;" class="shp0" d="M120.38 98.34L124.34 97.77L124.9 101.73L120.94 102.3L120.38 98.34Z"></path><path id="&lt;Path&gt;" class="shp0" d="M122.64 114.18L126.6 113.61L127.17 117.57L123.21 118.14L122.64 114.18Z"></path><path id="&lt;Path&gt;" class="shp0" d="M24.82 58.05L28.82 58.05L28.82 62.05L24.82 62.05L24.82 58.05Z"></path><path id="&lt;Path&gt;" class="shp0" d="M32.82 58.05L36.82 58.05L36.82 62.05L32.82 62.05L32.82 58.05Z"></path><path id="&lt;Path&gt;" class="shp0" d="M40.82 58.05L44.82 58.05L44.82 62.05L40.82 62.05L40.82 58.05Z"></path><path id="&lt;Path&gt;" class="shp0" d="M24.82 50.05L44.82 50.05L44.82 54.05L24.82 54.05L24.82 50.05Z"></path><path id="&lt;Path&gt;" class="shp0" d="M32.82 126.05L36.82 126.05L36.82 130.05L32.82 130.05L32.82 126.05Z"></path><path id="&lt;Path&gt;" class="shp0" d="M24.82 126.05L28.82 126.05L28.82 130.05L24.82 130.05L24.82 126.05Z"></path><path id="&lt;Path&gt;" class="shp0" d="M40.82 126.05L44.82 126.05L44.82 130.05L40.82 130.05L40.82 126.05Z"></path><path id="&lt;Path&gt;" class="shp0" d="M94.82 108.05L98.82 108.05L98.82 112.05L94.82 112.05L94.82 108.05Z"></path><path id="&lt;Path&gt;" class="shp0" d="M66.82 108.05L70.82 108.05L70.82 112.05L66.82 112.05L66.82 108.05Z"></path><path id="&lt;Path&gt;" class="shp0" d="M38.82 108.05L42.82 108.05L42.82 112.05L38.82 112.05L38.82 108.05Z"></path></g><g id="&lt;Group&gt;"><path id="&lt;Path&gt;" class="shp0" d="M972.09 -215.58C972.09 -214.47 972.99 -213.58 974.09 -213.58L983.33 -213.58L983.33 -205C983.33 -203.9 984.22 -203 985.33 -203C986.43 -203 987.33 -203.9 987.33 -205L987.33 -213.58L998.6 -213.58L998.6 -208.16C998.6 -207.06 999.5 -206.16 1000.6 -206.16C1001.71 -206.16 1002.6 -207.06 1002.6 -208.16L1002.6 -213.58L1012.42 -213.58L1012.42 -208.16C1012.42 -207.06 1013.31 -206.16 1014.42 -206.16C1015.52 -206.16 1016.42 -207.06 1016.42 -208.16L1016.42 -213.58L1026.23 -213.58L1026.23 -208.16C1026.23 -207.06 1027.13 -206.16 1028.23 -206.16C1029.34 -206.16 1030.23 -207.06 1030.23 -208.16L1030.23 -213.58L1040.05 -213.58L1040.05 -208.16C1040.05 -207.06 1040.94 -206.16 1042.05 -206.16C1043.15 -206.16 1044.05 -207.06 1044.05 -208.16L1044.05 -213.58L1053.86 -213.58L1053.86 -208.16C1053.86 -207.06 1054.76 -206.16 1055.86 -206.16C1056.97 -206.16 1057.86 -207.06 1057.86 -208.16L1057.86 -213.58L1067.68 -213.58L1067.68 -208.16C1067.68 -207.06 1068.57 -206.16 1069.68 -206.16C1070.78 -206.16 1071.68 -207.06 1071.68 -208.16L1071.68 -213.58L1081.49 -213.58L1081.49 -208.16C1081.49 -207.06 1082.39 -206.16 1083.49 -206.16C1084.6 -206.16 1085.49 -207.06 1085.49 -208.16L1085.49 -213.58L1098.09 -213.58C1099.2 -213.58 1100.09 -214.47 1100.09 -215.58C1100.09 -216.68 1099.2 -217.58 1098.09 -217.58L987.33 -217.58L987.33 -329C987.33 -330.1 986.43 -331 985.33 -331C984.22 -331 983.33 -330.1 983.33 -329L983.33 -316.74L977.91 -316.74C976.81 -316.74 975.91 -315.84 975.91 -314.74C975.91 -313.63 976.81 -312.74 977.91 -312.74L983.33 -312.74L983.33 -302.92L977.91 -302.92C976.81 -302.92 975.91 -302.03 975.91 -300.92C975.91 -299.82 976.81 -298.92 977.91 -298.92L983.33 -298.92L983.33 -289.11L977.91 -289.11C976.81 -289.11 975.91 -288.21 975.91 -287.11C975.91 -286 976.81 -285.11 977.91 -285.11L983.33 -285.11L983.33 -275.29L977.91 -275.29C976.81 -275.29 975.91 -274.39 975.91 -273.29C975.91 -272.19 976.81 -271.29 977.91 -271.29L983.33 -271.29L983.33 -261.47L977.91 -261.47C976.81 -261.47 975.91 -260.58 975.91 -259.47C975.91 -258.37 976.81 -257.47 977.91 -257.47L983.33 -257.47L983.33 -247.66L977.91 -247.66C976.81 -247.66 975.91 -246.76 975.91 -245.66C975.91 -244.56 976.81 -243.66 977.91 -243.66L983.33 -243.66L983.33 -233.84L977.91 -233.84C976.81 -233.84 975.91 -232.95 975.91 -231.84C975.91 -230.74 976.81 -229.84 977.91 -229.84L983.33 -229.84L983.33 -217.58L974.09 -217.58C972.99 -217.58 972.09 -216.68 972.09 -215.58Z"></path><path id="&lt;Compound Path&gt;" fill-rule="evenodd" class="shp0" d="M1038.9 -294.02L1048.39 -270.22L1056.95 -281.74C1057.39 -282.33 1058.1 -282.63 1058.83 -282.53C1059.55 -282.43 1060.17 -281.94 1060.43 -281.26L1080.73 -228.12C1080.96 -227.5 1080.88 -226.81 1080.5 -226.27C1080.13 -225.73 1079.52 -225.41 1078.86 -225.41L1000.6 -225.41C999.5 -225.41 998.6 -226.3 998.6 -227.41L998.6 -310.72C998.6 -311.56 999.13 -312.31 999.91 -312.6C1000.7 -312.88 1001.58 -312.65 1002.13 -312.01L1014.29 -297.63L1024.58 -311.89C1025.08 -312.58 1025.96 -312.88 1026.78 -312.63C1027.59 -312.39 1028.16 -311.66 1028.2 -310.81L1029.19 -289.04L1035.72 -294.78C1036.21 -295.21 1036.88 -295.37 1037.51 -295.23C1038.14 -295.07 1038.66 -294.63 1038.9 -294.02ZM1046 -265.41L1036.23 -289.91L1028.7 -283.29C1028.11 -282.78 1027.29 -282.65 1026.59 -282.95C1025.88 -283.25 1025.41 -283.93 1025.38 -284.7L1024.46 -304.89L1016.04 -293.22C1015.68 -292.72 1015.11 -292.41 1014.49 -292.39C1013.88 -292.37 1013.29 -292.63 1012.89 -293.1L1002.6 -305.26L1002.6 -229.41L1075.95 -229.41L1057.99 -276.43L1049.46 -264.96C1049.03 -264.38 1048.33 -264.08 1047.6 -264.17C1046.88 -264.27 1046.27 -264.74 1046 -265.41Z"></path></g><g id="&lt;Group&gt;"><path id="&lt;Compound Path&gt;" fill-rule="evenodd" class="shp0" d="M868.29 -135.95C868.29 -131.54 864.7 -127.95 860.29 -127.95C855.87 -127.95 852.29 -131.54 852.29 -135.95C852.29 -140.36 855.87 -143.95 860.29 -143.95C864.7 -143.95 868.29 -140.36 868.29 -135.95ZM864.29 -135.95C864.29 -138.16 862.49 -139.95 860.29 -139.95C858.08 -139.95 856.29 -138.16 856.29 -135.95C856.29 -133.75 858.08 -131.95 860.29 -131.95C862.49 -131.95 864.29 -133.75 864.29 -135.95Z"></path><path id="&lt;Compound Path&gt;" fill-rule="evenodd" class="shp0" d="M874.33 -127.86L868.17 -116.57C873.47 -107.27 876.29 -96.72 876.29 -85.95C876.29 -72.09 871.57 -58.63 863.13 -47.8C874.68 -45.19 876.29 -42.26 876.29 -39.95C876.29 -28.09 816.82 -27.95 814.29 -27.95C811.75 -27.95 752.29 -28.09 752.29 -39.95C752.29 -42.26 753.89 -45.19 765.44 -47.8C757 -58.63 752.29 -72.09 752.29 -85.95C752.29 -103.14 759.53 -119.71 772.15 -131.42L772.73 -131.95L794.42 -131.95C795.41 -139.83 802.14 -145.95 810.29 -145.95C818.43 -145.95 825.16 -139.83 826.15 -131.95L844.71 -131.95C844.44 -133.12 844.29 -134.32 844.29 -135.52L844.29 -135.95C844.29 -144.77 851.46 -151.95 860.29 -151.95C869.11 -151.95 876.29 -144.77 876.29 -135.95L876.29 -135.52C876.29 -132.85 875.61 -130.2 874.33 -127.86ZM798.29 -129.52C798.29 -127.52 798.79 -125.53 799.75 -123.78L809.08 -106.67C809.57 -105.79 811.01 -105.79 811.49 -106.67L820.82 -123.78C821.78 -125.53 822.29 -127.52 822.29 -129.52L822.29 -129.95C822.29 -136.57 816.9 -141.95 810.29 -141.95C803.67 -141.95 798.29 -136.57 798.29 -129.95L798.29 -129.52ZM760.66 -107.95L762.59 -107.95C767.94 -107.95 772.29 -103.6 772.29 -98.26C772.29 -95.55 774.21 -93.21 776.86 -92.68L777.89 -92.47C780.43 -91.96 782.61 -90.51 784.03 -88.39C785.21 -86.61 786.82 -83.77 788.1 -79.94C788.16 -79.94 788.22 -79.95 788.29 -79.95C793.33 -79.95 797.82 -77.6 800.76 -73.95L812.29 -73.95C816.7 -73.95 820.29 -70.36 820.29 -65.95C820.29 -64.85 821.18 -63.95 822.29 -63.95L830.29 -63.95C833.59 -63.95 836.29 -61.26 836.29 -57.95C836.29 -54.64 833.59 -51.95 830.29 -51.95L816.29 -51.95C814.08 -51.95 812.29 -50.16 812.29 -47.95C812.29 -45.75 814.08 -43.95 816.29 -43.95L854.27 -43.95C858.03 -47.54 861.26 -51.6 863.91 -55.99C859.67 -56.19 856.29 -59.67 856.29 -63.95C856.29 -66.16 854.49 -67.95 852.29 -67.95L846.29 -67.95C841.87 -67.95 838.29 -71.54 838.29 -75.95C838.29 -80.36 841.87 -83.95 846.29 -83.95L854.95 -83.95C856.79 -83.95 858.29 -85.45 858.29 -87.29C858.29 -88.33 857.79 -89.33 856.95 -89.95L854.29 -91.95C851.78 -93.83 850.29 -96.82 850.29 -99.95C850.29 -102.16 848.49 -103.95 846.29 -103.95C841.87 -103.95 838.29 -107.54 838.29 -111.95C838.29 -116.36 841.87 -119.95 846.29 -119.95L850.55 -119.95L846.24 -127.86C846.22 -127.89 846.21 -127.92 846.2 -127.95L826.19 -127.95C825.98 -125.83 825.36 -123.74 824.33 -121.86L820.02 -113.95L826.29 -113.95C830.7 -113.95 834.29 -110.36 834.29 -105.95C834.29 -101.54 830.7 -97.95 826.29 -97.95L824.29 -97.95C823.18 -97.95 822.29 -97.05 822.29 -95.95C822.29 -92.64 819.59 -89.95 816.29 -89.95L804.29 -89.95C800.98 -89.95 798.29 -92.64 798.29 -95.95L798.29 -97.95C798.29 -100.16 796.49 -101.95 794.29 -101.95C789.87 -101.95 786.29 -105.54 786.29 -109.95C786.29 -111.05 785.39 -111.95 784.29 -111.95L780.29 -111.95C776.98 -111.95 774.29 -114.64 774.29 -117.95C774.29 -121.26 776.98 -123.95 780.29 -123.95L795.3 -123.95C794.83 -125.24 794.52 -126.58 794.38 -127.95L774.3 -127.95C768.35 -122.28 763.74 -115.44 760.66 -107.95ZM802.29 -97.95L802.29 -95.95C802.29 -94.85 803.18 -93.95 804.29 -93.95L816.29 -93.95C817.39 -93.95 818.29 -94.85 818.29 -95.95C818.29 -99.26 820.98 -101.95 824.29 -101.95L826.29 -101.95C828.49 -101.95 830.29 -103.75 830.29 -105.95C830.29 -108.16 828.49 -109.95 826.29 -109.95L817.84 -109.95L815 -104.75C814.06 -103.02 812.25 -101.95 810.29 -101.95C808.32 -101.95 806.51 -103.02 805.57 -104.75L797.28 -119.95L780.29 -119.95C779.18 -119.95 778.29 -119.05 778.29 -117.95C778.29 -116.85 779.18 -115.95 780.29 -115.95L784.29 -115.95C787.59 -115.95 790.29 -113.26 790.29 -109.95C790.29 -107.75 792.08 -105.95 794.29 -105.95C798.7 -105.95 802.29 -102.36 802.29 -97.95ZM776.29 -63.95L776.29 -63.52C776.29 -61.52 776.79 -59.53 777.75 -57.77L787.08 -40.66C787.57 -39.79 789.01 -39.78 789.49 -40.67L798.82 -57.77C799.78 -59.53 800.29 -61.52 800.29 -63.52L800.29 -63.95C800.29 -70.57 794.9 -75.95 788.29 -75.95C781.67 -75.95 776.29 -70.57 776.29 -63.95ZM795.84 -43.95L809.4 -43.95C808.71 -45.13 808.29 -46.49 808.29 -47.95C808.29 -52.36 811.87 -55.95 816.29 -55.95L830.29 -55.95C831.39 -55.95 832.29 -56.85 832.29 -57.95C832.29 -59.06 831.39 -59.95 830.29 -59.95L822.29 -59.95C818.98 -59.95 816.29 -62.64 816.29 -65.95C816.29 -68.16 814.49 -69.95 812.29 -69.95L803.11 -69.95C803.86 -68.1 804.29 -66.07 804.29 -63.95L804.29 -63.52C804.29 -60.85 803.61 -58.2 802.33 -55.86L795.84 -43.95ZM756.29 -85.95C756.29 -70.13 762.84 -54.87 774.3 -43.95L780.73 -43.95L774.24 -55.86C772.96 -58.2 772.29 -60.85 772.29 -63.52L772.29 -63.95C772.29 -71.3 777.28 -77.5 784.04 -79.36C782.95 -82.4 781.67 -84.71 780.7 -86.17C779.88 -87.4 778.6 -88.25 777.1 -88.55L776.08 -88.75C771.56 -89.66 768.29 -93.65 768.29 -98.26C768.29 -101.4 765.73 -103.95 762.59 -103.95L759.18 -103.95C757.29 -98.18 756.29 -92.11 756.29 -85.95ZM860.2 -44.34C859 -43.01 857.75 -41.72 856.42 -40.49L855.85 -39.95L793.66 -39.95L793 -38.75C792.06 -37.02 790.25 -35.95 788.29 -35.95C786.32 -35.95 784.51 -37.02 783.57 -38.75L782.92 -39.95L772.73 -39.95L772.15 -40.49C770.82 -41.71 769.57 -43.01 768.37 -44.34C757.22 -42.09 756.28 -39.9 756.28 -39.88C757.3 -37.13 777.57 -31.95 814.29 -31.95C850.99 -31.95 871.25 -37.12 872.29 -40.02C872.24 -40.02 871.08 -42.14 860.2 -44.34ZM865.9 -112.4L865 -110.75C864.06 -109.02 862.25 -107.95 860.29 -107.95C858.32 -107.95 856.51 -109.02 855.57 -110.75L852.73 -115.95L846.29 -115.95C844.08 -115.95 842.29 -114.16 842.29 -111.95C842.29 -109.75 844.08 -107.95 846.29 -107.95C850.7 -107.95 854.29 -104.36 854.29 -99.95C854.29 -98.07 855.18 -96.28 856.69 -95.15L859.35 -93.15C861.19 -91.78 862.29 -89.58 862.29 -87.29C862.29 -83.24 859 -79.95 854.95 -79.95L846.29 -79.95C844.08 -79.95 842.29 -78.16 842.29 -75.95C842.29 -73.75 844.08 -71.95 846.29 -71.95L852.29 -71.95C856.7 -71.95 860.29 -68.36 860.29 -63.95C860.29 -61.75 862.08 -59.95 864.29 -59.95L866.09 -59.95C870.11 -67.96 872.29 -76.86 872.29 -85.95C872.29 -95.18 870.08 -104.25 865.9 -112.4ZM872.29 -135.95C872.29 -142.57 866.9 -147.95 860.29 -147.95C853.67 -147.95 848.29 -142.57 848.29 -135.95L848.29 -135.52C848.29 -133.52 848.79 -131.53 849.75 -129.78L859.08 -112.67C859.57 -111.79 861.01 -111.79 861.49 -112.67L870.82 -129.78C871.78 -131.53 872.29 -133.52 872.29 -135.52L872.29 -135.95Z"></path><path id="&lt;Compound Path&gt;" fill-rule="evenodd" class="shp0" d="M802.29 -129.95C802.29 -134.36 805.87 -137.95 810.29 -137.95C814.7 -137.95 818.29 -134.36 818.29 -129.95C818.29 -125.54 814.7 -121.95 810.29 -121.95C805.87 -121.95 802.29 -125.54 802.29 -129.95ZM806.29 -129.95C806.29 -127.75 808.08 -125.95 810.29 -125.95C812.49 -125.95 814.29 -127.75 814.29 -129.95C814.29 -132.16 812.49 -133.95 810.29 -133.95C808.08 -133.95 806.29 -132.16 806.29 -129.95Z"></path><path id="&lt;Compound Path&gt;" fill-rule="evenodd" class="shp0" d="M780.29 -63.95C780.29 -68.36 783.87 -71.95 788.29 -71.95C792.7 -71.95 796.29 -68.36 796.29 -63.95C796.29 -59.54 792.7 -55.95 788.29 -55.95C783.87 -55.95 780.29 -59.54 780.29 -63.95ZM784.29 -63.95C784.29 -61.75 786.08 -59.95 788.29 -59.95C790.49 -59.95 792.29 -61.75 792.29 -63.95C792.29 -66.16 790.49 -67.95 788.29 -67.95C786.08 -67.95 784.29 -66.16 784.29 -63.95Z"></path></g><path id="&lt;Path&gt;" class="shp0" d="M469.67 0.87C470.31 0.23 470.83 -0.48 471.4 -1.19C471.52 -1.34 471.69 -1.48 471.82 -1.63C471.99 -1.81 472.18 -1.95 472.36 -2.11C472.53 -2.26 472.67 -2.46 472.86 -2.58C473.03 -2.7 473.18 -2.77 473.32 -2.92C473.5 -3.1 473.67 -3.2 473.86 -3.34C474.1 -3.5 474.29 -3.73 474.57 -3.85C474.87 -3.98 475.09 -4.25 475.37 -4.42C475.71 -4.62 476.02 -4.88 476.35 -5.1C476.49 -5.19 476.58 -5.32 476.71 -5.41C476.78 -5.47 477.02 -5.61 477.12 -5.62C477.3 -5.67 477.32 -5.9 477.4 -6.03C477.48 -6.17 477.56 -6.31 477.64 -6.45C477.74 -6.63 477.76 -6.83 477.88 -7C477.99 -7.16 478.07 -7.3 478.13 -7.49C478.17 -7.64 478.24 -7.76 478.28 -7.91C478.32 -8.04 478.29 -8.22 478.38 -8.35C478.47 -8.48 478.62 -8.43 478.76 -8.46C478.89 -8.49 478.99 -8.52 479.13 -8.51C479.42 -8.51 479.65 -8.66 479.94 -8.71C480.21 -8.76 480.55 -8.75 480.79 -8.93C480.9 -9.01 480.99 -9.15 481.1 -9.24C481.23 -9.34 481.36 -9.43 481.47 -9.55C481.59 -9.67 481.72 -9.75 481.85 -9.86C481.98 -9.97 481.98 -10.13 482.09 -10.24C482 -10.33 481.88 -10.28 481.78 -10.35C481.67 -10.42 481.61 -10.51 481.49 -10.57C481.31 -10.66 481.15 -10.75 480.97 -10.86C480.87 -10.93 480.75 -10.95 480.64 -11.01C480.52 -11.09 480.44 -11.2 480.3 -11.26C480.08 -11.35 479.9 -11.49 479.7 -11.62C479.26 -11.91 478.83 -12.25 478.51 -12.67C478.31 -12.93 478.09 -13.16 477.85 -13.38C477.69 -13.53 477.55 -13.74 477.4 -13.9C477.29 -14.03 477.16 -14.12 477.05 -14.24C476.95 -14.34 476.89 -14.47 476.78 -14.57C476.6 -14.74 476.41 -14.92 476.21 -15.07C475.91 -15.3 475.54 -15.33 475.2 -15.42C474.99 -15.47 474.76 -15.48 474.57 -15.57C474.45 -15.63 474.36 -15.72 474.22 -15.75C474.07 -15.79 473.99 -15.77 473.85 -15.87C473.7 -15.98 473.55 -16.1 473.4 -16.21C473.2 -16.36 472.96 -16.51 472.85 -16.73L472.78 -16.8C472.55 -17.06 472.26 -17.35 472.08 -17.64C471.92 -17.91 471.78 -18.06 471.55 -18.26C471.39 -18.41 471.3 -18.55 471.19 -18.72C471.11 -18.84 470.98 -18.91 470.91 -19.03C470.88 -19.09 470.85 -19.15 470.83 -19.22C470.78 -19.28 470.72 -19.33 470.65 -19.37C470.56 -19.46 470.51 -19.58 470.43 -19.69C470.23 -19.94 470.02 -20.21 469.76 -20.39C469.54 -20.54 469.33 -20.68 469.12 -20.82C468.86 -21 468.58 -21.08 468.3 -21.21C468.14 -21.28 467.97 -21.35 467.79 -21.36C467.58 -21.38 467.36 -21.36 467.14 -21.36C467.04 -21.36 466.94 -21.34 466.84 -21.36C466.72 -21.37 466.55 -21.49 466.43 -21.42C466.29 -21.33 466.35 -21.04 466.35 -20.89C466.35 -20.68 466.35 -20.51 466.4 -20.31C466.44 -20.17 466.4 -20.12 466.53 -20.05C466.61 -19.99 466.74 -19.99 466.83 -19.96C466.94 -19.93 467.09 -19.94 467.18 -19.9C467.3 -19.85 467.35 -19.72 467.4 -19.62C467.49 -19.46 467.58 -19.11 467.74 -19.03C467.89 -18.95 468.26 -19.02 468.42 -19.02C468.54 -18.89 468.57 -18.69 468.63 -18.53C468.69 -18.35 468.77 -18.17 468.84 -17.98C468.98 -17.62 468.98 -17.23 469.38 -17.06C469.53 -17 469.66 -17.02 469.8 -16.96C469.94 -16.9 470.04 -16.89 470.2 -16.86C470.63 -16.78 470.73 -16.52 470.94 -16.19C471.06 -16 471.13 -15.84 471.35 -15.77C471.48 -15.73 471.61 -15.72 471.74 -15.7C471.94 -15.67 472.39 -15.56 472.16 -15.28C471.99 -15.08 471.61 -15.14 471.38 -15.15C471.08 -15.15 470.88 -15.36 470.63 -15.51C470.49 -15.59 470.36 -15.71 470.22 -15.79C470.09 -15.86 469.96 -15.92 469.84 -16.01C469.65 -16.16 469.33 -16.15 469.1 -16.1C469 -16.08 468.92 -16.05 468.82 -16.04C468.76 -16.04 468.65 -16.07 468.59 -16.04C468.47 -15.98 468.49 -15.88 468.49 -15.76C468.5 -15.41 468.53 -15.23 468.74 -14.94C468.83 -14.81 468.89 -14.63 468.83 -14.47C468.77 -14.33 468.6 -14.26 468.49 -14.16C468.37 -14.06 468.21 -13.96 468.14 -13.81C468.09 -13.7 468.05 -13.59 468.01 -13.48C467.81 -12.99 468 -12.35 467.94 -11.83C467.92 -11.65 467.84 -11.61 467.73 -11.47C467.63 -11.34 467.57 -11.2 467.46 -11.08C467.25 -10.85 467.16 -10.58 466.97 -10.35C466.75 -10.08 466.6 -9.79 466.44 -9.48C466.33 -9.29 466.09 -9.01 466.08 -8.8L466.01 -8.8C465.77 -8.84 465.58 -8.97 465.39 -9.11C465.29 -9.18 465.2 -9.19 465.17 -9.33C465.16 -9.4 465.18 -9.51 465.2 -9.57C465.27 -9.92 465.6 -10.26 465.53 -10.63C465.49 -10.83 465.3 -10.94 465.2 -11.11C465.09 -11.29 464.95 -11.44 464.85 -11.63C464.65 -12.02 464.25 -12.41 463.84 -12.6C462.88 -13.03 462.38 -14.11 461.58 -14.74C461.12 -15.09 460.63 -15.37 460.14 -15.69C459.71 -15.96 459.37 -16.33 458.9 -16.53L458.9 -16.6C458.78 -16.71 458.64 -16.79 458.5 -16.86C458.36 -16.93 458.22 -17.04 458.07 -17.08C457.84 -17.13 457.54 -17.09 457.31 -17.09C456.81 -17.09 456.36 -16.95 455.86 -16.95C455.41 -16.95 454.79 -16.84 454.41 -17.08C454.26 -17.17 454.15 -17.28 453.99 -17.36C453.85 -17.44 453.72 -17.52 453.6 -17.62C453.48 -17.71 453.37 -17.81 453.29 -17.93C453.23 -18 453.09 -18.17 453.1 -18.26L453.03 -18.26C452.9 -18.09 452.58 -17.99 452.38 -17.98C452.11 -17.97 451.78 -17.95 451.52 -17.99C450.96 -18.08 450.24 -18.31 449.88 -18.78C449.79 -18.91 449.78 -19.03 449.65 -19.13C449.53 -19.21 449.46 -19.23 449.32 -19.21C449.09 -19.17 448.86 -19.12 448.63 -19.07C448.22 -18.98 447.66 -18.97 447.23 -19.01C446.97 -19.04 446.68 -19.17 446.44 -19.26C446.2 -19.35 446.08 -19.5 445.81 -19.5C445.55 -19.5 445.39 -19.51 445.15 -19.38C444.94 -19.26 444.73 -19.14 444.52 -19.03C444.4 -18.97 444.26 -18.93 444.14 -18.86C444.05 -18.81 444 -18.76 443.9 -18.74C443.78 -18.71 443.72 -18.72 443.6 -18.67C443.49 -18.62 443.43 -18.63 443.31 -18.6C443.08 -18.56 442.86 -18.45 442.63 -18.4C442.37 -18.35 442.1 -18.3 441.85 -18.26C441.46 -18.22 441.08 -18.02 440.67 -18.15C440.45 -18.22 440.23 -18.32 440.05 -18.46C439.9 -18.58 439.64 -18.82 439.63 -19.02L442.7 -65.43L443.32 -103.05L365.89 -103.95L365.06 -78.86L348.57 -78.86C348.83 -78.62 349.1 -78.32 349.41 -78.14C349.69 -77.96 350.06 -77.93 350.35 -77.75C350.48 -77.67 350.6 -77.55 350.71 -77.45C350.85 -77.32 350.94 -77.1 351.08 -76.99C351.28 -76.84 351.61 -76.91 351.85 -76.91C352.17 -76.91 352.45 -76.99 352.76 -77.01C353.08 -77.03 353.54 -77.1 353.68 -76.73C353.8 -76.38 353.86 -76.05 353.95 -75.7C354.03 -75.41 353.92 -75.08 353.98 -74.78C354.01 -74.63 354.09 -74.44 354.16 -74.3C354.24 -74.12 354.32 -74.06 354.54 -74.02C354.69 -73.99 354.82 -74 354.98 -73.96C355.21 -73.89 355.2 -73.81 355.37 -73.65C355.51 -73.51 355.67 -73.47 355.77 -73.28C355.85 -73.14 355.86 -72.98 355.84 -72.82C355.81 -72.54 355.61 -72.12 355.79 -71.85C355.94 -71.63 356.35 -71.6 356.58 -71.5C356.92 -71.34 357.12 -71.05 357.33 -70.75C357.46 -70.55 357.52 -70.32 357.67 -70.13C357.8 -69.98 357.93 -69.8 358.07 -69.64C358.23 -69.47 358.31 -69.51 358.51 -69.44C358.65 -69.4 358.76 -69.29 358.91 -69.28L359 -69.28C359.16 -69.26 359.27 -69.13 359.41 -69.05C359.53 -68.99 359.66 -68.97 359.78 -68.91C360.05 -68.78 360.34 -68.6 360.58 -68.42C361.09 -68.05 361.04 -67.5 361.32 -67C361.49 -66.71 361.75 -66.46 362.03 -66.3C362.29 -66.16 362.59 -66.07 362.82 -65.88C363.35 -65.42 363.63 -64.74 364.07 -64.2C364.17 -64.08 364.24 -63.94 364.36 -63.83C364.49 -63.72 364.65 -63.62 364.79 -63.51C365.05 -63.32 365.31 -63.11 365.6 -62.98C365.76 -62.91 366.17 -62.73 366.36 -62.76C366.73 -62.82 366.48 -63.25 366.37 -63.42C366.01 -64.02 366.66 -64.45 367.21 -64.44C367.41 -64.44 367.8 -64.51 367.97 -64.39C368.19 -64.23 368.3 -63.82 368.35 -63.57C368.44 -63.2 368.42 -62.91 368.03 -62.73C367.78 -62.61 367.35 -62.81 367.21 -62.5C367 -62.06 367.36 -61.84 367.73 -61.84C368.03 -61.83 368.37 -61.81 368.59 -61.56L368.68 -61.56C368.71 -61.4 368.95 -61.28 369.06 -61.17C369.17 -61.03 369.26 -60.89 369.39 -60.76C369.72 -60.43 369.9 -60.35 370.36 -60.35C370.84 -60.35 371.44 -60.44 371.87 -60.26C372.15 -60.14 372.39 -59.92 372.68 -59.88C372.96 -59.85 373.33 -59.97 373.6 -59.87C373.84 -59.78 374.11 -59.48 374.18 -59.24C374.27 -58.95 374.21 -58.6 374.32 -58.31C374.48 -57.91 374.8 -57.93 375.18 -57.93C375.52 -57.93 375.72 -57.92 376.02 -57.74C376.13 -57.67 376.21 -57.64 376.34 -57.58C376.54 -57.5 376.62 -57.4 376.8 -57.28C377.1 -57.06 377.32 -56.94 377.52 -56.61C377.7 -56.3 377.97 -56.04 378.11 -55.72C378.23 -55.45 378.16 -55.17 378.38 -54.95C378.63 -54.7 378.94 -54.53 379.21 -54.3C379.33 -54.19 379.48 -54.06 379.58 -53.93C379.68 -53.8 379.72 -53.66 379.85 -53.56L379.85 -53.18C379.85 -52.9 379.88 -52.6 379.83 -52.33C379.78 -52 379.63 -51.7 379.58 -51.38C379.54 -51.16 379.54 -50.88 379.59 -50.67C379.62 -50.55 379.68 -50.35 379.8 -50.3C379.91 -50.26 380.05 -50.29 380.17 -50.26C380.47 -50.16 380.84 -49.96 380.92 -49.65C381 -49.39 381.16 -49.12 380.95 -48.9C380.84 -48.78 380.71 -48.7 380.6 -48.58C380.49 -48.45 380.31 -48.38 380.21 -48.26C380.06 -48.06 380.13 -47.72 380.13 -47.49C380.13 -47.35 380.1 -47.2 380.18 -47.08C380.27 -46.94 380.46 -46.95 380.6 -46.88C380.82 -46.78 381.23 -46.55 381.35 -46.35C381.49 -46.11 381.49 -45.79 381.3 -45.61C381.1 -45.41 380.62 -45.29 380.77 -44.9C380.9 -44.55 381.88 -44.72 382.2 -44.72C382.57 -44.71 382.71 -44.41 383.04 -44.34C383.35 -44.27 383.76 -44.36 384.09 -44.35C384.42 -44.33 384.7 -44.17 384.92 -43.93C385.34 -43.49 385.47 -43.83 385.85 -44.12C386.08 -44.29 386.63 -44.38 386.78 -44.07C386.93 -43.78 386.83 -43.28 386.83 -42.95C387.27 -42.95 387.94 -43.07 388.32 -42.86C388.57 -42.72 388.87 -42.5 389.15 -42.41C389.47 -42.31 389.64 -42.46 389.9 -42.56C390.4 -42.75 391.04 -42.99 391.33 -42.39C391.4 -42.24 391.47 -41.85 391.33 -41.76C391.23 -41.68 391.05 -41.7 390.92 -41.63C390.82 -41.57 390.64 -41.45 390.57 -41.37C390.16 -40.93 391.34 -40.63 391.31 -40.13C391.29 -39.76 390.16 -40.05 389.92 -40.07C389.72 -40.1 389.45 -40.13 389.36 -39.91C389.25 -39.65 389.35 -39.31 389.53 -39.14C389.72 -38.94 390 -38.9 390.16 -38.67C390.32 -38.45 390.45 -38.12 390.35 -37.85C390.05 -37.73 389.72 -37.91 389.41 -37.75C389.17 -37.62 388.57 -37.22 388.58 -36.9C388.59 -36.67 389.01 -36.42 389.16 -36.25C389.37 -36.03 389.5 -35.51 389.14 -35.33C389.04 -35.33 388.95 -35.32 388.85 -35.3C388.78 -35.27 388.71 -35.23 388.65 -35.19C388.51 -35.13 388.41 -35.13 388.25 -35.13C387.9 -35.14 387.55 -35.22 387.29 -34.95C387.15 -34.8 386.87 -34.33 387.03 -34.1C387.14 -33.94 387.35 -34.04 387.51 -34.02C387.67 -34 387.81 -33.94 387.95 -33.86C388.8 -33.36 387.36 -32.61 387.47 -31.97C387.52 -31.67 388.12 -31.43 388.32 -31.23C388.63 -30.93 388.69 -30.62 388.69 -30.22C388.69 -30.08 388.73 -29.95 388.66 -29.83C388.57 -29.66 388.28 -29.62 388.13 -29.53C387.88 -29.38 387.61 -29.23 387.57 -28.92C387.52 -28.58 387.59 -28.14 387.95 -27.98C388.11 -27.91 388.16 -27.91 388.32 -27.78C388.43 -27.69 388.72 -27.59 388.69 -27.41L333.73 -28.34L311.59 8.84L317.6 15.92C317.6 16.4 317.62 16.89 317.6 17.37C317.59 17.5 317.54 17.6 317.53 17.72C317.51 17.81 317.57 17.97 317.54 18.05C317.49 18.17 317.4 18.13 317.28 18.13C317.12 18.13 317.05 18.15 316.91 18.22C316.65 18.35 316.41 18.49 316.15 18.61C315.81 18.78 315.56 19.06 315.23 19.24C315.04 19.34 314.76 19.46 314.7 19.69C314.63 19.96 314.8 20.21 314.84 20.47C314.89 20.79 314.91 21.08 314.91 21.4C314.91 21.57 314.91 21.73 314.91 21.89C314.91 22.1 314.97 22.28 314.98 22.48C315 22.68 314.96 22.87 315.01 23.06C315.07 23.28 315.05 23.54 315.05 23.77C315.04 24.02 314.85 24.25 314.74 24.48C314.61 24.77 314.46 25.04 314.34 25.32C314.23 25.59 314.1 25.87 313.97 26.13C313.83 26.41 313.66 26.56 313.67 26.9C313.67 27.43 313.59 28.03 313.67 28.55C313.73 28.93 314.05 29.09 314.25 29.38C314.37 29.55 314.49 29.72 314.55 29.92C314.6 30.1 314.62 30.36 314.77 30.49C314.77 30.69 314.78 30.84 314.84 31.04C314.9 31.22 314.89 31.41 314.92 31.59C315 31.99 315.01 32.41 314.93 32.81C314.85 33.19 314.7 33.54 314.57 33.9C314.49 34.13 314.43 34.39 314.36 34.62C314.28 34.87 314.16 35.05 314.05 35.28C313.74 35.99 313.23 36.58 312.86 37.25C312.76 37.42 312.62 37.56 312.54 37.75C312.5 37.86 312.5 37.98 312.43 38.08C312.37 38.16 312.29 38.2 312.23 38.28C312.17 38.37 312.15 38.47 312.08 38.56C312.03 38.62 311.98 38.67 311.94 38.73C311.92 38.75 311.63 39.3 311.59 39.04L311.59 38.97C311.76 39.04 311.93 39.23 312.08 39.33C312.2 39.42 312.33 39.68 312.46 39.73C312.59 39.78 312.78 39.52 312.89 39.45C313.05 39.36 313.22 39.28 313.37 39.19C313.54 39.08 313.67 38.9 313.8 38.77C313.86 38.71 313.93 38.66 313.97 38.6C314.02 38.53 314 38.45 314.05 38.39C314.15 38.25 314.31 38.21 314.41 38.06C314.49 37.93 314.65 37.77 314.84 37.89C314.96 37.96 315.03 38.2 315.08 38.32C315.15 38.49 315.18 38.57 315.18 38.76C315.18 38.96 315.23 39.16 315.08 39.33C315.01 39.41 314.91 39.45 314.84 39.53C314.75 39.61 314.7 39.73 314.63 39.83C314.4 40.15 314.28 40.36 314.28 40.77C314.29 41 314.39 41.18 314.48 41.39C314.55 41.56 314.57 41.8 314.77 41.88C314.82 42.02 314.94 42.04 315.05 42.12C315.14 42.2 315.21 42.31 315.29 42.4C315.46 42.58 315.68 42.75 315.87 42.91C316.04 43.06 316.23 43.19 316.41 43.33C316.61 43.49 316.79 43.69 316.98 43.86C317.2 44.06 317.47 44.21 317.7 44.39C317.89 44.53 318.12 44.63 318.29 44.78C318.63 45.06 319.09 45.14 319.29 45.57C319.47 45.97 319.75 46.32 320.15 46.52C320.36 46.62 320.5 46.67 320.73 46.71C320.94 46.74 321.12 46.81 321.22 47.03C321.33 47.26 321.17 47.4 321.48 47.47C321.66 47.5 321.83 47.56 322 47.61C322.49 47.75 322.17 48.39 322.5 48.64L322.5 48.85C322.49 48.99 322.62 49.05 322.7 49.15C322.76 49.23 322.78 49.32 322.84 49.41C322.97 49.58 323.15 49.75 323.32 49.89C323.46 50.01 323.56 50.1 323.74 50.15C323.89 50.19 324.07 50.17 324.23 50.16C324.47 50.16 324.54 50.19 324.71 50.37C324.86 50.53 324.98 50.7 325.12 50.87C325.27 51.05 325.39 51.24 325.54 51.4C325.68 51.56 325.76 51.73 325.88 51.9C326.04 52.11 326.18 52.21 326.39 52.37C326.59 52.52 326.76 52.71 326.97 52.85C327.36 53.12 327.7 53.44 328.11 53.68C328.32 53.8 328.4 53.82 328.65 53.82C328.81 53.82 328.97 53.82 329.13 53.82C329.58 53.81 329.9 53.29 330.09 52.92C330.28 52.56 330.49 52.21 330.59 51.82C330.64 51.66 330.68 51.49 330.73 51.34C330.78 51.19 330.84 51.11 330.92 50.99C331.02 50.85 331.09 50.7 331.2 50.57C331.33 50.41 331.5 50.26 331.6 50.08C331.7 49.9 331.68 49.71 331.68 49.52C331.68 49.34 331.68 49.18 331.73 48.99C331.76 48.87 331.78 48.74 331.83 48.62C331.87 48.56 331.9 48.5 331.94 48.44C331.96 48.37 331.96 48.31 331.97 48.24C332.04 48.09 332.28 47.98 332.44 48.03C332.65 48.1 332.7 48.46 332.77 48.63C332.95 49.06 333.05 49.51 333.06 49.97C333.07 50.15 333.09 50.33 333 50.48C332.88 50.69 332.73 50.89 332.56 51.07C332.35 51.3 332.23 51.6 332.09 51.88C332 52.05 331.95 52.23 331.96 52.44C331.96 52.76 331.96 53.09 331.96 53.41C331.96 53.58 332 53.83 331.86 53.95C331.74 54.05 331.46 54.06 331.32 54.11C331.22 54.15 331.12 54.17 331.04 54.23C330.97 54.27 330.93 54.32 330.9 54.39C330.86 54.46 330.81 54.53 330.74 54.58C330.54 55.09 331.52 54.82 331.69 54.99C331.81 55.11 331.75 55.38 331.75 55.54C331.75 55.75 331.75 55.96 331.75 56.17C332.02 56.13 332.27 56.32 332.51 56.44C332.69 56.53 332.87 56.65 333.06 56.74C333.48 56.93 333.77 57.23 334.13 57.51C334.31 57.65 334.47 57.73 334.63 57.91C334.76 58.05 334.81 58.21 334.9 58.37C334.99 58.54 335.06 58.74 335.17 58.89C335.3 59.08 335.52 59.19 335.68 59.34C336.02 59.65 336.44 59.42 336.78 59.27C336.91 59.22 337.13 59.15 337.27 59.21C337.44 59.29 337.55 59.59 337.6 59.75C337.72 60.14 337.86 60.62 338.31 60.78C338.49 60.84 338.69 60.88 338.86 60.99C339.06 61.13 339.24 61.31 339.41 61.48L339.48 61.55C339.68 61.82 339.97 62.03 340.22 62.24C340.47 62.45 340.66 62.71 340.95 62.87C341.23 63.02 341.53 63.14 341.83 63.28C342.1 63.41 342.35 63.48 342.64 63.57C342.88 63.65 343.11 63.71 343.36 63.74C343.51 63.77 343.63 63.75 343.76 63.81C343.86 63.86 343.94 63.88 344.05 63.91C344.68 64.09 345.13 64.46 345.62 64.86C346.07 65.22 346.55 65.68 347.16 65.7C347.45 65.71 347.76 65.66 348.06 65.69C348.34 65.72 348.63 65.85 348.88 65.97C349.45 66.25 350.03 66.55 350.53 66.94C350.94 67.27 351.43 67.57 351.97 67.56L352.18 67.49C352.35 67.66 352.74 67.54 352.94 67.51C353.12 67.47 353.31 67.49 353.49 67.49C353.91 67.49 354.35 67.74 354.75 67.89C354.98 67.97 355.19 68.1 355.42 68.16C355.59 68.21 355.75 68.28 355.93 68.34C356.07 68.38 356.18 68.38 356.32 68.4C356.53 68.44 356.74 68.49 356.96 68.46C357.16 68.44 357.16 68.3 357.3 68.17C357.4 68.09 357.55 68.07 357.63 67.97C357.63 67.88 357.05 67.75 356.96 67.72C356.77 67.64 356.74 67.53 356.58 67.41C356.5 67.35 356.25 67.32 356.34 67.15C356.59 67.1 356.89 67.14 357.15 67.14C357.36 67.14 357.57 67.14 357.77 67.14C357.98 67.14 358.18 67.14 358.39 67.14C358.54 67.14 358.79 67.09 358.87 67.28C358.97 67.55 358.14 68.1 358.73 68.25C358.94 68.31 359.26 68.25 359.48 68.25C359.74 68.25 360 68.25 360.25 68.25L360.32 68.25C361.15 68.25 361.98 68.25 362.81 68.25C363.25 68.25 363.68 68.25 364.12 68.25C364.61 68.25 365 68.06 365.43 67.85C366.15 67.51 367.15 67.58 367.92 67.69C368.18 67.73 368.42 67.77 368.67 67.77C368.91 67.76 369.12 67.84 369.37 67.84C369.61 67.84 369.82 67.89 370.05 67.91C370.27 67.93 370.51 67.91 370.73 67.91C371.28 67.91 371.79 67.97 372.33 67.97C372.46 67.97 372.53 67.97 372.64 67.94C372.74 67.92 372.85 67.93 372.94 67.9C373.07 67.85 373.19 67.7 373.3 67.63C373.4 67.56 373.51 67.52 373.58 67.42L373.65 67.42C374.17 67.42 374.65 67.52 375.16 67.61C375.42 67.66 375.66 67.72 375.92 67.78C376.17 67.83 376.41 67.86 376.66 67.94C376.89 68.02 377.13 68.05 377.37 68.11C377.51 68.15 377.64 68.19 377.78 68.22C377.93 68.25 378.06 68.23 378.2 68.26C378.71 68.34 379.23 68.32 379.75 68.32C380.2 68.32 380.65 68.32 381.1 68.32C381.23 68.32 381.36 68.31 381.49 68.32C381.62 68.33 381.73 68.38 381.86 68.39C381.96 68.41 382.06 68.38 382.15 68.39C382.33 68.4 382.46 68.49 382.6 68.6C382.84 68.77 382.99 68.99 383.2 69.19C383.29 69.27 383.36 69.37 383.46 69.44C383.57 69.52 383.69 69.59 383.8 69.65C383.94 69.72 384.08 69.77 384.21 69.84C384.34 69.91 384.43 70.02 384.56 70.08C384.67 70.13 384.77 70.13 384.87 70.22C384.99 70.32 385.03 70.4 385.18 70.46C385.5 70.59 385.76 70.83 386.08 70.98C386.31 71.08 386.59 71.22 386.83 71.22C387.11 71.23 387.33 71.23 387.59 71.13C387.8 71.05 387.98 71.02 388.21 71.02L388.28 71.02C388.4 71.02 388.52 71 388.64 71.03C388.78 71.06 388.96 71.17 389.09 71.24C389.35 71.36 389.57 71.56 389.8 71.71C389.98 71.83 390.23 71.9 390.43 71.98C390.67 72.08 390.93 72.12 391.17 72.2C391.71 72.38 392.24 72.57 392.76 72.76C393.22 72.92 393.7 73 394.16 73.17C394.24 73.19 394.33 73.21 394.41 73.24C394.47 73.28 394.53 73.34 394.58 73.4C394.65 73.43 394.71 73.49 394.77 73.55C394.81 73.62 394.86 73.69 394.9 73.76C395.08 73.96 395.34 74.12 395.6 74.17C395.89 74.24 396.14 74.26 396.44 74.26C396.76 74.25 396.93 74.39 397.2 74.54C397.69 74.79 398.01 75.24 398.5 75.49C398.66 75.56 398.83 75.55 398.98 75.64C399.11 75.71 399.18 75.82 399.34 75.85C399.54 75.89 399.86 75.89 400.01 76.05L400.15 75.92C400.17 75.75 400.31 75.59 400.38 75.43C400.46 75.24 400.5 75.09 400.49 74.88C400.49 74.53 400.49 74.19 400.49 73.84C400.5 73.6 400.47 73.46 400.29 73.29C400.12 73.14 400.02 73.11 400.13 72.88C400.25 72.6 400.5 72.53 400.69 72.32C400.83 72.18 400.73 72.01 400.77 71.84C400.85 71.45 401.31 71.19 401.61 71.02C401.84 70.88 401.99 70.73 402.15 70.53C402.28 70.37 402.31 70.2 402.4 70.03C402.49 69.87 402.68 69.78 402.84 69.67C403.02 69.53 403.21 69.37 403.38 69.22C403.51 69.09 403.64 68.91 403.72 68.74C403.79 68.56 403.82 68.33 403.94 68.18L403.94 68.32C404.09 68.15 404.1 67.84 404.2 67.63C404.31 67.4 404.56 67.22 404.84 67.21C405.14 67.2 405.36 67.18 405.6 66.97C405.83 66.78 406.04 66.57 406.28 66.38C406.49 66.22 406.77 66.07 407.04 66.04C407.28 66.01 407.38 65.85 407.56 65.67C407.72 65.51 407.93 65.29 408 65.08C408.09 64.81 408.2 64.6 408.43 64.42C408.65 64.24 408.94 64.09 409.23 64.04C409.41 64.01 409.64 64.06 409.81 63.94C409.99 63.82 410.03 63.56 410.12 63.38C410.21 63.2 410.35 62.99 410.51 62.86C410.7 62.72 410.91 62.64 411.1 62.52C411.29 62.41 411.46 62.26 411.64 62.15C411.76 62.07 411.94 62.05 412.07 61.99C412.17 61.94 412.25 61.88 412.35 61.84C412.49 61.79 412.66 61.74 412.82 61.7C413.03 61.64 413.23 61.58 413.44 61.49C413.7 61.37 413.94 61.17 414.23 61.08C414.48 61.01 414.75 60.87 415.02 60.86C415.21 60.85 415.41 60.86 415.61 60.86L415.68 60.86C415.83 60.69 415.86 60.5 415.95 60.31C416 60.2 416.04 60.06 416.1 59.96C416.16 59.88 416.24 59.84 416.3 59.76C416.59 59.39 416.58 58.83 416.84 58.45C417 58.22 417.28 58.08 417.46 57.89C417.62 57.73 417.76 57.55 417.92 57.38C418.1 57.18 418.19 57 418.42 56.87C418.53 56.81 418.67 56.77 418.77 56.7C418.86 56.65 418.92 56.57 419 56.51C419.12 56.43 419.28 56.43 419.41 56.38C419.51 56.34 419.58 56.27 419.68 56.22C419.9 56.11 420.13 56.08 420.36 56.02C420.57 55.95 420.78 55.85 421 55.79C421.2 55.72 421.43 55.63 421.64 55.61C421.87 55.59 422.08 55.56 422.31 55.55C422.57 55.53 422.8 55.41 423.07 55.41C423.55 55.39 424.04 55.41 424.52 55.41L424.79 55.27C425.05 54.96 425.55 54.81 425.88 54.58C426.27 54.31 426.45 53.99 426.45 53.53C426.45 53.08 426.48 52.64 426.32 52.22C426.13 51.76 425.7 51.44 425.27 51.21C424.94 51.03 424.62 50.95 424.25 50.92C424.15 50.91 423.96 50.89 423.89 50.79C423.8 50.65 423.96 50.51 424.03 50.39C424.14 50.22 424.24 50.06 424.37 49.9C424.43 49.82 424.48 49.79 424.51 49.68C424.55 49.56 424.52 49.39 424.52 49.27C424.52 48.91 424.54 48.57 424.43 48.23C424.34 47.93 423.95 47.55 424.31 47.25C424.47 47.12 424.92 47.05 425.1 47.16C425.29 47.27 425.36 47.43 425.6 47.4C425.76 47.39 425.91 47.31 426.05 47.25C426.28 47.14 426.41 47.02 426.59 46.85C426.78 46.66 426.83 46.53 426.91 46.29C427.06 45.91 427.4 45.74 427.76 45.62C428.03 45.53 428.3 45.4 428.59 45.39C428.78 45.39 428.96 45.42 429.13 45.5C429.31 45.59 429.38 45.75 429.52 45.88C429.79 46.11 430.22 45.66 430.43 45.5C430.59 45.36 430.76 45.28 430.94 45.19C431.08 45.11 431.19 45.12 431.35 45.12C431.72 45.12 431.98 45.3 432.3 45.45C432.65 45.61 432.98 45.79 433.33 45.93C433.63 46.04 433.94 46.24 434.25 46.29C434.23 46.18 434.31 46.09 434.32 45.98C434.34 45.84 434.3 45.7 434.32 45.57C434.37 45.29 434.38 45.02 434.44 44.75C434.47 44.63 434.45 44.51 434.45 44.38C434.46 44.21 434.5 44.05 434.52 43.88C434.55 43.69 434.59 43.52 434.59 43.34C434.59 43.21 434.58 43.1 434.61 42.98C434.63 42.87 434.65 42.72 434.72 42.63C434.8 42.53 434.98 42.47 435.09 42.41C435.34 42.29 435.58 42.15 435.82 42.01C436.06 41.87 436.4 41.76 436.52 41.49C436.62 41.28 436.62 41.01 436.67 40.77C436.74 40.46 436.89 40.35 437.16 40.22C437.4 40.1 437.59 39.98 437.84 39.89C438.13 39.78 438.37 39.62 438.63 39.46C438.85 39.32 439.01 39.32 439.26 39.32C439.53 39.32 439.84 39.28 440.11 39.33C440.36 39.38 440.6 39.5 440.86 39.46C441.4 39.38 441.15 38.69 441.34 38.35C441.4 38.24 441.51 38.2 441.55 38.06C441.58 37.96 441.57 37.84 441.57 37.73C441.56 37.53 441.58 37.34 441.53 37.15C441.47 36.91 441.04 36.23 441.29 36.01L441.5 35.73C441.5 35.21 441.55 34.72 441.69 34.21C441.73 34.05 441.8 33.89 441.83 33.73C441.85 33.61 441.85 33.49 441.89 33.38C441.96 33.21 442.12 33.11 442.18 32.95C442.24 32.78 442.21 32.46 442.06 32.36C441.98 32.31 441.86 32.31 441.78 32.27C441.67 32.21 441.54 32.12 441.44 32.05C441.06 31.81 440.69 31.46 440.55 31.02C440.41 30.61 440.38 30.19 440.25 29.78C440.12 29.33 439.73 29.06 439.43 28.72C439.29 28.57 439.14 28.51 439.09 28.29C439.06 28.11 439.08 27.91 439.08 27.72C439.08 27.55 439.11 27.41 439.16 27.24C439.24 27.02 439.39 26.85 439.42 26.62L439.49 26.55C439.64 26.4 439.67 26.2 439.77 26.03C439.85 25.89 439.92 25.79 439.98 25.62C440.1 25.29 440.25 24.98 440.41 24.66C440.5 24.48 440.64 24.33 440.74 24.14C440.82 24 440.9 23.89 441.01 23.77C441.16 23.62 441.32 23.48 441.43 23.3C441.5 23.18 441.5 23.1 441.5 22.96C441.49 22.71 441.42 22.37 441.32 22.15C441.26 22.03 441.15 21.91 441.05 21.82C440.99 21.76 440.87 21.71 440.83 21.63C440.8 21.56 440.82 21.51 440.81 21.43C440.77 21.29 440.74 21.2 440.74 21.04C440.74 20.88 440.74 20.72 440.74 20.55C440.74 20.45 440.7 20.28 440.75 20.19C440.8 20.08 440.94 20.04 441.05 20C441.36 19.88 441.61 19.75 441.86 19.52C442.09 19.31 442.22 19.11 442.26 18.81C442.29 18.61 442.36 18.6 442.52 18.47C442.66 18.36 442.8 18.24 442.95 18.13C443.14 17.98 443.27 17.83 443.49 17.72C443.61 17.67 443.73 17.62 443.85 17.55C444.08 17.43 444.31 17.37 444.55 17.28C444.69 17.23 444.82 17.24 444.95 17.2C445.01 17.18 445.07 17.14 445.13 17.12C445.23 17.09 445.33 17.11 445.42 17.09C445.74 17.02 446.08 16.96 446.39 16.86C446.65 16.78 446.95 16.76 447.2 16.64C447.44 16.53 447.68 16.46 447.93 16.36C448.06 16.3 448.2 16.27 448.33 16.21C448.46 16.16 448.57 16.06 448.7 16C448.84 15.94 448.97 15.85 449.11 15.79C449.22 15.75 449.32 15.74 449.43 15.69C449.56 15.63 449.75 15.54 449.88 15.51C450.02 15.48 450.19 15.5 450.33 15.5C450.49 15.35 450.54 15.07 450.63 14.88C450.7 14.71 450.8 14.55 450.89 14.38C450.99 14.19 451.11 13.97 451.18 13.76C451.26 13.54 451.36 13.25 451.56 13.1C451.66 13.03 451.73 13.01 451.82 12.91C451.92 12.79 452.01 12.67 452.15 12.6C452.41 12.46 452.68 12.35 452.94 12.19C453.4 11.91 453.88 11.66 454.3 11.32C454.77 10.95 455.29 10.68 455.84 10.45C456.37 10.22 456.77 9.87 457.24 9.56C457.46 9.42 457.6 9.23 457.81 9.07C457.89 9.01 457.98 8.97 458.07 8.93C458.23 8.83 458.29 8.74 458.41 8.61C458.61 8.41 458.89 8.35 459.12 8.18C459.3 8.05 459.49 7.87 459.73 7.84L459.8 7.91C459.91 7.79 459.99 7.72 460.14 7.65C460.25 7.6 460.36 7.57 460.47 7.51C460.73 7.37 461 7.22 461.23 7.03C461.46 6.83 461.72 6.67 461.94 6.46C462.15 6.26 462.33 6.09 462.56 5.92C462.98 5.62 463.23 5.19 463.61 4.85C463.76 4.71 463.92 4.61 464.07 4.46C464.26 4.28 464.47 4.1 464.67 3.94C464.8 3.83 464.95 3.83 465.1 3.75C465.2 3.7 465.27 3.61 465.37 3.55C465.54 3.46 465.7 3.37 465.87 3.27C466.07 3.13 466.28 3.01 466.49 2.88C466.58 2.83 466.66 2.78 466.75 2.73C466.87 2.65 466.98 2.64 467.1 2.57C467.29 2.47 467.47 2.28 467.64 2.14C467.75 2.04 467.9 2 468.02 1.9C468.1 1.83 468.15 1.74 468.24 1.69C468.39 1.59 468.55 1.51 468.7 1.42C468.85 1.32 469.13 1.1 469.32 1.14L469.67 0.87Z"></path><path id="&lt;Compound Path&gt;" fill-rule="evenodd" class="shp0" d="M116.87 -76.2C116.87 -76.11 116.87 -76.03 116.87 -75.95C116.79 -66.3 113.07 -56.66 105.71 -49.31C98.52 -42.12 88.97 -38.15 78.82 -38.15C68.67 -38.15 59.11 -42.12 51.93 -49.31C44.49 -56.66 40.85 -66.3 40.76 -75.95C40.76 -76.03 40.76 -76.11 40.76 -76.2C40.76 -76.28 40.76 -76.37 40.76 -76.45C40.85 -86.09 44.57 -95.73 51.93 -103.09C59.11 -110.28 68.67 -114.25 78.82 -114.25C88.97 -114.25 98.52 -110.28 105.71 -103.09C113.15 -95.73 116.79 -86.09 116.87 -76.45C116.87 -76.37 116.87 -76.28 116.87 -76.2ZM112.56 -74.08L98.86 -74.08C98.69 -68.67 97.93 -63.51 96.74 -58.95C99.37 -57.51 101.82 -55.82 104.1 -53.79C109.26 -59.62 112.14 -66.81 112.56 -74.08ZM53.53 -53.79C55.82 -55.82 58.27 -57.6 60.89 -58.95C59.71 -63.51 58.95 -68.59 58.78 -74.08L45.08 -74.08C45.5 -66.81 48.38 -59.62 53.53 -53.79ZM45.08 -78.31L58.78 -78.31C58.95 -83.81 59.62 -88.88 60.89 -93.45C58.27 -94.89 55.82 -96.58 53.53 -98.61C48.38 -92.77 45.5 -85.59 45.08 -78.31ZM76.7 -109.69C72.31 -108.42 68.5 -103.17 65.96 -95.73C69.43 -94.3 73.07 -93.53 76.7 -93.28L76.7 -109.69ZM64.78 -91.67C63.77 -87.61 63.17 -83.05 63 -78.31L76.7 -78.31L76.7 -89.05C72.64 -89.31 68.59 -90.15 64.78 -91.67ZM63 -74.08C63.17 -69.35 63.77 -64.78 64.78 -60.72C68.59 -62.25 72.64 -63.09 76.7 -63.35L76.7 -74.08L63 -74.08ZM65.96 -56.66C68.5 -49.31 72.31 -43.98 76.7 -42.71L76.7 -59.12C73.07 -58.86 69.43 -58.1 65.96 -56.66ZM80.93 -42.71C85.33 -43.98 89.13 -49.22 91.67 -56.66C88.2 -58.1 84.57 -58.86 80.93 -59.12L80.93 -42.71ZM92.85 -60.72C93.87 -64.78 94.46 -69.35 94.63 -74.08L80.93 -74.08L80.93 -63.35C84.99 -63.09 89.05 -62.25 92.85 -60.72ZM94.63 -78.31C94.46 -83.05 93.87 -87.61 92.85 -91.67C89.05 -90.15 84.99 -89.31 80.93 -89.05L80.93 -78.31L94.63 -78.31ZM91.67 -95.73C89.13 -103.09 85.33 -108.42 80.93 -109.69L80.93 -93.28C84.57 -93.53 88.2 -94.3 91.67 -95.73ZM95.56 -97.59C97.51 -98.69 99.37 -100.05 101.14 -101.57C97.76 -104.53 93.95 -106.73 89.81 -108.16C92.09 -105.46 94.04 -101.82 95.56 -97.59ZM67.91 -108.16C63.77 -106.73 59.96 -104.53 56.58 -101.57C58.27 -100.05 60.21 -98.69 62.16 -97.59C63.6 -101.82 65.54 -105.46 67.91 -108.16ZM56.49 -50.83C59.88 -47.87 63.68 -45.67 67.82 -44.23C65.63 -47.02 63.68 -50.58 62.16 -54.8C60.13 -53.71 58.27 -52.35 56.49 -50.83ZM89.73 -44.23C93.87 -45.67 97.67 -47.87 101.06 -50.83C99.37 -52.35 97.42 -53.71 95.48 -54.8C94.04 -50.58 92.09 -46.94 89.73 -44.23ZM112.56 -78.31C112.05 -85.59 109.26 -92.77 104.1 -98.61C101.82 -96.58 99.37 -94.8 96.74 -93.45C98.01 -88.88 98.69 -83.81 98.86 -78.31L112.56 -78.31Z"></path><path id="&lt;Compound Path&gt;" fill-rule="evenodd" class="shp0" d="M849.22 -204.69C848.77 -204.25 848.31 -203.82 847.84 -203.39C847.17 -202.75 846.48 -202.12 845.78 -201.51C845.26 -201.05 844.75 -200.6 844.22 -200.15C843.55 -199.6 842.88 -199.05 842.2 -198.52C841.79 -198.19 841.4 -197.85 840.99 -197.53C840.83 -197.41 840.67 -197.3 840.51 -197.18C839.26 -196.24 837.98 -195.32 836.68 -194.44C836.31 -194.18 835.92 -193.95 835.54 -193.7C834.5 -193.02 833.45 -192.35 832.38 -191.71C831.77 -191.35 831.16 -191.01 830.54 -190.66C829.72 -190.19 828.89 -189.74 828.05 -189.29C827.32 -188.91 826.59 -188.53 825.85 -188.17C825.2 -187.85 824.53 -187.54 823.87 -187.24C823.15 -186.91 822.45 -186.55 821.73 -186.23C821.43 -186.11 821.13 -186.01 820.83 -185.89C819.28 -185.25 817.7 -184.65 816.11 -184.1C815.57 -183.91 815.02 -183.72 814.47 -183.54C813.09 -183.09 811.7 -182.66 810.29 -182.28C809.79 -182.13 809.3 -181.96 808.8 -181.82C807.8 -181.57 806.78 -181.37 805.77 -181.15C805.23 -181.03 804.7 -180.9 804.16 -180.79C803.33 -180.63 802.48 -180.49 801.64 -180.34C800.73 -180.19 799.81 -180.04 798.89 -179.91C798.16 -179.81 797.44 -179.72 796.71 -179.63C795.59 -179.5 794.47 -179.4 793.34 -179.31C792.74 -179.27 792.16 -179.21 791.56 -179.18C789.82 -179.08 788.06 -179.01 786.29 -179.01C784.53 -179.01 782.77 -179.08 781.03 -179.18C780.43 -179.21 779.85 -179.27 779.26 -179.31C778.13 -179.4 777 -179.5 775.88 -179.63C775.15 -179.72 774.43 -179.81 773.71 -179.91C772.78 -180.04 771.86 -180.19 770.94 -180.34C770.1 -180.49 769.26 -180.63 768.43 -180.79C767.89 -180.9 767.36 -181.03 766.82 -181.15C765.81 -181.37 764.79 -181.57 763.79 -181.82C761 -182.54 758.27 -183.42 755.59 -184.39C755.44 -184.45 755.29 -184.5 755.14 -184.56C753.71 -185.09 752.29 -185.64 750.89 -186.23C750.43 -186.43 749.98 -186.67 749.52 -186.87C748.51 -187.33 747.51 -187.79 746.52 -188.28C745.95 -188.56 745.38 -188.86 744.82 -189.15C743.78 -189.69 742.75 -190.25 741.74 -190.83C741.29 -191.09 740.84 -191.34 740.39 -191.61C739.02 -192.42 737.66 -193.27 736.33 -194.15C736.25 -194.21 736.17 -194.26 736.09 -194.31C734.72 -195.23 733.38 -196.2 732.07 -197.19C731.91 -197.31 731.75 -197.41 731.59 -197.53C731.17 -197.85 730.78 -198.2 730.37 -198.53C729.7 -199.06 729.03 -199.59 728.38 -200.14C727.84 -200.6 727.32 -201.06 726.79 -201.52C726.1 -202.13 725.42 -202.75 724.75 -203.37C724.28 -203.82 723.81 -204.26 723.35 -204.71C722.62 -205.42 721.91 -206.16 721.2 -206.9C720.83 -207.29 720.45 -207.68 720.08 -208.08C719.16 -209.08 718.26 -210.1 717.39 -211.14C717.25 -211.3 717.11 -211.45 716.98 -211.61C715.94 -212.85 714.94 -214.13 713.98 -215.43C713.82 -215.65 713.67 -215.87 713.51 -216.09C712.73 -217.16 711.97 -218.24 711.24 -219.35C710.99 -219.73 710.75 -220.12 710.5 -220.5C709.88 -221.47 709.27 -222.45 708.69 -223.44C708.43 -223.87 708.18 -224.31 707.93 -224.75C707.38 -225.73 706.84 -226.72 706.32 -227.72C706.1 -228.17 705.87 -228.6 705.64 -229.05C705.11 -230.13 704.6 -231.22 704.11 -232.32C703.94 -232.7 703.77 -233.06 703.6 -233.44C702.32 -236.42 701.19 -239.49 700.22 -242.63C700.11 -242.99 700.02 -243.36 699.91 -243.73C699.56 -244.92 699.23 -246.11 698.93 -247.32C698.8 -247.85 698.68 -248.4 698.56 -248.94C698.32 -250 698.09 -251.06 697.89 -252.13C697.77 -252.73 697.67 -253.33 697.57 -253.93C697.39 -254.97 697.23 -256.03 697.09 -257.09C697.01 -257.7 696.93 -258.3 696.86 -258.91C696.74 -260.04 696.64 -261.18 696.56 -262.33C696.52 -262.86 696.47 -263.39 696.44 -263.92C696.34 -265.6 696.29 -267.28 696.29 -268.99C696.29 -270.69 696.34 -272.38 696.43 -274.05C696.46 -274.59 696.51 -275.12 696.55 -275.66C696.63 -276.8 696.73 -277.93 696.85 -279.06C696.92 -279.68 697.01 -280.29 697.09 -280.91C697.23 -281.96 697.38 -282.99 697.55 -284.03C697.66 -284.65 697.77 -285.27 697.89 -285.88C698.08 -286.92 698.3 -287.95 698.54 -288.98C698.67 -289.56 698.79 -290.13 698.94 -290.7C699.22 -291.84 699.53 -292.97 699.86 -294.09C699.98 -294.53 700.1 -294.97 700.23 -295.4C700.71 -296.96 701.22 -298.5 701.78 -300.02C701.83 -300.16 701.89 -300.29 701.94 -300.42C702.45 -301.8 702.99 -303.15 703.57 -304.49C703.77 -304.96 703.99 -305.41 704.19 -305.87C704.64 -306.88 705.11 -307.87 705.59 -308.86C705.85 -309.38 706.12 -309.89 706.39 -310.41C706.86 -311.32 707.35 -312.23 707.86 -313.12C708.15 -313.64 708.44 -314.15 708.74 -314.66C709.27 -315.56 709.82 -316.44 710.38 -317.32C710.68 -317.79 710.98 -318.26 711.29 -318.73C711.93 -319.7 712.6 -320.65 713.28 -321.59C713.53 -321.94 713.77 -322.29 714.02 -322.63C714.96 -323.89 715.92 -325.13 716.92 -326.33C717.18 -326.64 717.45 -326.94 717.71 -327.25C718.47 -328.13 719.23 -329.01 720.02 -329.87C720.45 -330.34 720.89 -330.79 721.33 -331.25C721.97 -331.92 722.62 -332.59 723.29 -333.24C723.79 -333.73 724.3 -334.22 724.82 -334.7C725.44 -335.28 726.07 -335.86 726.71 -336.42C727.28 -336.92 727.84 -337.41 728.41 -337.89C729.03 -338.41 729.66 -338.91 730.29 -339.42C730.72 -339.76 731.14 -340.13 731.58 -340.47C731.74 -340.59 731.92 -340.7 732.08 -340.83C733.38 -341.81 734.7 -342.76 736.05 -343.67C736.21 -343.78 736.37 -343.87 736.53 -343.98C737.77 -344.81 739.04 -345.6 740.33 -346.37C740.82 -346.66 741.31 -346.94 741.81 -347.22C742.77 -347.77 743.75 -348.3 744.74 -348.82C745.34 -349.13 745.94 -349.45 746.55 -349.75C747.48 -350.2 748.42 -350.64 749.37 -351.06C749.88 -351.29 750.37 -351.55 750.88 -351.77C750.99 -351.81 751.1 -351.85 751.21 -351.89C752.94 -352.63 754.71 -353.29 756.49 -353.91C757.03 -354.1 757.57 -354.28 758.12 -354.46C759.48 -354.91 760.85 -355.33 762.24 -355.71C762.76 -355.86 763.26 -356.04 763.78 -356.18C764.81 -356.44 765.87 -356.65 766.91 -356.87C767.41 -356.98 767.9 -357.1 768.4 -357.2C769.25 -357.37 770.11 -357.51 770.97 -357.66C771.87 -357.81 772.77 -357.96 773.68 -358.09C774.41 -358.19 775.14 -358.28 775.88 -358.37C776.99 -358.5 778.11 -358.6 779.24 -358.68C779.83 -358.73 780.42 -358.79 781.02 -358.82C782.76 -358.92 784.52 -358.99 786.29 -358.99C788.05 -358.99 789.81 -358.92 791.55 -358.82C792.15 -358.78 792.74 -358.73 793.33 -358.68C794.46 -358.59 795.58 -358.49 796.69 -358.37C797.43 -358.28 798.16 -358.19 798.89 -358.09C799.8 -357.96 800.7 -357.81 801.6 -357.66C802.46 -357.52 803.32 -357.37 804.17 -357.2C804.67 -357.1 805.16 -356.98 805.66 -356.88C806.7 -356.65 807.76 -356.44 808.79 -356.18C809.31 -356.04 809.82 -355.86 810.34 -355.71C811.71 -355.33 813.08 -354.92 814.42 -354.48C815 -354.29 815.57 -354.1 816.14 -353.9C817.67 -353.36 819.18 -352.79 820.67 -352.17C821.01 -352.03 821.37 -351.92 821.72 -351.77C822.49 -351.44 823.23 -351.06 823.99 -350.71C824.59 -350.43 825.2 -350.15 825.8 -349.86C826.57 -349.48 827.34 -349.08 828.1 -348.68C828.9 -348.26 829.68 -347.83 830.45 -347.39C831.11 -347.02 831.77 -346.66 832.41 -346.27C833.4 -345.68 834.36 -345.06 835.32 -344.44C835.89 -344.07 836.46 -343.71 837.01 -343.33C838.18 -342.52 839.34 -341.69 840.47 -340.84C840.64 -340.71 840.82 -340.6 840.98 -340.47C841.42 -340.14 841.84 -339.77 842.27 -339.43C842.9 -338.92 843.54 -338.41 844.16 -337.89C844.73 -337.41 845.29 -336.92 845.84 -336.43C846.49 -335.86 847.13 -335.28 847.76 -334.69C848.27 -334.21 848.78 -333.73 849.27 -333.24C849.95 -332.58 850.61 -331.9 851.26 -331.22C851.69 -330.78 852.12 -330.33 852.54 -329.88C853.35 -329 854.13 -328.1 854.9 -327.19C855.14 -326.91 855.4 -326.63 855.64 -326.34C856.64 -325.13 857.61 -323.89 858.56 -322.62C858.79 -322.3 859.02 -321.97 859.25 -321.65C859.95 -320.68 860.63 -319.71 861.29 -318.72C861.59 -318.26 861.88 -317.8 862.17 -317.34C862.74 -316.45 863.3 -315.56 863.83 -314.65C864.13 -314.15 864.42 -313.64 864.7 -313.14C865.21 -312.23 865.71 -311.31 866.19 -310.39C866.45 -309.88 866.72 -309.38 866.97 -308.87C867.46 -307.87 867.93 -306.86 868.39 -305.84C868.59 -305.39 868.8 -304.95 869 -304.5C869.58 -303.14 870.13 -301.76 870.65 -300.37C870.69 -300.26 870.75 -300.14 870.79 -300.03C871.35 -298.5 871.86 -296.96 872.34 -295.4C872.47 -294.98 872.58 -294.55 872.7 -294.12C873.03 -292.99 873.35 -291.85 873.63 -290.7C873.77 -290.14 873.9 -289.56 874.03 -288.99C874.26 -287.96 874.48 -286.93 874.68 -285.89C874.8 -285.27 874.91 -284.65 875.01 -284.03C875.18 -283 875.34 -281.96 875.48 -280.91C875.56 -280.3 875.64 -279.68 875.71 -279.06C875.83 -277.94 875.93 -276.8 876.01 -275.66C876.05 -275.13 876.11 -274.59 876.14 -274.05C876.23 -272.37 876.29 -270.69 876.29 -268.99C876.29 -267.29 876.23 -265.6 876.13 -263.92C876.1 -263.39 876.05 -262.86 876.01 -262.33C875.93 -261.19 875.83 -260.04 875.7 -258.91C875.64 -258.3 875.55 -257.7 875.48 -257.1C875.34 -256.04 875.18 -254.98 875 -253.93C874.9 -253.33 874.8 -252.73 874.68 -252.14C874.48 -251.06 874.25 -249.99 874.01 -248.93C873.89 -248.4 873.77 -247.86 873.64 -247.32C873.34 -246.11 873 -244.91 872.65 -243.71C872.55 -243.35 872.46 -242.99 872.35 -242.63C871.39 -239.49 870.25 -236.42 868.96 -233.43C868.81 -233.07 868.64 -232.71 868.48 -232.35C867.98 -231.24 867.46 -230.13 866.92 -229.04C866.71 -228.61 866.48 -228.18 866.26 -227.75C865.74 -226.73 865.2 -225.73 864.63 -224.74C864.39 -224.31 864.15 -223.88 863.9 -223.45C863.3 -222.45 862.69 -221.46 862.06 -220.48C861.82 -220.11 861.59 -219.73 861.35 -219.36C860.6 -218.24 859.82 -217.13 859.03 -216.04C858.88 -215.84 858.75 -215.64 858.6 -215.44C857.64 -214.14 856.63 -212.86 855.59 -211.6C855.48 -211.46 855.35 -211.33 855.24 -211.19C854.35 -210.13 853.43 -209.09 852.49 -208.07C852.13 -207.68 851.76 -207.3 851.4 -206.92C850.68 -206.17 849.96 -205.43 849.22 -204.69ZM856.31 -236.64C856.33 -236.68 856.34 -236.71 856.36 -236.75C849.34 -231.77 840.72 -227.57 830.95 -224.37C828.46 -216.73 825.34 -209.79 821.72 -203.77C820.71 -202.08 819.64 -200.46 818.58 -198.94C818.67 -198.98 818.77 -199.02 818.87 -199.06C818.93 -199.09 818.98 -199.12 819.04 -199.15C820.22 -199.7 821.37 -200.31 822.52 -200.93C823.56 -201.48 824.58 -202.07 825.59 -202.67C826.29 -203.09 826.99 -203.49 827.67 -203.93C828.55 -204.49 829.41 -205.09 830.28 -205.69C831 -206.2 831.73 -206.69 832.44 -207.22C833.24 -207.81 834 -208.45 834.77 -209.07C835.48 -209.65 836.21 -210.21 836.91 -210.81C837.64 -211.45 838.32 -212.13 839.03 -212.79C840.93 -214.58 842.78 -216.44 844.49 -218.41C844.59 -218.52 844.68 -218.64 844.78 -218.75C847.06 -221.39 849.16 -224.19 851.06 -227.13C851.11 -227.2 851.16 -227.28 851.2 -227.36C853.11 -230.32 854.82 -233.42 856.31 -236.64ZM754.05 -198.91C752.94 -200.44 751.9 -202.07 750.89 -203.74C747.26 -209.77 744.14 -216.72 741.64 -224.36C731.88 -227.56 723.25 -231.76 716.23 -236.73C716.28 -236.62 716.33 -236.51 716.38 -236.4C717.08 -234.91 717.81 -233.45 718.6 -232.02C718.69 -231.85 718.79 -231.69 718.88 -231.52C719.61 -230.22 720.37 -228.95 721.17 -227.69C721.34 -227.43 721.51 -227.16 721.68 -226.89C723.51 -224.09 725.52 -221.41 727.69 -218.87C727.85 -218.69 728.01 -218.5 728.17 -218.31C729.66 -216.6 731.25 -214.98 732.88 -213.42C733.84 -212.49 734.8 -211.57 735.81 -210.7C736.18 -210.38 736.57 -210.09 736.95 -209.77C738.07 -208.84 739.2 -207.92 740.37 -207.05C740.78 -206.75 741.21 -206.47 741.62 -206.17C742.79 -205.34 743.98 -204.52 745.2 -203.75C745.63 -203.48 746.07 -203.22 746.5 -202.96C747.78 -202.2 749.06 -201.46 750.38 -200.76C751.1 -200.38 751.82 -200.01 752.56 -199.65C753.02 -199.42 753.47 -199.18 753.94 -198.96C753.97 -198.95 754.01 -198.93 754.05 -198.91ZM716.23 -301.27C723.26 -306.24 731.88 -310.44 741.64 -313.64C744.15 -321.27 747.26 -328.21 750.89 -334.23C751.9 -335.93 752.94 -337.56 754.05 -339.09C754.02 -339.07 753.98 -339.06 753.95 -339.05C753.47 -338.82 753.01 -338.58 752.53 -338.34C751.81 -337.99 751.09 -337.62 750.38 -337.24C749.06 -336.55 747.77 -335.8 746.49 -335.03C746.06 -334.78 745.63 -334.53 745.21 -334.26C743.97 -333.48 742.77 -332.65 741.58 -331.81C741.18 -331.52 740.77 -331.26 740.38 -330.96C739.18 -330.07 738.02 -329.13 736.86 -328.17C736.52 -327.88 736.16 -327.61 735.82 -327.32C734.76 -326.4 733.75 -325.43 732.75 -324.46C731.17 -322.94 729.64 -321.37 728.19 -319.71C728.02 -319.51 727.84 -319.31 727.67 -319.11C726.6 -317.85 725.55 -316.57 724.56 -315.25C724.55 -315.24 724.55 -315.23 724.54 -315.22C723.55 -313.9 722.6 -312.53 721.69 -311.13C721.51 -310.85 721.33 -310.57 721.15 -310.28C720.37 -309.06 719.62 -307.81 718.92 -306.54C718.81 -306.35 718.69 -306.16 718.59 -305.96C717.81 -304.55 717.09 -303.1 716.4 -301.63C716.34 -301.51 716.29 -301.39 716.23 -301.27ZM818.57 -339.07C819.64 -337.54 820.71 -335.92 821.72 -334.23C825.34 -328.21 828.45 -321.27 830.95 -313.63C840.71 -310.44 849.33 -306.23 856.35 -301.26C856.33 -301.3 856.31 -301.35 856.29 -301.4C854.81 -304.6 853.11 -307.68 851.22 -310.62C851.16 -310.71 851.1 -310.81 851.04 -310.9C849.15 -313.82 847.06 -316.6 844.8 -319.24C844.69 -319.36 844.58 -319.49 844.47 -319.62C842.83 -321.51 841.07 -323.29 839.25 -325.01C838.47 -325.75 837.7 -326.5 836.89 -327.2C836.23 -327.78 835.53 -328.31 834.85 -328.87C834.05 -329.52 833.25 -330.18 832.42 -330.8C831.74 -331.31 831.02 -331.79 830.31 -332.29C829.44 -332.9 828.56 -333.51 827.65 -334.09C826.98 -334.52 826.29 -334.92 825.6 -335.33C824.59 -335.93 823.56 -336.52 822.52 -337.08C821.38 -337.68 820.25 -338.29 819.08 -338.84C819 -338.87 818.93 -338.91 818.86 -338.95C818.77 -338.99 818.67 -339.02 818.57 -339.07ZM862.38 -275.42C859.19 -284.9 849.09 -293.2 834.78 -298.99C836.28 -291.54 837.24 -283.63 837.58 -275.42L862.38 -275.42ZM820.79 -303.51C812.22 -305.66 802.74 -307.03 792.72 -307.45L792.72 -275.42L824.69 -275.42C824.34 -283.94 823.34 -292.09 821.72 -299.62C821.43 -300.94 821.11 -302.23 820.79 -303.51ZM816.29 -317.49C814.12 -322.85 811.6 -327.62 808.79 -331.65C804.12 -338.38 798.66 -343.08 792.72 -345.07L792.72 -320.28C800.93 -319.94 808.84 -318.99 816.29 -317.49ZM779.85 -345.07C773.94 -343.08 768.49 -338.38 763.79 -331.65C760.99 -327.62 758.47 -322.85 756.3 -317.49C763.75 -318.99 771.65 -319.94 779.85 -320.27L779.85 -345.07ZM751.81 -303.51C751.49 -302.23 751.17 -300.94 750.89 -299.62C749.27 -292.09 748.25 -283.94 747.89 -275.42L779.85 -275.42L779.85 -307.45C769.84 -307.03 760.37 -305.66 751.81 -303.51ZM737.81 -299C723.49 -293.2 713.4 -284.9 710.23 -275.42L735 -275.42C735.33 -283.64 736.29 -291.54 737.81 -299ZM710.23 -262.58C713.4 -253.11 723.49 -244.8 737.8 -239.01C736.29 -246.47 735.33 -254.37 735 -262.58L710.23 -262.58ZM751.81 -234.49C760.37 -232.35 769.84 -230.97 779.85 -230.56L779.85 -262.58L747.89 -262.58C748.24 -254.06 749.26 -245.92 750.89 -238.39C751.17 -237.07 751.49 -235.78 751.81 -234.49ZM756.3 -220.52C758.47 -215.15 760.99 -210.39 763.79 -206.35C768.49 -199.63 773.94 -194.92 779.85 -192.93L779.85 -217.73C771.65 -218.06 763.75 -219.01 756.3 -220.52ZM792.72 -192.93C798.66 -194.92 804.12 -199.63 808.79 -206.35C811.6 -210.39 814.12 -215.15 816.29 -220.52C808.84 -219.01 800.93 -218.06 792.72 -217.73L792.72 -192.93ZM820.79 -234.5C821.11 -235.78 821.43 -237.07 821.72 -238.39C823.34 -245.92 824.34 -254.07 824.69 -262.58L792.72 -262.58L792.72 -230.56C802.74 -230.97 812.22 -232.35 820.79 -234.5ZM834.78 -239.01C849.09 -244.81 859.19 -253.11 862.38 -262.58L837.58 -262.58C837.24 -254.37 836.29 -246.47 834.78 -239.01Z"></path><g id="&lt;Group&gt;"><path id="&lt;Compound Path&gt;" fill-rule="evenodd" class="shp0" d="M604.38 129.98C589.68 114.94 580.01 98.57 577.15 83.89C575.42 75 576.32 67.2 579.83 60.71C583.67 53.6 590.72 48.31 600.21 45.39C600.62 45.25 601.13 45.14 601.65 45.08L604.97 44.74L604.97 45.63C606.3 46.19 607.45 47.18 608.23 48.47L626.21 77.99C626.34 78.2 626.49 78.5 626.61 78.8L626.82 79.37C626.89 79.56 626.95 79.75 627 79.95L627.08 80.4C627.1 80.47 627.11 80.54 627.12 80.61L627.16 81.08L627.16 81.15C627.16 81.26 627.16 81.37 627.16 81.49L627.16 81.51L627.16 81.57C627.16 81.67 627.16 81.77 627.16 81.87L627.16 81.89L627.15 82.1C627.13 82.33 627.11 82.5 627.08 82.64L627.06 82.85C627.03 83.04 626.99 83.23 626.94 83.41L626.76 83.94C626.73 84 626.71 84.06 626.68 84.12L626.67 84.13C626.6 84.32 626.53 84.52 626.44 84.71L626.43 84.73L626.42 85.05L625.45 86.14C625.34 86.26 625.22 86.38 625.1 86.49C624.96 86.65 624.8 86.8 624.64 86.94L620.71 90.83C627.93 102.26 635.48 109.98 644.22 114.88L648.84 110.21C648.94 110.09 649.06 109.97 649.17 109.86L649.4 109.53L649.8 109.23C649.97 109.1 650.14 108.98 650.32 108.87C650.63 108.66 650.95 108.47 651.29 108.3C652.37 107.8 653.54 107.57 654.71 107.64L655.1 107.68C655.14 107.68 655.18 107.69 655.22 107.7L655.63 107.76C656.43 107.92 657.19 108.22 657.89 108.65C658.09 108.75 658.29 108.87 658.48 109L658.79 109.21L687 126.9C689.77 128.67 690.94 132.04 689.87 135.12C686.47 144.71 680.83 151.79 673.55 155.6C669.17 157.9 664.12 159.06 658.68 159.06C655.88 159.06 652.97 158.75 649.98 158.13C635.37 155.1 619.17 145.1 604.38 129.98ZM611.3 80.47L599.34 60.71C596.02 62.41 593.66 64.61 592.17 67.37C590.21 71 589.76 75.67 590.85 81.24C593.08 92.7 602.09 107.61 614.36 120.16C626.65 132.73 641.39 142.01 652.83 144.38C658.49 145.55 663.28 145.15 667.08 143.16C670.06 141.6 672.49 139.09 674.45 135.55L655.28 123.56L650.53 128.31C648.46 130.37 645.41 130.93 642.75 129.75C628.23 123.35 616.49 111.75 605.81 93.26C604.24 90.53 604.69 87.07 606.9 84.83L611.3 80.47Z"></path><path id="&lt;Compound Path&gt;" fill-rule="evenodd" class="shp0" d="M724.29 102.05C724.29 152.23 683.46 193.05 633.29 193.05C616.86 193.05 600.83 188.65 586.82 180.32L556.01 190.95C554.62 191.43 553.13 191.46 551.72 191.04C548.02 189.93 545.91 186.02 547.02 182.33L556.47 150.8C547.19 136.09 542.29 119.26 542.29 102.05C542.29 51.88 583.11 11.05 633.29 11.05C683.46 11.05 724.29 51.88 724.29 102.05ZM564.35 173.26L585.4 166C586.15 165.74 586.93 165.61 587.7 165.61C589.03 165.61 590.34 165.99 591.5 166.74C603.91 174.8 618.36 179.05 633.29 179.05C675.74 179.05 710.29 144.51 710.29 102.05C710.29 59.6 675.74 25.05 633.29 25.05C590.83 25.05 556.29 59.6 556.29 102.05C556.29 117.58 560.99 132.69 569.89 145.75C571.08 147.5 571.42 149.67 570.81 151.71L564.35 173.26Z"></path></g></g></svg> 