<?xml version="1.0" encoding="UTF-8"?> <svg xmlns="http://www.w3.org/2000/svg" id="Layer_1" data-name="Layer 1" viewBox="0 0 300 300"><polygon points="199.71 88.96 199.93 90.59 197.49 91.09 197.16 94.56 200.08 94.56 203.97 94.19 205.98 91.8 203.85 90.97 202.68 89.63 200.92 86.79 200.08 82.77 196.78 83.44 195.86 84.86 195.86 86.45 197.45 87.54 199.71 88.96"></polygon><polygon points="196.9 90.3 197.08 88.12 195.14 87.29 192.44 87.91 190.43 91.14 190.43 93.22 192.77 93.22 196.9 90.3"></polygon><path d="M141.18,99.53l-.6,1.54H137.7v1.49h.69s0,.31.1.73l1.76-.15,1.11-.69.29-1.38,1.43-.13.56-1.16-1.31-.27Z"></path><polygon points="133.75 102.23 133.63 103.69 135.72 103.52 135.94 102.06 134.69 101.07 133.75 102.23"></polygon><path d="M259.21,148.73c0-3.21-.19-6.4-.49-9.53a109.3,109.3,0,0,0-7.26-29.87c-.28-.7-.54-1.41-.84-2.1a109.86,109.86,0,0,0-20.57-31.79c-.57-.6-1.14-1.2-1.71-1.78-1.62-1.69-3.29-3.33-5-4.9a109.46,109.46,0,0,0-148.06.46A111.39,111.39,0,0,0,62.73,82.91,109.65,109.65,0,1,0,247.22,199.7a108.64,108.64,0,0,0,9-24.16q.78-3.22,1.36-6.5a110.33,110.33,0,0,0,1.71-19.18C259.24,149.48,259.22,149.11,259.21,148.73Zm-20.64-43.85.63-.71c.84,1.62,1.62,3.27,2.36,4.94l-1,0-2,.27ZM222.72,85.74v-4.9c1.73,1.83,3.39,3.71,5,5.66l-2,2.94-6.91-.06-.43-1.44ZM90.39,73.57v-.19h2.19l.19-.75h3.6V74.2l-1,1.38h-5v-2Zm3.51,4.89s2.19-.37,2.38-.37,0,2.19,0,2.19l-5,.31-.94-1.13ZM245.56,122h-8l-4.89-3.64-5.15.5V122h-1.63l-1.76-1.26-8.91-2.26v-5.77l-11.3.88-3.5,1.88H195.9l-2.2-.22-5.44,3V124l-11.13,8,.92,3.43h2.26l-.59,3.27-1.59.58-.09,8.54,9.62,11h4.19l.25-.67h7.53l2.17-2h4.27l2.34,2.34,6.36.66-.84,8.46L221,180l-3.72,7.1.25,3.35,2.93,2.92v8l3.85,5.17v6.69h3.32A100.64,100.64,0,0,1,56.9,110.46v-3.14L60.5,103q1.88-3.54,4-6.91l.17,1.83L60.51,103c-1.3,2.44-2.51,4.94-3.6,7.51v5.73l4.18,2v8l4,6.84,3.26.5.42-2.34-3.85-5.94-.75-5.77h2.26l1,5.94L73,133.51l-1.43,2.62,3.54,5.41,8.78,2.18V142.3l3.51.5L87,145.31l2.76.5L94.05,147l6,6.86,7.69.58.76,6.28-5.27,3.68L103,170l-.75,3.43,7.62,9.54.58,3.26s2.76.75,3.1.75,6.19,4.44,6.19,4.44v17.23l2.09.59-1.42,7.95,3.51,4.68-.65,7.88,4.64,8.16,6,5.21,6,.11.58-1.93-4.4-3.71.25-1.84.79-2.25.17-2.3-3-.09-1.5-1.89,2.47-2.38.33-1.79-2.76-.79.17-1.67,3.93-.6,6-2.87,2-3.68,6.28-8-1.43-6.28,1.93-3.34,5.77.18,3.88-3.08,1.26-12.12,4.31-5.47.75-3.52-3.93-1.26-2.59-4.25-8.87-.09-7-2.68-.33-5-2.35-4.1-6.36-.09-3.67-5.77-3.26-1.59-.17,1.76-5.94.35L121,148l-6.2-1.26-5.1,5.9-8-1.36-.58-9-5.87-1,2.36-4.44-.68-2.55-7.7,5.14-4.84-.59L82.62,135l1-3.9,2.67-4.93,6.15-3.11h11.88l0,3.63,4.27,2-.34-6.19,3.08-3.09,6.2-4.08.43-2.87,6.19-6.44,6.58-3.65-.58-.48,4.46-4.19,1.63.43L137,99l1.69-1.88.42-.18-1.86-.27-1.88-.62V94.27l1-.82h2.2l1,.45.87,1.76,1.07-.17v-.15l.3.1,3.09-.47.44-1.51,1.76.45v1.63l-1.64,1.12h0l.24,1.79,5.59,1.73v.07l1.29-.11.08-2.43-4.43-2L148,94.53l3.68-1.25.16-3.52L148,87.42l-.26-5.94-5.27,2.59h-1.92l.51-4.51-7.18-1.69-3,2.24V87l-5.33,1.69-2.14,4.46-2.32.37v-5.7l-5-.7-2.51-1.63-1-3.69,9-5.26L126,75.16l.44,3,2.44-.13L129,76.5l2.56-.37,0-.52-1.1-.45-.26-1.57,3.15-.27,1.9-2,.1-.15h0l.58-.6,6.61-.83,2.92,2.48-7.66,4.09,9.75,2.3,1.27-3.27h4.26l1.51-2.84-3-.75v-3.6L142.22,64l-6.52.76L132,66.68l.25,4.69-3.85-.59-.59-2.59,3.68-3.35-6.69-.33-1.92.58-.83,2.26,2.5.42-.5,2.51-4.26.25-.67,1.67-6.18.17s-.18-3.51-.42-3.51l4.85-.08,3.68-3.6-2-1-2.67,2.6L112,66.52l-2.68-3.68h-5.69l-5.94,4.43h5.44l.5,1.59-1.41,1.32,6,.16.92,2.18-6.78-.25L102,70.59l-4.26-.92-2.26-1.25-5.08,0A100.39,100.39,0,0,1,216,74.34l-1.19,2.14-4.65,1.81-1.95,2.13.45,2.48,2.39.33,1.45,3.61,4.13-1.66.68,4.82h-1.24l-3.4-.5-3.76.63-3.64,5.15-5.21.81-.75,4.46,2.19.52-.63,2.87-5.17-1-4.74,1-1,2.64.82,5.54,2.78,1.3,4.67,0,3.16-.28,1-2.51,4.93-6.4,3.24.66,3.2-2.89.59,2.26,7.86,5.3-1,1.29-3.54-.19,1.36,1.93,2.18.48,2.55-1.06-.05-3.08,1.13-.57-.91-1-5.24-2.93-1.38-3.88h4.36l1.39,1.38,3.75,3.23.16,3.91,3.89,4.15,1.45-5.68,2.69-1.47.51,4.64,2.63,2.89,5.25-.09q1.51,3.92,2.72,8ZM99.68,90l2.63-1.25,2.38.57-.82,3.2-2.57.81Zm14,7.53V99.6h-6L105.39,99l.56-1.45,2.89-1.19h4v1.19Zm2.77,2.89v2l-1.51,1-1.87.35v-3.33Zm-1.7-.82V97.22l2.07,1.88Zm1,4.83v2l-1.44,1.44H111l.5-2.19,1.51-.13.31-.76Zm-8-4H111l-4.26,6-1.76-.94.38-2.51Zm13.62,3.33v2h-3.2l-.88-1.27v-1.81h.25Zm-3-2.68.91-1,1.54,1-1.23,1Zm128.82,26,.31-.37c.14.57.28,1.13.4,1.71Z"></path><path d="M56.91,107.32v3.14c1.09-2.56,2.3-5.06,3.6-7.51Z"></path></svg> 