<?xml version="1.0" encoding="UTF-8"?> <svg xmlns="http://www.w3.org/2000/svg" viewBox="0 0 300 300" width="300" height="300"><style> tspan { white-space:pre } .shp0 { fill: #3175bc } </style><path id="Layer" class="shp0" d="M251.06 194.5C250.19 194.5 249.32 194.33 248.51 193.99C247.71 193.66 246.97 193.17 246.35 192.55C245.74 191.94 245.25 191.2 244.91 190.4C244.57 189.59 244.4 188.72 244.4 187.85L244.4 53.43L109.6 53.43C107.79 53.5 106.03 52.83 104.72 51.57C103.42 50.32 102.68 48.59 102.68 46.77C102.68 44.96 103.42 43.23 104.72 41.98C106.03 40.72 107.79 40.05 109.6 40.12L251.06 40.12C251.93 40.12 252.8 40.29 253.61 40.63C254.41 40.97 255.15 41.46 255.76 42.07C256.38 42.69 256.87 43.43 257.2 44.23C257.54 45.04 257.71 45.91 257.71 46.78L257.71 187.85C257.71 188.72 257.54 189.59 257.2 190.39C256.87 191.2 256.38 191.93 255.76 192.55C255.14 193.17 254.41 193.66 253.6 193.99C252.8 194.33 251.93 194.5 251.06 194.5L251.06 194.5Z"></path><path id="Layer" class="shp0" d="M220.18 239.72L66 239.72C65.13 239.72 64.26 239.55 63.45 239.21C62.64 238.88 61.91 238.39 61.29 237.77C60.67 237.15 60.18 236.42 59.85 235.61C59.51 234.8 59.34 233.93 59.34 233.06L59.34 76.66C59.34 74.89 60.04 73.2 61.29 71.95C62.54 70.7 64.23 70 66 70C67.77 70 69.46 70.7 70.71 71.95C71.96 73.2 72.66 74.89 72.66 76.66L72.66 226.41L220.18 226.41C221.99 226.34 223.75 227.01 225.06 228.27C226.36 229.52 227.1 231.25 227.1 233.06C227.1 234.88 226.36 236.61 225.06 237.86C223.75 239.12 221.99 239.79 220.18 239.72L220.18 239.72Z"></path><path id="Layer" class="shp0" d="M39.44 84.43L66 38.44L92.56 84.43L39.44 84.43L39.44 84.43Z"></path><path id="Layer" class="shp0" d="M212.41 259.62L258.4 233.06L212.41 206.51L212.41 259.62L212.41 259.62Z"></path><path id="Layer" class="shp0" d="M89.39 124.88L104.57 124.88L104.57 134.88L104.83 134.88C105.22 134.08 105.67 133.31 106.16 132.56C106.65 131.82 107.18 131.1 107.76 130.42C108.34 129.74 108.96 129.1 109.61 128.5C110.27 127.9 110.96 127.34 111.69 126.82C114.84 124.47 119.08 123.29 124.41 123.29C134.41 123.29 141.08 127.24 144.41 135.14C144.9 134.21 145.46 133.31 146.08 132.46C146.69 131.6 147.37 130.79 148.1 130.03C148.83 129.27 149.62 128.56 150.44 127.91C151.27 127.26 152.15 126.67 153.06 126.14C154.01 125.65 154.99 125.21 156 124.84C157 124.47 158.03 124.16 159.07 123.92C160.12 123.68 161.18 123.51 162.24 123.4C163.31 123.29 164.38 123.25 165.45 123.28C166.37 123.25 167.3 123.28 168.22 123.35C169.14 123.43 170.05 123.56 170.96 123.73C171.87 123.91 172.76 124.14 173.64 124.42C174.52 124.7 175.39 125.03 176.23 125.41C176.93 125.74 177.61 126.12 178.27 126.53C178.93 126.95 179.56 127.41 180.16 127.9C180.76 128.39 181.33 128.92 181.86 129.49C182.4 130.05 182.9 130.65 183.36 131.27C183.83 131.92 184.26 132.6 184.66 133.29C185.06 133.99 185.42 134.7 185.75 135.44C186.08 136.17 186.37 136.91 186.63 137.67C186.88 138.44 187.1 139.21 187.28 139.99C187.49 140.87 187.66 141.75 187.82 142.64C187.97 143.53 188.1 144.42 188.2 145.31C188.3 146.21 188.37 147.11 188.42 148.01C188.47 148.91 188.49 149.81 188.48 150.71L188.48 188.79L172.48 188.79L172.48 152.57C172.48 152.1 172.47 151.62 172.45 151.15C172.43 150.68 172.4 150.2 172.35 149.73C172.31 149.26 172.25 148.79 172.19 148.32C172.12 147.85 172.04 147.39 171.95 146.92C171.87 146.5 171.78 146.07 171.66 145.66C171.54 145.24 171.4 144.83 171.25 144.43C171.09 144.03 170.92 143.63 170.72 143.25C170.53 142.86 170.32 142.49 170.09 142.12C169.87 141.78 169.62 141.45 169.36 141.14C169.09 140.83 168.8 140.53 168.5 140.26C168.2 139.98 167.88 139.73 167.54 139.49C167.2 139.26 166.85 139.05 166.49 138.86C166.04 138.64 165.57 138.46 165.09 138.3C164.61 138.14 164.13 138 163.63 137.9C163.14 137.8 162.64 137.73 162.14 137.69C161.64 137.65 161.13 137.64 160.63 137.66C160.09 137.64 159.54 137.66 159 137.71C158.45 137.76 157.92 137.85 157.38 137.97C156.85 138.08 156.33 138.24 155.81 138.42C155.3 138.6 154.8 138.82 154.31 139.06C153.89 139.28 153.48 139.53 153.09 139.8C152.7 140.07 152.32 140.36 151.96 140.68C151.61 140.99 151.27 141.33 150.95 141.68C150.63 142.03 150.33 142.4 150.05 142.79C149.77 143.19 149.5 143.6 149.26 144.03C149.02 144.45 148.8 144.89 148.59 145.33C148.39 145.78 148.21 146.24 148.06 146.7C147.9 147.16 147.76 147.63 147.65 148.11C147.53 148.61 147.42 149.1 147.33 149.61C147.24 150.11 147.16 150.61 147.1 151.12C147.04 151.62 147 152.13 146.97 152.64C146.93 153.15 146.92 153.66 146.92 154.17L146.92 188.79L130.92 188.79L130.92 150.71C130.92 146.71 130.08 143.54 128.39 141.19C126.7 138.84 123.91 137.66 120 137.66C119.42 137.64 118.85 137.66 118.27 137.71C117.7 137.75 117.13 137.83 116.56 137.95C116 138.06 115.44 138.2 114.89 138.38C114.34 138.55 113.81 138.76 113.28 138.99C112.84 139.2 112.41 139.44 112 139.69C111.59 139.95 111.19 140.23 110.81 140.53C110.43 140.84 110.07 141.16 109.72 141.5C109.38 141.85 109.05 142.21 108.75 142.59C108.45 142.97 108.17 143.37 107.91 143.78C107.64 144.19 107.41 144.62 107.19 145.05C106.97 145.49 106.78 145.93 106.6 146.39C106.43 146.85 106.28 147.31 106.16 147.78C106.02 148.28 105.91 148.78 105.8 149.29C105.7 149.8 105.62 150.31 105.55 150.82C105.49 151.33 105.44 151.84 105.4 152.36C105.37 152.88 105.36 153.39 105.36 153.91L105.36 188.79L89.36 188.79L89.39 124.88Z"></path><path id="Layer" class="shp0" d="M192 126.91L210.3 109.21L211.97 107.51C212.11 107.36 212.25 107.21 212.39 107.06C212.52 106.91 212.66 106.75 212.79 106.59C212.92 106.43 213.04 106.27 213.17 106.11C213.29 105.94 213.41 105.78 213.53 105.61C213.65 105.45 213.76 105.28 213.86 105.11C213.97 104.94 214.07 104.77 214.17 104.59C214.27 104.42 214.36 104.24 214.45 104.06C214.54 103.88 214.62 103.69 214.7 103.51C214.86 103.12 214.98 102.72 215.06 102.31C215.13 101.89 215.17 101.47 215.16 101.05C215.15 100.64 215.1 100.22 215 99.81C214.91 99.4 214.78 99 214.6 98.62C214.51 98.44 214.41 98.26 214.3 98.08C214.19 97.91 214.07 97.74 213.95 97.58C213.82 97.42 213.69 97.26 213.55 97.11C213.4 96.97 213.26 96.82 213.1 96.69C212.94 96.56 212.78 96.43 212.61 96.31C212.43 96.19 212.26 96.08 212.08 95.97C211.9 95.87 211.71 95.78 211.52 95.69C211.33 95.61 211.14 95.53 210.94 95.46C210.73 95.38 210.51 95.32 210.3 95.26C210.08 95.2 209.86 95.16 209.64 95.12C209.42 95.08 209.2 95.05 208.97 95.03C208.75 95.01 208.52 95 208.3 95C207.85 94.98 207.41 95.01 206.97 95.07C206.52 95.14 206.09 95.25 205.67 95.4C205.25 95.55 204.84 95.74 204.46 95.96C204.07 96.19 203.71 96.45 203.37 96.74C203.04 97.04 202.74 97.37 202.48 97.73C202.21 98.08 201.98 98.46 201.78 98.86C201.58 99.25 201.42 99.67 201.29 100.09C201.17 100.52 201.08 100.96 201.04 101.4L192.65 100.73C192.68 100.23 192.74 99.74 192.83 99.25C192.91 98.75 193.02 98.27 193.15 97.79C193.28 97.31 193.44 96.83 193.61 96.37C193.79 95.9 194 95.45 194.22 95C194.42 94.6 194.65 94.21 194.89 93.83C195.14 93.46 195.4 93.09 195.68 92.74C195.96 92.39 196.26 92.06 196.58 91.74C196.9 91.42 197.23 91.12 197.58 90.84C197.94 90.56 198.3 90.29 198.68 90.04C199.06 89.79 199.45 89.56 199.86 89.35C200.26 89.14 200.67 88.94 201.09 88.77C201.51 88.6 201.94 88.44 202.37 88.31C202.85 88.16 203.33 88.03 203.82 87.92C204.31 87.81 204.81 87.72 205.3 87.65C205.8 87.58 206.3 87.53 206.8 87.49C207.3 87.46 207.8 87.44 208.3 87.45C208.8 87.45 209.31 87.46 209.81 87.49C210.31 87.52 210.81 87.57 211.31 87.64C211.8 87.71 212.3 87.8 212.79 87.91C213.28 88.01 213.77 88.14 214.25 88.28C214.69 88.4 215.12 88.55 215.54 88.72C215.96 88.88 216.38 89.07 216.78 89.28C217.19 89.48 217.58 89.71 217.97 89.95C218.35 90.2 218.72 90.46 219.08 90.74C219.43 91.02 219.76 91.31 220.07 91.63C220.39 91.94 220.68 92.28 220.95 92.63C221.23 92.98 221.48 93.34 221.71 93.72C221.95 94.1 222.15 94.5 222.34 94.9C222.55 95.36 222.73 95.84 222.89 96.32C223.04 96.81 223.17 97.3 223.27 97.8C223.37 98.3 223.45 98.8 223.49 99.31C223.54 99.81 223.55 100.32 223.54 100.83C223.56 101.5 223.53 102.17 223.46 102.84C223.38 103.51 223.26 104.17 223.09 104.82C222.92 105.47 222.7 106.1 222.45 106.72C222.19 107.34 221.88 107.94 221.54 108.52C221.18 109.09 220.79 109.64 220.39 110.19C219.99 110.73 219.57 111.26 219.14 111.77C218.7 112.28 218.25 112.78 217.78 113.27C217.31 113.75 216.82 114.22 216.32 114.67L201.74 128.19L223.57 128.19L223.57 135.38L192 135.38L192 126.91Z"></path></svg> 