<?xml version="1.0" encoding="UTF-8"?> <svg xmlns="http://www.w3.org/2000/svg" id="Layer_1" data-name="Layer 1" viewBox="0 0 300 300"><defs><style>.cls-1{fill:#231f20;}</style></defs><path class="cls-1" d="M251.06,194.5a6.66,6.66,0,0,1-6.66-6.65V53.43H109.6a6.66,6.66,0,1,1,0-13.31H251.06a6.66,6.66,0,0,1,6.65,6.66V187.85A6.65,6.65,0,0,1,251.06,194.5Z"></path><path class="cls-1" d="M220.18,239.72H66a6.66,6.66,0,0,1-6.66-6.66V76.66a6.66,6.66,0,0,1,13.32,0V226.41H220.18a6.66,6.66,0,1,1,0,13.31Z"></path><polygon class="cls-1" points="39.44 84.43 66 38.44 92.56 84.43 39.44 84.43"></polygon><polygon class="cls-1" points="212.41 259.62 258.4 233.06 212.41 206.51 212.41 259.62"></polygon><path d="M89.39,124.88h15.18v10h.26a21.61,21.61,0,0,1,6.86-8.06q4.73-3.53,12.72-3.53,15,0,20,11.85a22.63,22.63,0,0,1,8.65-9,25.4,25.4,0,0,1,12.39-2.86,24.57,24.57,0,0,1,10.78,2.13,19,19,0,0,1,7.13,5.86,24.29,24.29,0,0,1,3.92,8.72,45.78,45.78,0,0,1,1.2,10.72v38.08h-16V152.57a29,29,0,0,0-.53-5.65,13.63,13.63,0,0,0-1.86-4.8,9.53,9.53,0,0,0-3.6-3.26,12.48,12.48,0,0,0-5.86-1.2,13.2,13.2,0,0,0-6.32,1.4,12.38,12.38,0,0,0-4.26,3.73,15.35,15.35,0,0,0-2.4,5.32,25.37,25.37,0,0,0-.73,6.06v34.62h-16V150.71q0-6-2.53-9.52c-1.69-2.35-4.48-3.53-8.39-3.53a15.36,15.36,0,0,0-6.72,1.33,13,13,0,0,0-4.53,3.6,14.24,14.24,0,0,0-2.59,5.19,22.9,22.9,0,0,0-.8,6.13v34.88h-16Z"></path><path d="M192,126.91l18.3-17.7,1.67-1.7a15.59,15.59,0,0,0,1.56-1.9,11.11,11.11,0,0,0,1.17-2.1,6.13,6.13,0,0,0-.1-4.89,6.2,6.2,0,0,0-1.5-1.93,6.75,6.75,0,0,0-2.16-1.23A7.89,7.89,0,0,0,208.3,95a7.09,7.09,0,0,0-4.93,1.74,7.33,7.33,0,0,0-2.33,4.66l-8.39-.67A15,15,0,0,1,194.22,95a12.85,12.85,0,0,1,3.36-4.16,14.53,14.53,0,0,1,4.79-2.53,19.45,19.45,0,0,1,5.93-.86,20.33,20.33,0,0,1,5.95.83,14.13,14.13,0,0,1,4.83,2.46,11.39,11.39,0,0,1,3.26,4.16,13.7,13.7,0,0,1,1.2,5.93,14.21,14.21,0,0,1-2,7.69,30.06,30.06,0,0,1-5.22,6.15l-14.58,13.52h21.83v7.19H192Z"></path></svg> 