<?xml version="1.0" encoding="UTF-8"?> <svg xmlns="http://www.w3.org/2000/svg" id="Layer_1" data-name="Layer 1" viewBox="0 0 300 86.02"><path d="M21.14,28.42V51.16c0,1.37-.25,4.5-2.64,4.05s-2.05-4.13-2.05-4.13V33C15.26,13.5,33.92,14.94,33.92,14.94H57.29l2.44,2.64L57.1,19.65l-25,0C21.85,20,21.14,28.42,21.14,28.42Z"></path><path d="M35.52,54.74h.12c.93,0,3.07,0,5.51,0,4.87,0,10.94,0,11,0a1.12,1.12,0,0,0,.22,0c.49,0,1.46-.1,1.48-1.79a.19.19,0,0,1,0-.08V43l.41.23a2.77,2.77,0,0,0,1.45.45,2.61,2.61,0,0,0,1.4-.44l.41-.26V52.8s0,.19,0,.51c0,1.31-.32,5.16-4,5.28H33.31A3.62,3.62,0,0,1,29.59,55V43l.38.15a4.23,4.23,0,0,0,1.71.39,4.06,4.06,0,0,0,1.63-.37l.37-.17v9.13s0,.09,0,.26C33.69,53.07,33.83,54.74,35.52,54.74Z"></path><path d="M55.78,42.38a2.74,2.74,0,0,1-2.9-2.52s0,0,0-.07l-8.32-7.42a3.46,3.46,0,0,1-1,.16,3.16,3.16,0,0,1-1.3-.28l-7.84,7.06a2,2,0,0,1,.08.55,2.73,2.73,0,0,1-2.9,2.52,2.73,2.73,0,0,1-2.9-2.52,2.67,2.67,0,0,1,2.61-2.48l9-8.11a3.25,3.25,0,0,1,6.5,0,2.58,2.58,0,0,1,0,.39l8.65,7.71a3,3,0,0,1,.31,0,2.73,2.73,0,0,1,2.9,2.51A2.73,2.73,0,0,1,55.78,42.38Z"></path><path d="M53.5,69.43H30.13l-2.44-2.64,2.63-2.06,25,0c10.26-.3,11-8.74,11-8.74V33.21c0-1.37.25-4.49,2.63-4.05s2,4.14,2,4.14V51.36C72.16,70.87,53.5,69.43,53.5,69.43Z"></path><polygon points="96.97 62.62 92.95 62.62 77.51 20.81 85.56 20.81 95.11 48.68 105.19 20.81 113.09 20.81 96.97 62.62"></polygon><path d="M116.37,21.4a4.09,4.09,0,1,1,5.78,5.78,4.08,4.08,0,0,1-7-2.88A3.93,3.93,0,0,1,116.37,21.4Z"></path><polygon points="135.12 62.62 124.05 37.67 122.89 37.67 122.89 62.06 115.77 62.06 115.77 31.9 129.21 31.9 136.41 50.32 144.16 31.9 151.62 31.9 137.66 62.62 135.12 62.62"></polygon><path d="M212.68,62.12h-7V44.62q0-3.85-1.49-5.62c-1-1.18-2.6-1.78-4.83-1.78a7.46,7.46,0,0,0-3.3.87,7.65,7.65,0,0,0-2.75,2.18V62.06h-7V31.9h5.08l1.28,2.81c1.92-2.25,4.74-3.37,8.48-3.37a11.23,11.23,0,0,1,8.49,3.22q3.12,3.21,3.11,9Z"></path><path d="M277,35.5q-3.8-4.16-10.66-4.16a13.63,13.63,0,0,0-10.53,4.33,16,16,0,0,0-4,11.24q0,7.13,3.82,11.42t10.69,4.29q6.72,0,10.59-4.25t3.88-11.46Q280.78,39.68,277,35.5Zm-5.44,18.79a6.18,6.18,0,0,1-5.22,2.6c-4.79,0-7.19-3.34-7.19-10,0-3.1.64-5.51,1.94-7.24a6.21,6.21,0,0,1,5.25-2.59q7.14,0,7.14,9.83C273.45,50.1,272.82,52.55,271.53,54.29Z"></path><path d="M250.61,26.49V20.71h-11V33a15.71,15.71,0,0,0-7.34-1.61,13.59,13.59,0,0,0-10.51,4.33,16,16,0,0,0-4,11.24q0,7.13,3.82,11.42t10.68,4.29q6.74,0,10.61-4.25t3.87-11.46c0-.23,0-.45,0-.68V26.49Zm-13.09,27.8a6.18,6.18,0,0,1-5.23,2.6c-4.78,0-7.18-3.34-7.18-10a11.89,11.89,0,0,1,1.94-7.24,6.22,6.22,0,0,1,5.24-2.59q7.16,0,7.15,9.83C239.44,50.1,238.8,52.55,237.52,54.29Z"></path><path d="M181,45.21a13.42,13.42,0,0,0-4-10c-2.66-2.61-6.16-3.91-10.53-3.91a14.43,14.43,0,0,0-10.58,4.42,15.6,15.6,0,0,0-4.41,11.54q0,7.25,4,11.29t10.91,4a21.89,21.89,0,0,0,8.25-1.36V54.34q-2.51,2.4-7.2,2.4a9,9,0,0,1-6.14-2,7.66,7.66,0,0,1-2.48-5.6h21.55A20.16,20.16,0,0,0,181,45.21Zm-21.89-1.37q1.47-6.62,7.49-6.62,6.6,0,7.33,6.62Z"></path></svg> 