<?xml version="1.0" encoding="UTF-8"?> <svg xmlns="http://www.w3.org/2000/svg" viewBox="0 0 23 23" width="23" height="23"><style> tspan { white-space:pre } .shp0 { fill: #3076bb } </style><path id="sitio web" class="shp0" d="M19.23 18.9C19.27 18.86 19.32 18.81 19.36 18.77C19.46 18.66 19.56 18.54 19.66 18.42C19.67 18.41 19.69 18.39 19.7 18.38C19.82 18.24 19.93 18.1 20.03 17.95C20.05 17.93 20.07 17.91 20.08 17.88C20.17 17.76 20.26 17.64 20.34 17.52C20.37 17.47 20.39 17.43 20.42 17.39C20.49 17.28 20.56 17.17 20.62 17.06C20.65 17.01 20.68 16.97 20.7 16.92C20.77 16.81 20.83 16.7 20.89 16.58C20.91 16.54 20.94 16.49 20.96 16.44C21.02 16.32 21.08 16.2 21.13 16.07C21.15 16.03 21.17 15.99 21.19 15.95C21.33 15.62 21.45 15.28 21.56 14.93C21.57 14.89 21.58 14.85 21.6 14.81C21.63 14.68 21.67 14.54 21.7 14.41C21.72 14.35 21.73 14.29 21.75 14.23C21.77 14.11 21.8 13.99 21.82 13.87C21.83 13.81 21.85 13.74 21.86 13.67C21.88 13.56 21.89 13.44 21.91 13.32C21.92 13.25 21.93 13.19 21.93 13.12C21.95 12.99 21.96 12.87 21.97 12.74C21.97 12.68 21.98 12.62 21.98 12.56C21.99 12.38 22 12.19 22 12C22 11.81 21.99 11.62 21.98 11.44C21.98 11.38 21.97 11.32 21.97 11.26C21.96 11.13 21.95 11.01 21.94 10.88C21.93 10.81 21.92 10.74 21.91 10.68C21.89 10.56 21.88 10.44 21.86 10.33C21.85 10.26 21.83 10.19 21.82 10.12C21.8 10.01 21.77 9.89 21.75 9.78C21.73 9.71 21.72 9.65 21.7 9.59C21.67 9.46 21.64 9.33 21.6 9.21C21.59 9.16 21.58 9.11 21.56 9.07C21.51 8.89 21.45 8.72 21.39 8.55C21.38 8.54 21.38 8.53 21.37 8.51C21.32 8.36 21.25 8.2 21.19 8.05C21.17 8 21.14 7.95 21.12 7.9C21.07 7.79 21.02 7.68 20.96 7.57C20.94 7.51 20.91 7.46 20.88 7.4C20.82 7.3 20.77 7.19 20.71 7.09C20.68 7.04 20.65 6.98 20.62 6.93C20.56 6.83 20.49 6.73 20.43 6.63C20.4 6.58 20.37 6.52 20.33 6.47C20.26 6.36 20.18 6.26 20.11 6.15C20.08 6.11 20.06 6.08 20.03 6.04C19.92 5.9 19.82 5.76 19.71 5.63C19.68 5.59 19.65 5.56 19.62 5.53C19.54 5.43 19.45 5.33 19.36 5.23C19.31 5.18 19.27 5.13 19.22 5.08C19.15 5.01 19.07 4.93 19 4.86C18.94 4.81 18.89 4.75 18.83 4.7C18.76 4.63 18.69 4.57 18.62 4.5C18.55 4.45 18.49 4.4 18.43 4.34C18.36 4.29 18.29 4.23 18.22 4.17C18.17 4.13 18.13 4.09 18.08 4.06C18.06 4.04 18.04 4.03 18.02 4.02C17.89 3.92 17.77 3.83 17.64 3.74C17.57 3.7 17.51 3.66 17.45 3.62C17.34 3.55 17.23 3.48 17.12 3.41C17.05 3.37 16.98 3.33 16.91 3.29C16.82 3.24 16.73 3.19 16.65 3.14C16.56 3.1 16.48 3.06 16.39 3.01C16.32 2.98 16.26 2.95 16.19 2.92C16.1 2.88 16.02 2.84 15.94 2.8C15.9 2.78 15.86 2.77 15.82 2.76C15.65 2.69 15.49 2.62 15.32 2.56C15.25 2.54 15.19 2.52 15.13 2.5C14.98 2.45 14.82 2.4 14.67 2.36C14.61 2.35 14.56 2.33 14.5 2.31C14.39 2.28 14.27 2.26 14.15 2.23C14.1 2.22 14.04 2.21 13.99 2.2C13.89 2.18 13.8 2.16 13.7 2.15C13.6 2.13 13.5 2.11 13.4 2.1C13.32 2.09 13.24 2.08 13.16 2.07C13.03 2.05 12.91 2.04 12.78 2.03C12.72 2.03 12.65 2.02 12.58 2.02C12.39 2.01 12.2 2 12 2C11.8 2 11.61 2.01 11.41 2.02C11.35 2.02 11.28 2.03 11.22 2.03C11.09 2.04 10.97 2.05 10.84 2.07C10.76 2.08 10.68 2.09 10.6 2.1C10.5 2.11 10.4 2.13 10.3 2.15C10.2 2.16 10.11 2.18 10.01 2.2C9.96 2.21 9.9 2.22 9.85 2.23C9.73 2.26 9.61 2.28 9.5 2.31C9.44 2.33 9.39 2.35 9.33 2.36C9.17 2.41 9.02 2.45 8.87 2.5C8.81 2.52 8.75 2.54 8.69 2.56C8.49 2.63 8.29 2.71 8.1 2.79C8.09 2.79 8.08 2.8 8.07 2.8C8.01 2.83 7.95 2.85 7.9 2.88C7.79 2.93 7.69 2.98 7.58 3.03C7.52 3.06 7.45 3.09 7.38 3.13C7.27 3.19 7.17 3.25 7.06 3.31C7 3.34 6.95 3.37 6.89 3.4C6.75 3.49 6.61 3.57 6.47 3.67C6.45 3.68 6.44 3.69 6.42 3.7C6.27 3.8 6.12 3.91 5.98 4.02C5.96 4.03 5.94 4.04 5.92 4.06C5.87 4.09 5.83 4.14 5.78 4.17C5.71 4.23 5.64 4.29 5.57 4.34C5.51 4.4 5.44 4.45 5.38 4.51C5.31 4.57 5.24 4.63 5.17 4.7C5.11 4.75 5.06 4.81 5 4.86C4.93 4.93 4.85 5.01 4.78 5.08C4.73 5.13 4.68 5.18 4.64 5.23C4.55 5.33 4.46 5.43 4.38 5.53C4.35 5.56 4.32 5.59 4.29 5.63C4.18 5.76 4.07 5.9 3.97 6.04C3.94 6.08 3.92 6.12 3.89 6.15C3.81 6.26 3.74 6.36 3.67 6.47C3.63 6.52 3.6 6.58 3.57 6.63C3.5 6.73 3.44 6.83 3.38 6.92C3.35 6.98 3.32 7.04 3.29 7.1C3.23 7.2 3.17 7.3 3.12 7.4C3.09 7.45 3.06 7.51 3.03 7.57C2.98 7.68 2.93 7.79 2.88 7.9C2.86 7.95 2.83 8 2.81 8.05C2.75 8.2 2.68 8.35 2.63 8.51C2.62 8.52 2.62 8.54 2.61 8.55C2.55 8.72 2.49 8.89 2.44 9.06C2.42 9.11 2.41 9.16 2.4 9.21C2.36 9.33 2.33 9.46 2.29 9.59C2.28 9.65 2.26 9.71 2.25 9.78C2.22 9.89 2.2 10.01 2.18 10.12C2.16 10.19 2.15 10.26 2.14 10.33C2.12 10.44 2.1 10.56 2.09 10.68C2.08 10.74 2.07 10.81 2.06 10.88C2.05 11.01 2.04 11.13 2.03 11.26C2.02 11.32 2.02 11.38 2.02 11.44C2.01 11.62 2 11.81 2 12C2 12.19 2.01 12.38 2.02 12.56C2.02 12.62 2.03 12.68 2.03 12.74C2.04 12.87 2.05 12.99 2.06 13.12C2.07 13.19 2.08 13.26 2.09 13.32C2.11 13.44 2.12 13.56 2.14 13.67C2.15 13.74 2.17 13.81 2.18 13.87C2.2 13.99 2.23 14.11 2.25 14.23C2.27 14.29 2.28 14.35 2.29 14.41C2.33 14.54 2.36 14.67 2.4 14.81C2.41 14.85 2.42 14.89 2.44 14.93C2.54 15.28 2.67 15.62 2.81 15.95C2.83 15.99 2.85 16.03 2.87 16.07C2.92 16.2 2.98 16.32 3.04 16.44C3.06 16.49 3.09 16.54 3.12 16.59C3.17 16.7 3.23 16.81 3.29 16.92C3.32 16.97 3.35 17.01 3.38 17.06C3.44 17.17 3.51 17.28 3.58 17.39C3.61 17.43 3.63 17.47 3.66 17.52C3.74 17.64 3.83 17.76 3.91 17.88C3.93 17.9 3.95 17.93 3.97 17.95C4.07 18.1 4.18 18.24 4.3 18.38C4.31 18.39 4.33 18.41 4.34 18.43C4.44 18.55 4.54 18.66 4.64 18.77C4.68 18.81 4.73 18.86 4.77 18.9C4.85 18.98 4.93 19.06 5.01 19.14C5.06 19.19 5.11 19.24 5.16 19.29C5.24 19.36 5.31 19.43 5.39 19.5C5.45 19.55 5.51 19.6 5.57 19.65C5.64 19.71 5.71 19.77 5.79 19.83C5.83 19.87 5.88 19.91 5.92 19.94C5.94 19.95 5.96 19.97 5.98 19.98C6.12 20.09 6.27 20.2 6.42 20.3C6.43 20.31 6.44 20.31 6.45 20.32C6.6 20.42 6.75 20.51 6.9 20.6C6.95 20.63 7 20.66 7.05 20.69C7.16 20.75 7.28 20.81 7.39 20.87C7.46 20.91 7.52 20.94 7.58 20.97C7.69 21.02 7.8 21.08 7.92 21.13C7.97 21.15 8.02 21.18 8.07 21.2C8.22 21.26 8.38 21.32 8.54 21.38C8.56 21.39 8.57 21.4 8.59 21.4C8.89 21.51 9.19 21.61 9.5 21.69C9.61 21.72 9.72 21.74 9.84 21.76C9.9 21.78 9.96 21.79 10.02 21.8C10.11 21.82 10.2 21.84 10.29 21.85C10.4 21.87 10.5 21.89 10.6 21.9C10.68 21.91 10.76 21.92 10.84 21.93C10.97 21.94 11.09 21.96 11.22 21.97C11.28 21.97 11.35 21.98 11.42 21.98C11.61 21.99 11.8 22 12 22C12.2 22 12.39 21.99 12.59 21.98C12.65 21.98 12.72 21.97 12.78 21.97C12.91 21.96 13.03 21.94 13.16 21.93C13.24 21.92 13.32 21.91 13.4 21.9C13.5 21.89 13.6 21.87 13.71 21.85C13.8 21.84 13.89 21.82 13.99 21.8C14.05 21.79 14.1 21.78 14.16 21.76C14.28 21.74 14.39 21.72 14.5 21.69C14.56 21.67 14.61 21.65 14.67 21.64C14.82 21.59 14.98 21.55 15.13 21.5C15.19 21.48 15.25 21.46 15.31 21.43C15.49 21.37 15.67 21.31 15.84 21.23C15.87 21.22 15.9 21.21 15.94 21.2C16.02 21.16 16.1 21.12 16.18 21.09C16.25 21.05 16.32 21.02 16.4 20.98C16.48 20.94 16.56 20.9 16.64 20.86C16.73 20.81 16.83 20.76 16.92 20.71C16.99 20.67 17.05 20.63 17.12 20.59C17.24 20.52 17.36 20.44 17.47 20.37C17.51 20.34 17.56 20.31 17.6 20.29C17.74 20.19 17.89 20.09 18.02 19.98C18.04 19.97 18.06 19.96 18.08 19.94C18.12 19.91 18.17 19.87 18.21 19.83C18.29 19.77 18.36 19.71 18.44 19.65C18.49 19.6 18.55 19.55 18.61 19.5C18.69 19.43 18.76 19.36 18.84 19.29C18.89 19.24 18.94 19.19 18.99 19.15C19.07 19.06 19.15 18.98 19.23 18.9ZM19.21 16.63C19.21 16.64 19.2 16.64 19.2 16.65C18.98 16.98 18.75 17.29 18.5 17.58C18.49 17.6 18.48 17.61 18.47 17.62C18.28 17.84 18.07 18.05 17.86 18.25C17.78 18.32 17.71 18.39 17.62 18.47C17.55 18.53 17.47 18.59 17.39 18.66C17.3 18.73 17.22 18.8 17.13 18.86C17.05 18.92 16.97 18.98 16.89 19.03C16.79 19.1 16.7 19.17 16.6 19.23C16.52 19.28 16.44 19.32 16.37 19.37C16.25 19.44 16.14 19.5 16.03 19.56C15.9 19.63 15.77 19.7 15.64 19.76C15.63 19.76 15.63 19.77 15.62 19.77C15.61 19.78 15.6 19.78 15.59 19.79C15.71 19.62 15.82 19.44 15.94 19.25C16.34 18.58 16.68 17.81 16.96 16.96C18.05 16.6 19 16.14 19.79 15.58C19.78 15.59 19.78 15.59 19.78 15.6C19.61 15.95 19.42 16.3 19.21 16.63ZM8.41 19.78C8.35 19.76 8.3 19.73 8.25 19.71C8.17 19.67 8.09 19.62 8.01 19.58C7.86 19.51 7.72 19.42 7.58 19.34C7.53 19.31 7.48 19.28 7.43 19.25C7.3 19.16 7.17 19.07 7.04 18.98C6.99 18.95 6.94 18.92 6.9 18.88C6.77 18.79 6.64 18.68 6.52 18.58C6.48 18.55 6.43 18.51 6.39 18.48C6.28 18.38 6.17 18.28 6.07 18.18C5.88 18 5.71 17.82 5.54 17.63C5.52 17.61 5.51 17.59 5.49 17.57C5.25 17.29 5.02 16.99 4.82 16.68C4.8 16.65 4.78 16.62 4.76 16.59C4.68 16.45 4.59 16.31 4.51 16.16C4.5 16.15 4.49 16.13 4.48 16.11C4.39 15.95 4.31 15.79 4.23 15.62C4.23 15.61 4.22 15.6 4.22 15.58C5 16.14 5.95 16.6 7.04 16.96C7.32 17.81 7.66 18.58 8.07 19.25C8.18 19.44 8.29 19.62 8.42 19.79C8.41 19.79 8.41 19.78 8.41 19.78ZM4.23 8.37C4.31 8.21 4.39 8.05 4.48 7.89C4.49 7.87 4.5 7.85 4.51 7.83C4.59 7.69 4.68 7.55 4.76 7.41C4.78 7.38 4.8 7.35 4.82 7.32C4.92 7.16 5.03 7.01 5.14 6.86C5.14 6.86 5.14 6.86 5.14 6.86C5.25 6.71 5.37 6.57 5.49 6.43C5.51 6.41 5.53 6.39 5.54 6.36C5.71 6.18 5.88 6 6.05 5.84C6.16 5.73 6.28 5.62 6.39 5.52C6.43 5.49 6.47 5.46 6.51 5.42C6.64 5.32 6.77 5.21 6.9 5.11C6.94 5.08 6.99 5.05 7.03 5.02C7.16 4.93 7.3 4.83 7.44 4.75C7.48 4.72 7.53 4.69 7.58 4.66C7.72 4.58 7.86 4.49 8.01 4.42C8.09 4.37 8.17 4.33 8.25 4.29C8.3 4.27 8.35 4.24 8.41 4.21C8.41 4.21 8.41 4.21 8.42 4.21C8.29 4.38 8.18 4.56 8.07 4.75C7.66 5.42 7.32 6.19 7.04 7.04C5.95 7.39 5 7.86 4.22 8.41C4.22 8.4 4.23 8.39 4.23 8.37ZM15.62 4.23C15.63 4.23 15.63 4.23 15.64 4.24C15.77 4.3 15.9 4.37 16.03 4.43C16.14 4.5 16.26 4.56 16.37 4.63C16.44 4.67 16.52 4.72 16.6 4.77C16.7 4.83 16.79 4.9 16.89 4.97C16.97 5.02 17.05 5.07 17.13 5.13C17.22 5.2 17.31 5.27 17.4 5.35C17.47 5.41 17.55 5.47 17.62 5.53C17.71 5.61 17.8 5.69 17.88 5.77C18.09 5.97 18.28 6.16 18.46 6.37C18.48 6.39 18.49 6.4 18.5 6.42C18.75 6.71 18.98 7.02 19.19 7.34C19.2 7.35 19.21 7.36 19.21 7.37C19.42 7.7 19.61 8.04 19.78 8.4C19.78 8.4 19.78 8.41 19.78 8.41C19 7.86 18.05 7.39 16.96 7.04C16.68 6.19 16.34 5.42 15.94 4.75C15.82 4.56 15.71 4.38 15.59 4.21C15.6 4.22 15.61 4.22 15.62 4.23ZM17.7 11.29C17.66 10.37 17.55 9.49 17.39 8.67C18.98 9.31 20.1 10.23 20.45 11.29L17.7 11.29ZM15.94 8.6C16.12 9.43 16.23 10.34 16.27 11.29L12.71 11.29L12.71 7.73C13.83 7.77 14.88 7.93 15.83 8.16C15.87 8.31 15.9 8.45 15.94 8.6ZM12.71 6.3L12.71 3.54C13.37 3.77 13.98 4.29 14.5 5.04C14.81 5.48 15.09 6.01 15.33 6.61C14.51 6.44 13.63 6.34 12.71 6.3ZM11.28 6.3C10.37 6.34 9.5 6.44 8.67 6.61C8.91 6.01 9.19 5.48 9.5 5.04C10.02 4.29 10.63 3.77 11.28 3.54L11.28 6.3ZM11.28 7.73L11.28 11.29L7.73 11.29C7.77 10.34 7.89 9.43 8.07 8.6C8.1 8.45 8.13 8.31 8.17 8.16C9.12 7.93 10.17 7.77 11.28 7.73ZM6.3 11.29L3.55 11.29C3.9 10.23 5.02 9.31 6.61 8.67C6.45 9.49 6.34 10.37 6.3 11.29ZM6.3 12.71C6.34 13.62 6.44 14.5 6.61 15.33C5.02 14.69 3.9 13.77 3.55 12.71L6.3 12.71ZM8.07 15.4C7.89 14.56 7.77 13.66 7.73 12.71L11.28 12.71L11.28 16.27C10.17 16.23 9.12 16.07 8.17 15.83C8.13 15.69 8.1 15.55 8.07 15.4ZM11.28 17.7L11.28 20.45C10.63 20.23 10.02 19.71 9.5 18.96C9.19 18.51 8.91 17.98 8.67 17.39C9.5 17.55 10.37 17.66 11.28 17.7ZM12.71 17.7C13.63 17.66 14.51 17.55 15.33 17.39C15.09 17.98 14.81 18.51 14.5 18.96C13.98 19.71 13.37 20.23 12.71 20.45L12.71 17.7ZM12.71 16.27L12.71 12.71L16.27 12.71C16.23 13.66 16.12 14.56 15.94 15.4C15.9 15.55 15.87 15.69 15.83 15.83C14.88 16.07 13.83 16.23 12.71 16.27ZM17.7 12.71L20.45 12.71C20.1 13.77 18.98 14.69 17.39 15.33C17.55 14.5 17.66 13.62 17.7 12.71Z"></path></svg> 