<?xml version="1.0" encoding="UTF-8"?> <svg xmlns="http://www.w3.org/2000/svg" viewBox="0 0 21 20" width="21" height="20"><style> tspan { white-space:pre } .shp0 { fill: #3076bb } </style><path id="tel" class="shp0" d="M11.13 6.4C11.99 6.55 12.78 6.95 13.41 7.58C14.04 8.21 14.45 9 14.6 9.86C14.66 10.2 14.95 10.45 15.3 10.45C15.34 10.45 15.38 10.44 15.41 10.44C15.41 10.44 15.41 10.44 15.41 10.44C15.6 10.41 15.76 10.3 15.87 10.15C15.98 9.99 16.02 9.81 15.99 9.62C15.79 8.47 15.25 7.42 14.41 6.58C13.57 5.75 12.52 5.2 11.36 5.01L11.36 5.01C10.98 4.94 10.61 5.2 10.55 5.58C10.49 5.97 10.75 6.33 11.13 6.4L11.13 6.4ZM15.48 12.31C15.09 11.91 14.62 11.7 14.13 11.7C13.63 11.7 13.16 11.91 12.77 12.31L11.79 13.29C11.76 13.27 11.74 13.26 11.71 13.25L11.66 13.23C11.56 13.17 11.44 13.11 11.34 13.05C10.33 12.41 9.41 11.57 8.53 10.49C8.15 10.01 7.88 9.61 7.69 9.2C7.93 8.97 8.16 8.74 8.38 8.52C8.43 8.47 8.47 8.42 8.52 8.37C8.57 8.32 8.62 8.27 8.67 8.22C9.08 7.81 9.3 7.33 9.3 6.84C9.3 6.36 9.08 5.88 8.67 5.47L7.72 4.52C7.66 4.47 7.61 4.41 7.55 4.36C7.5 4.3 7.45 4.25 7.39 4.19L7.32 4.12C7.13 3.92 6.93 3.73 6.74 3.54C6.35 3.16 5.89 2.96 5.4 2.96C4.91 2.96 4.44 3.16 4.04 3.54C4.04 3.55 4.04 3.55 4.04 3.55L2.84 4.74C2.36 5.23 2.08 5.82 2.02 6.51L2.02 6.51C1.95 7.32 2.1 8.17 2.48 9.2C3.05 10.75 3.92 12.19 5.19 13.72C6.75 15.57 8.62 17.03 10.74 18.06L10.74 18.06C11.56 18.45 12.66 18.91 13.91 18.99C13.91 18.99 13.91 18.99 13.91 18.99L13.92 18.99C13.99 19 14.06 19 14.14 19C15.01 19 15.75 18.68 16.32 18.06L16.33 18.05C16.34 18.05 16.34 18.04 16.35 18.03C16.52 17.83 16.72 17.64 16.94 17.42C17.1 17.28 17.25 17.13 17.41 16.96C17.8 16.56 18 16.08 18 15.59C18 15.1 17.79 14.63 17.39 14.23L15.48 12.31L15.48 12.31ZM15.29 17.12C14.98 17.44 14.63 17.59 14.15 17.59C14.11 17.59 14.06 17.59 14 17.58C13.01 17.52 12.07 17.13 11.36 16.79C9.41 15.85 7.7 14.51 6.28 12.82L6.28 12.82C5.11 11.41 4.33 10.11 3.81 8.71C3.5 7.88 3.38 7.23 3.43 6.62C3.46 6.27 3.59 5.99 3.85 5.74L5.03 4.55C5.16 4.43 5.28 4.37 5.4 4.37C5.52 4.37 5.63 4.43 5.76 4.55C5.76 4.55 5.76 4.56 5.77 4.56C5.97 4.75 6.17 4.95 6.38 5.17L6.39 5.17C6.49 5.28 6.61 5.4 6.73 5.52L7.68 6.47C7.96 6.74 7.96 6.94 7.68 7.22C7.58 7.32 7.48 7.42 7.38 7.52L7.31 7.59C7.04 7.86 6.79 8.12 6.51 8.36C6.51 8.37 6.51 8.37 6.5 8.37L6.48 8.39C6.19 8.68 6.11 9.03 6.25 9.42C6.25 9.43 6.26 9.44 6.26 9.45L6.26 9.45C6.26 9.46 6.26 9.46 6.27 9.47C6.52 10.08 6.88 10.67 7.43 11.36C7.43 11.37 7.44 11.37 7.44 11.37C8.41 12.57 9.45 13.51 10.6 14.24C10.75 14.34 10.9 14.41 11.05 14.49C11.15 14.54 11.27 14.6 11.37 14.66C11.38 14.67 11.39 14.67 11.39 14.67L11.4 14.68C11.41 14.68 11.42 14.69 11.43 14.7C11.58 14.77 11.73 14.81 11.88 14.81C12.15 14.81 12.39 14.7 12.58 14.49L13.78 13.3C13.86 13.21 14 13.11 14.14 13.11C14.27 13.11 14.4 13.21 14.48 13.3C14.48 13.3 14.48 13.3 14.48 13.3L16.41 15.23C16.6 15.42 16.73 15.64 16.39 15.99L16.39 15.99C16.29 16.11 16.18 16.22 16.06 16.33C16.03 16.36 16 16.38 15.98 16.41C15.74 16.63 15.51 16.86 15.29 17.12L15.29 17.12ZM18.99 9.48C18.67 7.62 17.79 5.92 16.44 4.56C15.08 3.21 13.37 2.33 11.5 2.01C11.12 1.95 10.75 2.21 10.69 2.59C10.63 2.97 10.89 3.34 11.27 3.4C12.85 3.67 14.29 4.42 15.44 5.56C16.58 6.7 17.33 8.14 17.6 9.72C17.65 10.06 17.95 10.31 18.29 10.31C18.3 10.31 18.3 10.31 18.3 10.31C18.34 10.31 18.38 10.3 18.41 10.3C18.41 10.3 18.41 10.3 18.41 10.3C18.6 10.27 18.76 10.17 18.87 10.01C18.98 9.85 19.02 9.67 18.99 9.48L18.99 9.48Z"></path></svg> 