<?xml version="1.0" encoding="UTF-8"?> <svg xmlns="http://www.w3.org/2000/svg" data-name="Layer 1" width="300" height="300" style=""><rect id="backgroundrect" width="100%" height="100%" x="0" y="0" fill="none" stroke="none"></rect><g class="currentLayer" style=""><title>Layer 1</title><polygon points="199.71 88.96 199.93 90.59 197.49 91.09 197.16 94.56 200.08 94.56 203.97 94.19 205.98 91.8 203.85 90.97 202.68 89.63 200.92 86.79 200.08 82.77 196.78 83.44 195.86 84.86 195.86 86.45 197.45 87.54 199.71 88.96" id="svg_1"></polygon><polygon points="196.9 90.3 197.08 88.12 195.14 87.29 192.44 87.91 190.43 91.14 190.43 93.22 192.77 93.22 196.9 90.3" id="svg_2"></polygon><path d="M141.18,99.53l-.6,1.54H137.7v1.49h.69s0,.31.1.73l1.76-.15,1.11-.69.29-1.38,1.43-.13.56-1.16-1.31-.27Z" id="svg_3"></path><polygon points="133.75 102.23 133.63 103.69 135.72 103.52 135.94 102.06 134.69 101.07 133.75 102.23" id="svg_4"></polygon><path d="M259.21,147.86793098926543 c0,-3.21 -0.19000000000000003,-6.4 -0.49000000000000005,-9.53 a109.3,109.3 0 0 0 -7.26,-29.87 c-0.28,-0.7000000000000001 -0.54,-1.4100000000000001 -0.8400000000000001,-2.1 a109.86,109.86 0 0 0 -20.57,-31.79 c-0.5700000000000001,-0.6000000000000001 -1.1400000000000001,-1.2 -1.71,-1.78 c-1.62,-1.6900000000000002 -3.29,-3.33 -5,-4.9 a109.46,109.46 0 0 0 -148.06,0.46 A111.39,111.39 0 0 0 62.73,82.04793098926544 A109.65,109.65 0 1 0 247.22,198.83793098926543 a108.64,108.64 0 0 0 9,-24.16 q0.78,-3.22 1.36,-6.5 a110.33,110.33 0 0 0 1.71,-19.18 C259.24,148.61793098926543 259.22,148.24793098926546 259.21,147.86793098926543 zm-20.64,-43.85 l0.6300000000000001,-0.7100000000000001 c0.8400000000000001,1.62 1.62,3.27 2.36,4.94 l-1,0 l-2,0.27 zM222.72,84.87793098926544 v-4.9 c1.73,1.83 3.39,3.71 5,5.66 l-2,2.94 l-6.91,-0.06000000000000001 l-0.43000000000000005,-1.44 zM90.39,72.70793098926544 v-0.19000000000000003 h2.19 l0.19000000000000003,-0.7500000000000001 h3.6 V73.33793098926544 l-1,1.3800000000000001 h-5 v-2 zm3.51,4.890000000000001 s2.19,-0.37000000000000005 2.38,-0.37000000000000005 s0,2.19 0,2.19 l-5,0.31000000000000005 l-0.9400000000000001,-1.13 zM245.56,121.13793098926544 h-8 l-4.890000000000001,-3.64 l-5.15,0.5 V121.13793098926544 h-1.6300000000000001 l-1.7600000000000002,-1.26 l-8.91,-2.26 v-5.77 l-11.3,0.8800000000000001 l-3.5,1.8800000000000001 H195.9 l-2.2,-0.22000000000000003 l-5.44,3 V123.13793098926544 l-11.13,8 l0.92,3.43 h2.26 l-0.5900000000000001,3.27 l-1.59,0.5800000000000001 l-0.09000000000000002,8.54 l9.620000000000001,11 h4.19 l0.25,-0.6700000000000002 h7.53 l2.17,-2 h4.27 l2.34,2.34 l6.36,0.6600000000000001 l-0.8400000000000001,8.46 L221,179.13793098926544 l-3.72,7.1 l0.25,3.35 l2.93,2.92 v8 l3.85,5.17 v6.69 h3.3200000000000003 A100.64,100.64 0 0 1 56.9,109.59793098926544 v-3.14 L60.5,102.13793098926544 q1.8800000000000001,-3.54 4,-6.91 l0.17,1.83 L60.51,102.13793098926544 c-1.3,2.44 -2.51,4.94 -3.6,7.51 v5.73 l4.18,2 v8 l4,6.84 l3.26,0.5 l0.42000000000000004,-2.34 l-3.85,-5.94 l-0.7500000000000001,-5.77 h2.26 l1,5.94 L73,132.64793098926543 l-1.4300000000000002,2.62 l3.54,5.41 l8.78,2.18 V141.43793098926545 l3.51,0.5 L87,144.44793098926544 l2.7600000000000002,0.5 L94.05,146.13793098926544 l6,6.86 l7.69,0.5800000000000001 l0.7600000000000001,6.28 l-5.27,3.68 L103,169.13793098926544 l-0.7500000000000001,3.43 l7.62,9.54 l0.5800000000000001,3.26 s2.7600000000000002,0.7500000000000001 3.1,0.7500000000000001 s6.19,4.44 6.19,4.44 v17.23 l2.09,0.5900000000000001 l-1.42,7.95 l3.51,4.68 l-0.6500000000000001,7.88 l4.640000000000001,8.16 l6,5.21 l6,0.11000000000000001 l0.5800000000000001,-1.9300000000000002 l-4.4,-3.71 l0.25,-1.84 l0.79,-2.25 l0.17,-2.3 l-3,-0.09000000000000002 l-1.5,-1.8900000000000001 l2.47,-2.38 l0.33000000000000007,-1.79 l-2.7600000000000002,-0.79 l0.17,-1.6700000000000002 l3.93,-0.6000000000000001 l6,-2.87 l2,-3.68 l6.28,-8 l-1.4300000000000002,-6.28 l1.9300000000000002,-3.34 l5.77,0.18000000000000002 l3.88,-3.08 l1.26,-12.12 l4.3100000000000005,-5.47 l0.7500000000000001,-3.52 l-3.93,-1.26 l-2.59,-4.25 l-8.870000000000001,-0.09000000000000002 l-7,-2.68 l-0.33000000000000007,-5 l-2.35,-4.1 l-6.36,-0.09000000000000002 l-3.67,-5.77 l-3.26,-1.59 l-0.17,1.7600000000000002 l-5.94,0.35000000000000003 L121,147.13793098926544 l-6.2,-1.26 l-5.1,5.9 l-8,-1.36 l-0.5800000000000001,-9 l-5.87,-1 l2.36,-4.44 l-0.6800000000000002,-2.55 l-7.7,5.14 l-4.84,-0.5900000000000001 L82.62,134.13793098926544 l1,-3.9 l2.67,-4.93 l6.15,-3.11 h11.88 l0,3.63 l4.27,2 l-0.3400000000000001,-6.19 l3.08,-3.09 l6.2,-4.08 l0.43000000000000005,-2.87 l6.19,-6.44 l6.58,-3.6500000000000004 l-0.5800000000000001,-0.48000000000000004 l4.46,-4.19 l1.6300000000000001,0.43000000000000005 L137,98.13793098926544 l1.6900000000000002,-1.8800000000000001 l0.42000000000000004,-0.18000000000000002 l-1.86,-0.27 l-1.8800000000000001,-0.6200000000000001 V93.40793098926544 l1,-0.8200000000000001 h2.2 l1,0.45 l0.8700000000000001,1.7600000000000002 l1.07,-0.17 v-0.15000000000000002 l0.30000000000000004,0.1 l3.09,-0.47000000000000003 l0.44000000000000006,-1.51 l1.7600000000000002,0.45 v1.6300000000000001 l-1.6400000000000001,1.12 h0 l0.24000000000000002,1.79 l5.59,1.73 v0.07 l1.29,-0.11000000000000001 l0.08000000000000002,-2.43 l-4.43,-2 L148,93.66793098926544 l3.68,-1.25 l0.16000000000000003,-3.52 L148,86.55793098926544 l-0.26,-5.94 l-5.27,2.59 h-1.92 l0.51,-4.51 l-7.18,-1.6900000000000002 l-3,2.24 V86.13793098926544 l-5.33,1.6900000000000002 l-2.14,4.46 l-2.3200000000000003,0.37000000000000005 v-5.7 l-5,-0.7000000000000001 l-2.51,-1.6300000000000001 l-1,-3.6900000000000004 l9,-5.26 L126,74.29793098926544 l0.44000000000000006,3 l2.44,-0.13 L129,75.63793098926544 l2.56,-0.37000000000000005 l0,-0.52 l-1.1,-0.45 l-0.26,-1.57 l3.15,-0.27 l1.9,-2 l0.1,-0.15000000000000002 h0 l0.5800000000000001,-0.6000000000000001 l6.61,-0.8300000000000001 l2.92,2.48 l-7.66,4.09 l9.75,2.3 l1.27,-3.27 h4.26 l1.51,-2.84 l-3,-0.7500000000000001 v-3.6 L142.22,63.13793098926544 l-6.52,0.7600000000000001 L132,65.81793098926545 l0.25,4.69 l-3.85,-0.5900000000000001 l-0.5900000000000001,-2.59 l3.68,-3.35 l-6.69,-0.33000000000000007 l-1.92,0.5800000000000001 l-0.8300000000000001,2.26 l2.5,0.42000000000000004 l-0.5,2.51 l-4.26,0.25 l-0.6700000000000002,1.6700000000000002 l-6.18,0.17 s-0.18000000000000002,-3.51 -0.42000000000000004,-3.51 l4.85,-0.08000000000000002 l3.68,-3.6 l-2,-1 l-2.67,2.6 L112,65.65793098926544 l-2.68,-3.68 h-5.69 l-5.94,4.43 h5.44 l0.5,1.59 l-1.4100000000000001,1.32 l6,0.16000000000000003 l0.92,2.18 l-6.78,-0.25 L102,69.72793098926545 l-4.26,-0.92 l-2.26,-1.25 l-5.08,0 A100.39,100.39 0 0 1 216,73.47793098926545 l-1.19,2.14 l-4.65,1.81 l-1.9500000000000002,2.13 l0.45,2.48 l2.39,0.33000000000000007 l1.45,3.6100000000000003 l4.13,-1.6600000000000001 l0.6800000000000002,4.82 h-1.24 l-3.4,-0.5 l-3.7600000000000002,0.6300000000000001 l-3.64,5.15 l-5.21,0.81 l-0.7500000000000001,4.46 l2.19,0.52 l-0.6300000000000001,2.87 l-5.17,-1 l-4.74,1 l-1,2.64 l0.8200000000000001,5.54 l2.7800000000000002,1.3 l4.67,0 l3.16,-0.28 l1,-2.51 l4.93,-6.4 l3.24,0.6600000000000001 l3.2,-2.89 l0.5900000000000001,2.26 l7.86,5.3 l-1,1.29 l-3.54,-0.19000000000000003 l1.36,1.9300000000000002 l2.18,0.48000000000000004 l2.55,-1.06 l-0.05000000000000001,-3.08 l1.13,-0.5700000000000001 l-0.91,-1 l-5.24,-2.93 l-1.3800000000000001,-3.88 h4.36 l1.3900000000000001,1.3800000000000001 l3.75,3.23 l0.16000000000000003,3.91 l3.89,4.15 l1.45,-5.68 l2.6900000000000004,-1.47 l0.51,4.640000000000001 l2.63,2.89 l5.25,-0.09000000000000002 q1.51,3.92 2.72,8 zM99.68,89.13793098926544 l2.63,-1.25 l2.38,0.5700000000000001 l-0.8200000000000001,3.2 l-2.5700000000000003,0.81 zm14,7.53 V98.73793098926544 h-6 L105.39,98.13793098926544 l0.56,-1.45 l2.89,-1.19 h4 v1.19 zm2.77,2.89 v2 l-1.51,1 l-1.87,0.35000000000000003 v-3.33 zm-1.7000000000000002,-0.8200000000000001 V96.35793098926544 l2.07,1.8800000000000001 zm1,4.83 v2 l-1.44,1.44 H111 l0.5,-2.19 l1.51,-0.13 l0.31000000000000005,-0.7600000000000001 zm-8,-4 H111 l-4.26,6 l-1.7600000000000002,-0.9400000000000001 l0.38000000000000006,-2.51 zm13.620000000000001,3.33 v2 h-3.2 l-0.8800000000000001,-1.27 v-1.81 h0.25 zm-3,-2.68 l0.91,-1 l1.54,1 l-1.23,1 zm128.82,26 l0.31000000000000005,-0.37000000000000005 c0.14,0.5700000000000001 0.28,1.13 0.4,1.71 z" id="svg_5" class="selected" fill="#3175bc" fill-opacity="1" stroke="#ffffff" stroke-opacity="1"></path><path d="M56.91,107.32v3.14c1.09-2.56,2.3-5.06,3.6-7.51Z" id="svg_6"></path></g></svg> 