<?xml version="1.0" encoding="UTF-8"?> <svg xmlns="http://www.w3.org/2000/svg" viewBox="0 0 18 19" width="18" height="19"><style> tspan { white-space:pre } .shp0 { fill: #2f75bb } </style><path id="Shape 14" class="shp0" d="M10.65 15.55C10.95 15.61 11.23 15.64 11.51 15.64C12.05 15.64 12.55 15.52 12.98 15.3C13.7 14.92 14.26 14.22 14.6 13.27C14.7 12.96 14.59 12.63 14.31 12.46L11.52 10.71L11.49 10.69C11.47 10.67 11.45 10.66 11.43 10.65C11.36 10.61 11.29 10.58 11.21 10.56L11.17 10.56C11.16 10.56 11.16 10.56 11.16 10.56L11.12 10.55C11 10.54 10.89 10.57 10.78 10.62C10.75 10.63 10.72 10.65 10.68 10.67C10.67 10.68 10.65 10.7 10.63 10.71L10.59 10.74L10.57 10.77C10.56 10.78 10.55 10.79 10.54 10.81L10.08 11.27C9.22 10.78 8.47 10.02 7.76 8.89L8.15 8.5C8.16 8.49 8.18 8.48 8.19 8.46C8.2 8.45 8.21 8.44 8.22 8.43L8.32 8.32L8.32 8.29L8.32 8.28C8.33 8.27 8.34 8.25 8.35 8.23L8.35 8.23C8.35 8.22 8.35 8.21 8.35 8.21L8.37 8.16C8.38 8.14 8.38 8.12 8.38 8.1L8.39 8.08C8.39 8.07 8.39 8.05 8.39 8.03L8.39 8.01L8.39 8C8.39 7.99 8.39 7.98 8.39 7.97L8.39 7.97L8.39 7.97C8.39 7.95 8.39 7.94 8.39 7.93L8.39 7.92L8.39 7.88C8.39 7.87 8.39 7.86 8.39 7.86L8.38 7.81C8.37 7.79 8.37 7.77 8.36 7.76L8.34 7.7C8.33 7.67 8.31 7.64 8.3 7.62L6.52 4.7C6.44 4.57 6.33 4.47 6.2 4.42L6.2 4.33L5.87 4.36C5.82 4.37 5.77 4.38 5.73 4.4C4.79 4.68 4.09 5.21 3.71 5.91C3.37 6.55 3.28 7.32 3.45 8.2C3.73 9.66 4.69 11.27 6.14 12.76C7.6 14.26 9.21 15.25 10.65 15.55ZM6.39 8.3C6.17 8.52 6.13 8.86 6.28 9.13C7.34 10.96 8.5 12.11 9.94 12.74C10.2 12.86 10.5 12.8 10.7 12.6L11.17 12.13L13.07 13.31C12.88 13.66 12.64 13.91 12.34 14.06C11.97 14.26 11.49 14.3 10.93 14.19C9.8 13.95 8.34 13.03 7.13 11.79C5.91 10.55 5.02 9.07 4.8 7.94C4.7 7.39 4.74 6.93 4.93 6.57C5.08 6.3 5.31 6.08 5.64 5.91L6.83 7.87L6.39 8.3ZM9 1C4.04 1 0 5.04 0 10C0 11.7 0.48 13.36 1.4 14.82L0.47 17.94C0.36 18.3 0.57 18.69 0.93 18.8C1.07 18.84 1.22 18.84 1.36 18.79L4.4 17.74C5.79 18.56 7.38 19 9 19C13.96 19 18 14.96 18 10C18 5.04 13.96 1 9 1ZM2.82 14.91C2.88 14.71 2.85 14.49 2.73 14.32C1.85 13.03 1.38 11.54 1.38 10C1.38 5.8 4.8 2.38 9 2.38C13.2 2.38 16.62 5.8 16.62 10C16.62 14.2 13.2 17.61 9 17.61C7.52 17.61 6.09 17.19 4.87 16.4C4.75 16.32 4.62 16.29 4.49 16.29C4.42 16.29 4.34 16.3 4.26 16.32L2.18 17.04L2.82 14.91Z"></path></svg> 