<?xml version="1.0" encoding="UTF-8"?> <svg xmlns="http://www.w3.org/2000/svg" id="Layer_1" data-name="Layer 1" viewBox="0 0 300 300"><path d="M251,167.8l-38.78,10.39-13.75-7.94,8.16-14.13h20V143.28h-20l-8.16-14.13,13.75-7.94L251,131.61l3.32-12.41-26.37-7.07,20.2-11.66-6.42-11.12L221.52,101l7.06-26.37-12.4-3.33-10.39,38.78L192,118l-8.15-14.13,10-17.35-11.12-6.42-10,17.35H156.45V81.61l28.39-28.39-9.09-9.08-19.3,19.31V40.12H143.61V63.45L124.3,44.14l-9.08,9.08,28.39,28.39V97.48H127.29l-10-17.35-11.13,6.42,10,17.35L108,118l-13.74-7.94L83.88,71.31,71.47,74.64,78.54,101,58.33,89.35l-6.42,11.12,20.21,11.66L45.74,119.2l3.33,12.41,38.77-10.4,13.75,7.94-8.16,14.13h-20v12.84h20l8.16,14.13-13.75,7.94L49.07,167.8l-3.33,12.4,26.38,7.07L51.91,198.93l6.42,11.12,20.21-11.66-7.07,26.37,12.41,3.33,10.39-38.78L108,181.37l8.16,14.13-10,17.35,11.13,6.42,10-17.35h16.32V217.8l-28.39,28.38,9.08,9.08L143.61,236v23.33h12.84V236l19.3,19.3,9.09-9.08L156.45,217.8V201.92h16.31l10,17.35,11.12-6.42-10-17.35L192,181.37l13.75,7.94,10.39,38.78,12.4-3.33-7.06-26.37,20.2,11.66,6.42-11.12-20.2-11.66,26.37-7.07Zm-138.28-4-8.16-14.13,8.16-14.13,24.47,14.13Zm30.9,25.25H127.29L119.13,175l24.48-14.13Zm0-50.5-24.48-14.13,8.16-14.13h16.32Zm12.84-28.26h16.31l8.16,14.13-24.47,14.13Zm16.31,78.76H156.45V160.82L180.92,175Zm14.58-25.25L162.87,149.7l24.47-14.13,8.16,14.13Z"></path></svg> 