<?xml version="1.0" encoding="UTF-8"?> <svg xmlns="http://www.w3.org/2000/svg" id="Layer_1" data-name="Layer 1" viewBox="0 0 300 300"><defs><style>.cls-1,.cls-8{fill:#fff;}.cls-1,.cls-2,.cls-3,.cls-4,.cls-5,.cls-7,.cls-8{stroke:#000;}.cls-1,.cls-7{stroke-linecap:round;stroke-linejoin:round;}.cls-1,.cls-3,.cls-7,.cls-8{stroke-width:1.07px;}.cls-2,.cls-3,.cls-4,.cls-5,.cls-6,.cls-8{stroke-miterlimit:10;}.cls-2,.cls-5{stroke-width:4.49px;}.cls-4{fill:#999;stroke-width:4.07px;}.cls-5,.cls-6,.cls-7{fill:none;}.cls-6{stroke:#fff;stroke-width:1.57px;}</style></defs><path class="cls-1" d="M57.39,186S46.48,124.41,63.26,56.22H236.69s14.48,59.81,7.06,130.39Z"></path><rect class="cls-2" x="58.96" y="195.38" width="182.37" height="49.21"></rect><rect class="cls-3" x="56.39" y="186.61" width="187.88" height="3.53"></rect><path d="M52.63,242h-.05c-.13,0-1.29-.28-1.79-2.38C28.44,145.4,50.17,61.34,52.72,52.06l0-.1a4.77,4.77,0,0,1,3.35-3.54l.07,0h.07c.05,0,4.7.14,6.83.14a1.66,1.66,0,0,1,1.62.76,2.65,2.65,0,0,1-.39,2.36C47.16,96,51.23,182.22,51.31,183,55.2,222.8,59,233.69,59,233.79l0,.1V242Z"></path><path d="M56.21,49s4.68.13,6.85.13.69,2.25.69,2.25c-16.59,42.85-13.49,127.1-13,131.67C54.66,223.47,58.46,234,58.46,234v7.4H52.68s-.88-.14-1.3-1.91C28.2,141.75,52.6,54.76,53.33,52.12A4.2,4.2,0,0,1,56.21,49M56.1,47.8l-.14,0a5.4,5.4,0,0,0-3.8,4l0,.1c-2.55,9.29-24.31,93.5-1.93,187.86.57,2.43,2,2.79,2.28,2.84h7.19v-8.82l-.07-.2c0-.1-3.81-11-7.69-50.65-.15-1.57-1.15-23.26.14-51.3,2-43.65,8.05-67.43,12.78-79.71A3.09,3.09,0,0,0,65.21,49a2.22,2.22,0,0,0-2.15-1.09c-2.12,0-6.76-.13-6.81-.13Z"></path><path d="M241.28,243.21v-8.1l0-.1c0-.11,3.79-11,7.65-50.8.53-5.52,1.61-87.36-12.84-132a1.87,1.87,0,0,1-.44-1.79c.23-.51.79-.76,1.67-.76h6.88a4.77,4.77,0,0,1,3.31,3.54l0,.11c2.53,9.27,24,93.35,1.91,187.55-.49,2.1-1.64,2.35-1.77,2.38h-6.42Z"></path><path d="M237.35,50.21h6.75A4.19,4.19,0,0,1,247,53.33c.71,2.64,24.88,89.63,1.93,187.37-.41,1.77-1.29,1.91-1.29,1.91h-5.72v-7.4s3.76-10.53,7.67-50.94c.45-4.57,1.77-87.18-12.89-132.39,0,0-1.46-1.67.69-1.67m0-1.19a2.17,2.17,0,0,0-2.22,1.12,2.34,2.34,0,0,0,.46,2.32c14.38,44.6,13.31,126.19,12.77,131.7-3.84,39.64-7.58,50.54-7.61,50.65l-.07.19v8.81h7.12c.28-.05,1.69-.41,2.26-2.83,22.16-94.35.61-178.56-1.92-187.85l0-.1a5.37,5.37,0,0,0-3.77-4l-.12,0h-6.88Z"></path><path class="cls-4" d="M63.45,60.25H238.61s-.55-8-3.25-8.21c-6.81-.38-172.25,0-172.25,0s-1.7-.62-2.24,3.17S59.9,60.11,63.45,60.25Z"></path><path class="cls-5" d="M56.49,185l-.39,5.12,2.16,5,2.06,49.15,181,.3V195.73l2.93-5.22L244,183.8S57.22,184.28,56.49,185Z"></path><polyline class="cls-6" points="116.83 204.85 116.83 200.14 184.52 200.14 184.52 204.85"></polyline><polyline class="cls-6" points="116.83 211.81 116.83 207.1 184.52 207.1 184.52 211.81"></polyline><polyline class="cls-6" points="116.83 218.77 116.83 214.06 184.52 214.06 184.52 218.77"></polyline><polyline class="cls-6" points="116.83 225.43 116.83 220.72 184.52 220.72 184.52 225.43"></polyline><polyline class="cls-6" points="116.83 232.09 116.83 227.38 184.52 227.38 184.52 232.09"></polyline><polyline class="cls-6" points="116.83 239.05 116.83 234.34 184.52 234.34 184.52 239.05"></polyline><line class="cls-7" x1="241.33" y1="195.14" x2="58.26" y2="195.14"></line><rect x="54.39" y="144.19" width="191.03" height="2.48"></rect><rect x="55.34" y="109.72" width="189.08" height="2.44"></rect><polyline class="cls-8" points="55.16 190.63 58.96 195.38 240.69 195.55 244.28 190.14 56.1 190.14"></polyline></svg> 