<?xml version="1.0" encoding="UTF-8"?> <svg xmlns="http://www.w3.org/2000/svg" id="Layer_1" data-name="Layer 1" viewBox="0 0 524.15 252.53"><defs><style>.cls-1,.cls-3{fill:#fff;}.cls-2,.cls-5{fill:#005389;}.cls-2,.cls-3,.cls-6{fill-rule:evenodd;}.cls-4,.cls-6{fill:#939598;}.cls-7{fill:#0082ca;}</style></defs><ellipse class="cls-1" cx="446.22" cy="103.73" rx="72.7" ry="71.85"></ellipse><path class="cls-2" d="M447,35.54c45.14-.36,67.78,42,67.08,62.64,0,.38.57.7.42.7H493.54c-1-24.7-25.11-43.95-46.28-43.5a49.49,49.49,0,0,0-48.72,43.5H378.29c-.15,0-.34-.32-.27-.7,4.87-30.59,25.37-62.29,69-62.64"></path><path class="cls-3" d="M491.46,75.93l.86,1.69a4.82,4.82,0,0,0,.77,1.16,2.16,2.16,0,0,0,.77.5,2.78,2.78,0,0,0,1.3.06,5.4,5.4,0,0,0,1.62-.56,4.11,4.11,0,0,0,1.7-1.38,2.26,2.26,0,0,0,.39-1.44,4.37,4.37,0,0,0-.53-1.44l-.84-1.66ZM490,75.37l7.9-4,1.38,2.72a7.1,7.1,0,0,1,.61,1.47,3.05,3.05,0,0,1,0,1.44A3.65,3.65,0,0,1,499,78.6a6.08,6.08,0,0,1-1.72,1.26,5.9,5.9,0,0,1-1.7.6,4.14,4.14,0,0,1-1.43.05,3.05,3.05,0,0,1-1.08-.35,3.3,3.3,0,0,1-.88-.74,6.22,6.22,0,0,1-.78-1.2Zm-9.43-11.69,6.16-6.38,4.61,4.45-.72.76-3.77-3.64-1.89,2,3.53,3.41-.72.75-3.53-3.41-2.09,2.17,3.91,3.78-.73.75Zm-8.29-5.93,4.44-7.68,1,.59-4.43,7.68Zm-13.49-5.48,2.6-8.48,5.72,1.75-.31,1-4.6-1.4-.8,2.62,4,1.22-.31,1-4-1.22-1.17,3.85Zm-10.14-1.21.62-8.84,1.17.08-.62,8.84Zm-12.3.9-1.22-7.72-2.89.46-.16-1,6.94-1.1.16,1-2.9.46,1.22,7.72ZM418.51,53.4l2.22-1.18a3.7,3.7,0,0,0,1-.74,1.28,1.28,0,0,0,.36-.79,1.41,1.41,0,0,0-.16-.81,1.31,1.31,0,0,0-.89-.7,2.13,2.13,0,0,0-1.47.32l-2.47,1.31Zm1.28,4.93-4.16-7.83,3.47-1.85a5.23,5.23,0,0,1,1.7-.63,2,2,0,0,1,1.27.28,2.44,2.44,0,0,1,.95,1,2.19,2.19,0,0,1,.21,1.69A3.08,3.08,0,0,1,422,52.61a3.26,3.26,0,0,1,.83.06,6.35,6.35,0,0,1,1.42.58l2.49,1.41-1.3.69-1.9-1.08c-.55-.3-1-.53-1.32-.68a2.9,2.9,0,0,0-.81-.24,1.83,1.83,0,0,0-.58,0,4.13,4.13,0,0,0-.6.27l-1.2.64,1.85,3.48ZM408.21,68l-6.16-6.37,4.61-4.46.73.76-3.77,3.63,1.89,2L409,60.12l.72.75-3.53,3.4,2.1,2.17,3.91-3.78.73.76Zm-8.07,6.53.8-.91a4,4,0,0,1,1.36,2.18,3.69,3.69,0,0,1-.39,2.44,4.2,4.2,0,0,1-1.58,1.81,3.56,3.56,0,0,1-2.12.45,6.14,6.14,0,0,1-2.33-.66A5.19,5.19,0,0,1,394,78.28a3.64,3.64,0,0,1-.72-2,4.5,4.5,0,0,1,.5-2.16,3.7,3.7,0,0,1,1.62-1.69,3.54,3.54,0,0,1,2.27-.26l-.28,1.16a2.77,2.77,0,0,0-1.66.15,2.36,2.36,0,0,0-1.06,1.12,2.79,2.79,0,0,0-.34,1.74,2.55,2.55,0,0,0,.73,1.46,5.6,5.6,0,0,0,1.39,1,5.46,5.46,0,0,0,1.91.6,2.44,2.44,0,0,0,1.59-.34A2.93,2.93,0,0,0,401,77.88a2.59,2.59,0,0,0,.25-1.75,2.91,2.91,0,0,0-1.09-1.59"></path><path class="cls-2" d="M445.53,171.41c-45.14.36-67.78-42-67.08-62.64,0-.38-.57-.69-.42-.69h21c1,24.69,25.11,43.94,46.28,43.49A49.49,49.49,0,0,0,494,108.08h20.25c.15,0,.34.31.28.69-4.87,30.59-25.38,62.29-69,62.64"></path><rect class="cls-4" x="378.03" y="102.17" width="20.52" height="2.96"></rect><rect class="cls-4" x="494.22" y="102.17" width="20.52" height="2.96"></rect><path class="cls-3" d="M499.92,133.19l-8.33-3,.6-1.66,6.62.18,1.38.05c-.27-.2-.66-.51-1.18-.93l-5.07-4.1.55-1.49,8.33,3-.39,1.07-7-2.54,6.1,5-.37,1-8-.17,7.09,2.58ZM496,140.38l-7.75-4.3,3.11-5.61.91.51-2.54,4.58,2.38,1.31,2.37-4.28.91.5-2.37,4.29,2.64,1.46,2.63-4.76.92.51Zm-3.51,4.73-6.24-4.71-1.76,2.34-.83-.64,4.23-5.61.83.63L487,139.47l6.24,4.7ZM482.94,151l.71-.85a2.57,2.57,0,0,0,1,.52,2.07,2.07,0,0,0,1.12-.15,3.36,3.36,0,0,0,1.15-.78,3.21,3.21,0,0,0,.7-1,1.6,1.6,0,0,0,.15-.93,1.3,1.3,0,0,0-.36-.72,1.17,1.17,0,0,0-.68-.34,1.83,1.83,0,0,0-.94.19c-.23.11-.71.38-1.42.82a8.62,8.62,0,0,1-1.6.82,2.48,2.48,0,0,1-1.25.08,2,2,0,0,1-1-.56,2.32,2.32,0,0,1-.45-2.57,4.13,4.13,0,0,1,.93-1.36,4.47,4.47,0,0,1,1.46-1A2.55,2.55,0,0,1,484,143a2.7,2.7,0,0,1,1.29.68l-.73.86a1.83,1.83,0,0,0-1.34-.47,2.44,2.44,0,0,0-1.39.79,2.5,2.5,0,0,0-.82,1.38,1.13,1.13,0,0,0,.32,1,1,1,0,0,0,.8.32,4.94,4.94,0,0,0,1.7-.81,12.17,12.17,0,0,1,1.78-1,2.82,2.82,0,0,1,1.45-.17,2.21,2.21,0,0,1,1.15.64,2.39,2.39,0,0,1,.66,1.23,2.74,2.74,0,0,1-.13,1.51,4.15,4.15,0,0,1-1,1.45,5,5,0,0,1-1.67,1.18,2.85,2.85,0,0,1-1.65.16,3,3,0,0,1-1.47-.79m-2.4,5.16-2.26-3-5.8-2,1.14-.86,3,1.08c.56.21,1.1.43,1.63.66-.07-.53-.13-1.14-.17-1.84l-.2-3.11,1.09-.82.25,6.21,2.26,3Zm-11,3,.93-.61a2.41,2.41,0,0,0,.83.8,2.07,2.07,0,0,0,1.11.19,3.66,3.66,0,0,0,2.28-1.14,1.67,1.67,0,0,0,.42-.84,1.32,1.32,0,0,0-.13-.79,1.19,1.19,0,0,0-.56-.53,1.76,1.76,0,0,0-.95-.09,15.21,15.21,0,0,0-1.6.36,8.1,8.1,0,0,1-1.77.32,2.42,2.42,0,0,1-1.22-.29,2,2,0,0,1-.79-.83,2.24,2.24,0,0,1-.26-1.28,2.3,2.3,0,0,1,.57-1.31,4.65,4.65,0,0,1,3-1.56,2.39,2.39,0,0,1,1.46.28,2.61,2.61,0,0,1,1,1l-.95.6a1.8,1.8,0,0,0-1.14-.82,2.32,2.32,0,0,0-1.57.34A2.54,2.54,0,0,0,469,154a1.16,1.16,0,0,0,0,1.06,1,1,0,0,0,.67.53,4.51,4.51,0,0,0,1.86-.27,11.87,11.87,0,0,1,2-.42,2.68,2.68,0,0,1,1.43.26,2.26,2.26,0,0,1,.92.94,2.45,2.45,0,0,1,.27,1.37,2.78,2.78,0,0,1-.58,1.41,3.87,3.87,0,0,1-1.34,1.1,5.12,5.12,0,0,1-1.94.64,2.84,2.84,0,0,1-1.63-.33,3,3,0,0,1-1.17-1.18m-14.63,7-1.23-7.72-2.88.45-.17-1,6.94-1.1.17,1-2.9.45,1.22,7.73Zm-11.18.72-.31-8.87,1.2,0,4.9,6.79-.24-7,1.12,0,.31,8.86-1.2,0-4.9-6.8.24,7Zm-8.23-1,1.08-8.8,6.36.78-.13,1-5.19-.64L437.3,161l4.86.6-.12,1-4.87-.6-.37,3,5.4.66-.12,1Zm-10-2.61,2.29-8.57,1.71.46.4,6.61c0,.61.06,1.07.07,1.38.18-.29.46-.71.83-1.26l3.64-5.4,1.53.4-2.3,8.57-1.09-.29,1.92-7.17-4.41,6.5-1-.28-.53-7.95-1.95,7.29Zm-8-3.65,3.89-8,5.76,2.81-.46.94-4.71-2.3-1.19,2.45,4.41,2.15-.46.93-4.4-2.15L419,159.19l4.89,2.39-.45.94Zm-2.73-5.78.58-.87,3.12,2.1-1.84,2.73a6.6,6.6,0,0,1-2.06-.14,5.34,5.34,0,0,1-1.76-.77,5,5,0,0,1-1.65-1.79,3.66,3.66,0,0,1-.44-2.24,5.2,5.2,0,0,1,.88-2.27,5.38,5.38,0,0,1,1.8-1.69,3.51,3.51,0,0,1,2.22-.52,4.94,4.94,0,0,1,2.24.86,4.67,4.67,0,0,1,1.27,1.23,3,3,0,0,1,.53,1.4,3.93,3.93,0,0,1-.26,1.58l-1-.35a3.62,3.62,0,0,0,.19-1.16,2.07,2.07,0,0,0-.36-1,3.17,3.17,0,0,0-.88-.87,3.82,3.82,0,0,0-1.29-.58,2.61,2.61,0,0,0-1.15,0,2.88,2.88,0,0,0-.95.41,4.76,4.76,0,0,0-1.28,1.29,4.36,4.36,0,0,0-.77,1.87,2.6,2.6,0,0,0,.32,1.65,3.65,3.65,0,0,0,1.16,1.25,4.05,4.05,0,0,0,1.4.59,3.61,3.61,0,0,0,1.26.09l.92-1.37Zm-8-6.55,2.24,2,1-2.45c.29-.74.54-1.33.76-1.78a10.68,10.68,0,0,1-1.49.93Zm-4.33,1,8.46-4.31.94.85-3.24,9-1-.89,1-2.69-2.76-2.48-2.52,1.34ZM397.5,142l7-5.46.74.95-2.62,7.95,5.49-4.28.69.88-7,5.46-.74-.95,2.63-8-5.49,4.29Zm-.21-7.6,1.46,2.63,1.69-2c.52-.61.95-1.09,1.31-1.44a11,11,0,0,1-1.72.4Zm-4.43-.47,9.41-1.32.61,1.11-6,7.47-.65-1.17,1.85-2.21-1.8-3.24-2.82.45Zm-3.3-8.78,8.33-3,.6,1.67-5.18,4.11c-.48.39-.84.67-1.09.85l1.5,0,6.52-.12.54,1.49-8.33,3-.38-1.06,7-2.54-7.86.11-.36-1,6.22-5L390,126.19Z"></path><rect class="cls-5" x="403.45" y="88.26" width="85.56" height="2.91"></rect><rect class="cls-4" x="403.58" y="118.87" width="85.25" height="2.26"></rect><rect class="cls-4" x="409.26" y="95.39" width="4.26" height="18.26"></rect><path class="cls-6" d="M438.7,95.39h4.05l9.65,10.76V95.39h4.43v18.26h-3.74l-1.92-2.17-2.62-3-3.33-3.77c-1.35-1.53-2-2.31-2.07-2.34v11.27H438.7Z"></path><path class="cls-6" d="M478.44,95.3H479v4.35h4.84v3H479v4.81a10,10,0,0,0,.11,1.6,1.72,1.72,0,0,0,1.91,1.52,3.42,3.42,0,0,0,1.13-.16c.31-.1.87-.32,1.69-.66v3.15l-1.32.44a8.87,8.87,0,0,1-1.13.29,8.15,8.15,0,0,1-1.41.11,5,5,0,0,1-3.86-1.41,5.74,5.74,0,0,1-1.28-4v-5.67h-2v-.81Z"></path><path class="cls-6" d="M465.85,101.84a2.72,2.72,0,0,0-2,.86,3.7,3.7,0,0,0-1,2.17h6a3.56,3.56,0,0,0-.93-2.16,2.74,2.74,0,0,0-2.1-.87m-.27-2.67a7.52,7.52,0,0,1,3.5.74,5.89,5.89,0,0,1,2.21,1.94,7.79,7.79,0,0,1,1.12,2.58,12.15,12.15,0,0,1,.32,2.75h-9.94a4,4,0,0,0,1.35,2.86,4.86,4.86,0,0,0,3.21,1,8.44,8.44,0,0,0,5.14-1.91v2.8a10.84,10.84,0,0,1-6.52,1.85,8.82,8.82,0,0,1-4-.88,6.54,6.54,0,0,1-2.72-2.54,8.08,8.08,0,0,1,0-7.66,6.77,6.77,0,0,1,2.64-2.59,7.59,7.59,0,0,1,3.69-.91"></path><polygon class="cls-2" points="434.29 102.51 434.82 103.95 436.21 103.95 435.1 104.79 435.55 106.14 434.29 105.32 433.06 106.14 433.52 104.79 432.38 103.95 433.8 103.95 434.29 102.51"></polygon><polygon class="cls-2" points="433.36 106.56 433.87 107.96 435.25 107.96 434.14 108.8 434.59 110.14 433.36 109.33 432.11 110.14 432.57 108.8 431.44 107.96 432.84 107.96 433.36 106.56"></polygon><polygon class="cls-2" points="430.2 109.64 430.75 111.08 432.11 111.08 430.97 111.92 431.43 113.26 430.2 112.46 428.95 113.26 429.4 111.92 428.29 111.08 429.67 111.08 430.2 109.64"></polygon><polygon class="cls-2" points="427.44 105.92 427.92 107.31 429.35 107.31 428.21 108.15 428.64 109.49 427.44 108.68 426.15 109.49 426.61 108.15 425.51 107.31 426.89 107.31 427.44 105.92"></polygon><polygon class="cls-2" points="432.73 113.1 433.2 114.55 434.63 114.55 433.51 115.42 433.92 116.76 432.73 115.94 431.44 116.76 431.9 115.42 430.81 114.55 432.18 114.55 432.73 113.1"></polygon><polygon class="cls-2" points="425.73 111.07 426.28 112.56 427.65 112.56 426.55 113.35 426.97 114.75 425.73 113.93 424.52 114.75 424.94 113.35 423.82 112.56 425.21 112.56 425.73 111.07"></polygon><polygon class="cls-2" points="421.64 109.66 422.12 111.15 423.52 111.15 422.42 111.98 422.86 113.32 421.64 112.52 420.36 113.32 420.83 111.98 419.73 111.15 421.1 111.15 421.64 109.66"></polygon><polygon class="cls-2" points="418.53 106.62 419.08 108.07 420.45 108.07 419.36 108.9 419.82 110.26 418.53 109.43 417.33 110.26 417.74 108.9 416.62 108.07 418.06 108.07 418.53 106.62"></polygon><polygon class="cls-2" points="417.58 102.45 418.1 103.91 419.49 103.91 418.41 104.72 418.81 106.08 417.58 105.3 416.33 106.08 416.76 104.72 415.67 103.91 417.07 103.91 417.58 102.45"></polygon><polygon class="cls-2" points="418.73 98.34 419.23 99.75 420.65 99.75 419.51 100.62 419.96 101.97 418.73 101.19 417.48 101.97 417.91 100.62 416.82 99.75 418.21 99.75 418.73 98.34"></polygon><polygon class="cls-2" points="421.61 95.19 422.13 96.62 423.53 96.62 422.43 97.46 422.82 98.81 421.61 97.99 420.38 98.81 420.79 97.46 419.7 96.62 421.11 96.62 421.61 95.19"></polygon><polygon class="cls-2" points="425.92 94.17 426.48 95.58 427.84 95.58 426.75 96.46 427.16 97.8 425.92 96.98 424.71 97.8 425.13 96.46 424.02 95.58 425.4 95.58 425.92 94.17"></polygon><polygon class="cls-2" points="430.41 95.06 430.91 96.49 432.31 96.49 431.19 97.33 431.64 98.68 430.41 97.86 429.16 98.68 429.61 97.33 428.51 96.49 429.89 96.49 430.41 95.06"></polygon><polygon class="cls-2" points="433 98.28 433.52 99.69 434.92 99.69 433.8 100.56 434.2 101.9 433 101.08 431.77 101.9 432.17 100.56 431.08 99.69 432.44 99.69 433 98.28"></polygon><path class="cls-7" d="M214.23,201.31A22.32,22.32,0,0,1,191.94,179V29.33A22.32,22.32,0,0,1,214.23,7H302a22.32,22.32,0,0,1,22.29,22.3V179A22.32,22.32,0,0,1,302,201.31Zm-16-22.29a16,16,0,0,0,16,16H302a16,16,0,0,0,16-16V127.77a117.78,117.78,0,0,1-119.82-.09Z"></path><path class="cls-1" d="M302,8.6a20.72,20.72,0,0,1,20.72,20.73V179A20.71,20.71,0,0,1,302,199.74H214.23A20.71,20.71,0,0,1,193.51,179V29.33A20.72,20.72,0,0,1,214.23,8.6H302m-87.78,188H302A17.61,17.61,0,0,0,319.6,179V125a116.21,116.21,0,0,1-123-.09V179a17.6,17.6,0,0,0,17.59,17.59M302,5.46H214.23a23.89,23.89,0,0,0-23.85,23.87V179a23.88,23.88,0,0,0,23.85,23.86H302A23.88,23.88,0,0,0,325.86,179V29.33A23.89,23.89,0,0,0,302,5.46m-87.78,188A14.47,14.47,0,0,1,199.78,179V130.39a119.32,119.32,0,0,0,116.68.09V179A14.47,14.47,0,0,1,302,193.48Z"></path><path class="cls-1" d="M319.6,125v54A17.61,17.61,0,0,1,302,196.61H214.23A17.6,17.6,0,0,1,196.64,179V124.88a116.18,116.18,0,0,0,123,.1"></path><path class="cls-1" d="M258.13,66.68a10,10,0,1,1,10-10,10,10,0,0,1-10,10m0-16.26a6.28,6.28,0,1,0,6.28,6.29,6.29,6.29,0,0,0-6.28-6.29"></path><path class="cls-1" d="M239.84,72.41a24.07,24.07,0,0,1-2-28.72l-3-2.23A27.77,27.77,0,0,0,237.22,75Z"></path><path class="cls-1" d="M237.22,38.37,239.84,41a23.91,23.91,0,0,1,2.61-2.62l-2.62-2.61a28,28,0,0,0-2.61,2.61"></path><path class="cls-1" d="M258.22,28.83a27.61,27.61,0,0,0-15.3,4.58l2.23,3a24.14,24.14,0,0,1,29.69,2.8l3.23-2a27.56,27.56,0,0,0-19.85-8.33"></path><path class="cls-1" d="M269.32,67.05a15.2,15.2,0,1,1-2.55-22.9l3.37-2.08a18.89,18.89,0,1,0,2.19,27.15Z"></path><path class="cls-1" d="M271.64,76.79A24.13,24.13,0,0,1,242.45,75l-2.62,2.61a27.8,27.8,0,0,0,34.1,2Z"></path><path class="cls-1" d="M280.56,40l-10.8,6.68a16.9,16.9,0,0,1,3.64,10.07,15.12,15.12,0,0,1-1.91,7.35l3,2.17a18.88,18.88,0,0,0,.38-18.41l4.5-2.79a24.19,24.19,0,0,1-4.84,29.47l2.3,2.9a27.78,27.78,0,0,0,9.23-20.68A28.91,28.91,0,0,0,280.56,40"></path><path class="cls-1" d="M238.32,98.42a7.8,7.8,0,1,0,7.82,7.8,7.82,7.82,0,0,0-7.82-7.8m0,12.39a4.6,4.6,0,1,1,4.62-4.59,4.62,4.62,0,0,1-4.62,4.59"></path><path class="cls-1" d="M212.14,113.52h-3.27V100.2h3.27Zm-1.63-15a2,2,0,1,1,2-2,2,2,0,0,1-2,2"></path><path class="cls-1" d="M256.59,98.38a7.81,7.81,0,0,0-7.83,7.79v7.49h3.45v-7.74a4.37,4.37,0,0,1,8.74-.08v7.82h3.45v-7.49a7.82,7.82,0,0,0-7.82-7.8"></path><path class="cls-1" d="M274.91,111.07h0s-.51,0-.71,0c-1.4,0-2.07-.35-2.07-2.34v-7.63h2.92V98.6h-2.91v-3H268.7v3h-2v2.53h2v7.16a8,8,0,0,0,.73,3.76,4,4,0,0,0,3.8,2,9.45,9.45,0,0,0,1.69-.17Z"></path><path class="cls-1" d="M223,114a7.84,7.84,0,1,1,5.72-13.22l-2.09,2.59a4.74,4.74,0,0,0-3.62-1.77,4.56,4.56,0,1,0,0,9.12,4.68,4.68,0,0,0,3.66-1.8l2.1,2.58A7.92,7.92,0,0,1,223,114"></path><path class="cls-1" d="M302.1,114a7.84,7.84,0,1,1,5.72-13.22l-2.09,2.59a4.74,4.74,0,0,0-3.62-1.77,4.56,4.56,0,1,0,0,9.12,4.68,4.68,0,0,0,3.65-1.8l2.1,2.58a7.92,7.92,0,0,1-5.76,2.5"></path><path class="cls-1" d="M284.52,98.3c-4.59,0-7.34,3.8-7.34,7.92A7.47,7.47,0,0,0,285,114a7.2,7.2,0,0,0,6.4-3.46L289,108.82a4.66,4.66,0,0,1-4,2.13,4.17,4.17,0,0,1-4.47-3.83h11.14s.06-.72.06-1c0-3.37-1.68-7.85-7.25-7.85m-3.82,6.28a3.76,3.76,0,0,1,3.84-3.29,3.53,3.53,0,0,1,3.74,3.29Z"></path><rect class="cls-7" x="214.36" y="159.55" width="2.77" height="14.61"></rect><path class="cls-7" d="M220,173.2l.63-2.26a9.93,9.93,0,0,0,1.8.72,6.31,6.31,0,0,0,1.85.32,3.84,3.84,0,0,0,2-.41,1.32,1.32,0,0,0,.66-1.18,1.26,1.26,0,0,0-.52-1,10.67,10.67,0,0,0-1.63-1l-.64-.39c-1-.58-1.72-1.07-2.29-1.48a6.61,6.61,0,0,1-1.46-1.48,3.15,3.15,0,0,1-.61-1.9,3.54,3.54,0,0,1,.6-2,3.91,3.91,0,0,1,1.73-1.39,6.5,6.5,0,0,1,2.7-.51,9.53,9.53,0,0,1,4.12,1.1l-.92,2.23a13.58,13.58,0,0,0-1.6-.67,5.25,5.25,0,0,0-1.56-.23,3.08,3.08,0,0,0-1.58.37,1.23,1.23,0,0,0-.61,1.11,1.32,1.32,0,0,0,.48,1,11.19,11.19,0,0,0,1.58,1.07l.69.38.62.37a23.37,23.37,0,0,1,2,1.28,5,5,0,0,1,1.26,1.33,3.38,3.38,0,0,1,.5,1.84,3.53,3.53,0,0,1-.63,2.08,4.3,4.3,0,0,1-1.87,1.42,7.76,7.76,0,0,1-3,.52,8.36,8.36,0,0,1-2.24-.4,9.1,9.1,0,0,1-2.08-.85"></path><path class="cls-7" d="M238.19,159.21a7.18,7.18,0,0,1,3.84,1,6.54,6.54,0,0,1,2.49,2.72,8.64,8.64,0,0,1,.84,3.85,8.47,8.47,0,0,1-.9,4,6.79,6.79,0,0,1-2.52,2.71,7.47,7.47,0,0,1-3.75,1,7.22,7.22,0,0,1-3.84-1,6.59,6.59,0,0,1-2.47-2.71,8.47,8.47,0,0,1-.85-3.84,8.6,8.6,0,0,1,.89-3.95,6.73,6.73,0,0,1,2.53-2.73,7.37,7.37,0,0,1,3.74-1m-4.26,7.69a6.67,6.67,0,0,0,.52,2.72,4.14,4.14,0,0,0,1.47,1.85,3.84,3.84,0,0,0,2.24.66,4.12,4.12,0,0,0,2.19-.6,4,4,0,0,0,1.54-1.8,6.93,6.93,0,0,0,.57-2.95,6.72,6.72,0,0,0-.51-2.69,4.34,4.34,0,0,0-1.48-1.85,3.89,3.89,0,0,0-2.24-.67,3.73,3.73,0,0,0-2.14.66,4.62,4.62,0,0,0-1.57,1.87,6.37,6.37,0,0,0-.59,2.8"></path><polygon class="cls-7" points="254.67 174.17 254.67 165.1 252.22 166.04 251.17 163.96 255.59 162 257.46 162 257.46 174.17 254.67 174.17"></polygon><path class="cls-7" d="M270.18,172.9h-2v2.75h-2.82V172.9h-5.95l-.37-2.3,7.05-8.7h2.09v8.7h2.25Zm-8.1-2.3h3.31v-4.23Z"></path><path class="cls-7" d="M271.43,168a6.8,6.8,0,0,1,.77-3.24,5.75,5.75,0,0,1,2.14-2.26,6.21,6.21,0,0,1,6.15,0,5.54,5.54,0,0,1,2.12,2.25,6.75,6.75,0,0,1,.77,3.22,7,7,0,0,1-.78,3.32,5.74,5.74,0,0,1-5.2,3.13,5.76,5.76,0,0,1-5.2-3.12,7,7,0,0,1-.77-3.29M274,168a4.74,4.74,0,0,0,.44,2.09,3.45,3.45,0,0,0,1.22,1.46,3,3,0,0,0,1.77.53,3.2,3.2,0,0,0,1.78-.51,3.53,3.53,0,0,0,1.22-1.42,4.5,4.5,0,0,0,.44-2,4.62,4.62,0,0,0-.45-2.06,3.59,3.59,0,0,0-1.23-1.43,3.34,3.34,0,0,0-3.53,0,3.44,3.44,0,0,0-1.22,1.39,4.33,4.33,0,0,0-.44,2"></path><path class="cls-7" d="M284.45,168a6.69,6.69,0,0,1,.78-3.24,5.66,5.66,0,0,1,2.13-2.26,6,6,0,0,1,3.09-.82,5.88,5.88,0,0,1,3.06.81,5.63,5.63,0,0,1,2.13,2.25,6.74,6.74,0,0,1,.76,3.22,7.1,7.1,0,0,1-.77,3.32,5.95,5.95,0,0,1-8.27,2.3,5.68,5.68,0,0,1-2.13-2.29,6.86,6.86,0,0,1-.78-3.29M287,168a4.89,4.89,0,0,0,.44,2.09,3.4,3.4,0,0,0,1.23,1.46,3,3,0,0,0,1.77.53,3.16,3.16,0,0,0,1.77-.51,3.63,3.63,0,0,0,1.23-1.42,4.63,4.63,0,0,0,.44-2,4.49,4.49,0,0,0-.46-2.06,3.59,3.59,0,0,0-1.23-1.43,3.32,3.32,0,0,0-3.52,0,3.39,3.39,0,0,0-1.23,1.39,4.46,4.46,0,0,0-.44,2"></path><polygon class="cls-7" points="300.65 174.17 300.65 165.1 298.2 166.04 297.15 163.96 301.58 162 303.45 162 303.45 174.17 300.65 174.17"></polygon><path class="cls-1" d="M197.58,241.19l1.54-.16a4.61,4.61,0,0,0,.56,1.94,3.15,3.15,0,0,0,1.25,1.11,3.92,3.92,0,0,0,1.83.43,3.29,3.29,0,0,0,2.27-.72,2.34,2.34,0,0,0,.81-1.85,2.2,2.2,0,0,0-.3-1.16,2.12,2.12,0,0,0-.88-.82,17,17,0,0,0-2.56-.9,9.08,9.08,0,0,1-2.48-1,3.71,3.71,0,0,1-1.16-1.33,4.33,4.33,0,0,1,.78-4.82,4.31,4.31,0,0,1,3.18-1.16,5.1,5.1,0,0,1,2.41.54,4,4,0,0,1,1.61,1.56,5.2,5.2,0,0,1,.61,2.4l-1.57.14a3.32,3.32,0,0,0-.88-2.18,3,3,0,0,0-2.13-.7,3.13,3.13,0,0,0-2.11.62,2,2,0,0,0-.73,1.61,1.85,1.85,0,0,0,.53,1.41,6.42,6.42,0,0,0,2.41,1,16.23,16.23,0,0,1,2.57.87,4,4,0,0,1,2.28,3.77,4.6,4.6,0,0,1-.61,2.35,4,4,0,0,1-1.65,1.62,5.26,5.26,0,0,1-2.51.55,4.91,4.91,0,0,1-3.66-1.37A5.33,5.33,0,0,1,197.58,241.19Z"></path><path class="cls-1" d="M208.29,246.05,213.06,231h1.75l5.06,15.08H218l-1.44-4.57h-5.2L210,246.05Zm3.55-6.19h4.21l-1.28-4.18c-.4-1.28-.69-2.32-.88-3.12a23,23,0,0,1-.67,2.88Z"></path><path class="cls-1" d="M220.37,241.52v-1.86H225v1.86Z"></path><path class="cls-1" d="M235.68,240.76l1.65.51a7,7,0,0,1-1.91,3.79,4.73,4.73,0,0,1-3.31,1.24,5.11,5.11,0,0,1-2.94-.83,5.92,5.92,0,0,1-2-2.69,11.27,11.27,0,0,1-.78-4.38,10.18,10.18,0,0,1,.78-4.21,5.87,5.87,0,0,1,2.1-2.6,5.23,5.23,0,0,1,3-.88,4.53,4.53,0,0,1,3.07,1.11,6,6,0,0,1,1.8,3.27l-1.6.46q-.83-3.13-3.3-3.14a3.69,3.69,0,0,0-2.15.64,4.28,4.28,0,0,0-1.44,2,9.1,9.1,0,0,0-.54,3.38,8.06,8.06,0,0,0,1.09,4.65,3.38,3.38,0,0,0,2.9,1.55,3.17,3.17,0,0,0,2.3-.95A5.16,5.16,0,0,0,235.68,240.76Z"></path><path class="cls-1" d="M239.41,246.05V231h8.93v1.78H241v4.61h6.84v1.78H241v5.13h7.59v1.78Z"></path><path class="cls-1" d="M250.88,246.05V231h5.48a5.59,5.59,0,0,1,2.53.43,3.16,3.16,0,0,1,1.35,1.4,4.72,4.72,0,0,1,.52,2.27,4.19,4.19,0,0,1-.89,2.77,4.13,4.13,0,0,1-2.58,1.34,4.5,4.5,0,0,1,1,.84,10.74,10.74,0,0,1,1.29,1.92l2.16,4.11h-2.06l-1.65-3.14a19.2,19.2,0,0,0-1.44-2.47,2.71,2.71,0,0,0-.95-.86,2.91,2.91,0,0,0-1.27-.23h-1.89v6.7Zm1.64-8.42H256a4.39,4.39,0,0,0,1.75-.28,2.21,2.21,0,0,0,1-.87,2.73,2.73,0,0,0,.34-1.39,2.43,2.43,0,0,0-.66-1.8,2.77,2.77,0,0,0-2-.65h-3.9Z"></path><path class="cls-1" d="M262.81,233v-1.78h8v1.44a22.3,22.3,0,0,0-3.15,6,25.32,25.32,0,0,0-1.56,7.39h-1.56a23.47,23.47,0,0,1,.6-4.41,27,27,0,0,1,1.57-4.8,21.22,21.22,0,0,1,2.14-3.89Z"></path><path class="cls-1" d="M272.31,242.06l1.51-.25q.46,3,2.4,3a2.31,2.31,0,0,0,1.8-.88,3.34,3.34,0,0,0,.76-2.28,3.14,3.14,0,0,0-.69-2.12,2.18,2.18,0,0,0-1.72-.8,3.46,3.46,0,0,0-1.07.2l.17-1.62.24,0a2.51,2.51,0,0,0,1.83-.69,2.45,2.45,0,0,0,.7-1.84,2.4,2.4,0,0,0-.59-1.69,1.87,1.87,0,0,0-1.43-.65,1.92,1.92,0,0,0-1.48.68,3.69,3.69,0,0,0-.77,2l-1.51-.33a5,5,0,0,1,1.3-2.92,3.34,3.34,0,0,1,2.43-1,3.38,3.38,0,0,1,2.55,1.11,3.91,3.91,0,0,1,1.05,2.8,3.74,3.74,0,0,1-.44,1.82,3.28,3.28,0,0,1-1.24,1.24,2.72,2.72,0,0,1,1.21.68,3.39,3.39,0,0,1,.78,1.26,5,5,0,0,1,.3,1.77,4.81,4.81,0,0,1-1.22,3.39,3.88,3.88,0,0,1-2.93,1.32,3.58,3.58,0,0,1-2.69-1.15A4.86,4.86,0,0,1,272.31,242.06Z"></path><path class="cls-1" d="M287.63,246.05h-1.52v-11.8a7.45,7.45,0,0,1-1.41,1.26,9,9,0,0,1-1.63,1V234.7a9.32,9.32,0,0,0,2.22-1.76,6.63,6.63,0,0,0,1.35-2h1Z"></path><path class="cls-1" d="M291.62,233v-1.78h8v1.44a22.58,22.58,0,0,0-3.14,6,25.32,25.32,0,0,0-1.56,7.39h-1.56a21.92,21.92,0,0,1,.6-4.41,26.19,26.19,0,0,1,1.57-4.8,21.22,21.22,0,0,1,2.14-3.89Z"></path><path class="cls-1" d="M306.83,246.05h-1.52v-11.8a7.45,7.45,0,0,1-1.41,1.26,9.31,9.31,0,0,1-1.62,1V234.7a9.47,9.47,0,0,0,2.21-1.76,6.68,6.68,0,0,0,1.36-2h1Z"></path><path class="cls-1" d="M318.58,234.66l-1.51.14a3.59,3.59,0,0,0-.63-1.65,1.85,1.85,0,0,0-1.46-.72,2.4,2.4,0,0,0-2.12,1.65,10.06,10.06,0,0,0-.7,4.19,4,4,0,0,1,1.31-1.49,3.06,3.06,0,0,1,1.68-.51,3.25,3.25,0,0,1,2.57,1.33,5.44,5.44,0,0,1,1.09,3.56,6.58,6.58,0,0,1-.55,2.74,4.25,4.25,0,0,1-1.41,1.82,3.32,3.32,0,0,1-1.9.58,3.67,3.67,0,0,1-3.09-1.68c-.81-1.13-1.21-3-1.21-5.63q0-4.37,1.24-6.22a3.71,3.71,0,0,1,3.18-1.86,3.18,3.18,0,0,1,2.36,1A4.54,4.54,0,0,1,318.58,234.66Zm-6.18,6.5a4.13,4.13,0,0,0,.77,2.63,2.23,2.23,0,0,0,1.79,1,2,2,0,0,0,1.59-.93,4.19,4.19,0,0,0,.71-2.57,3.9,3.9,0,0,0-.7-2.49,2.12,2.12,0,0,0-1.71-.89,2.2,2.2,0,0,0-1.72.88A3.6,3.6,0,0,0,312.4,241.16Z"></path><path class="cls-7" d="M28.41,199.77A22.31,22.31,0,0,1,6.13,177.48V27.79A22.31,22.31,0,0,1,28.41,5.49h87.78a22.32,22.32,0,0,1,22.29,22.3V177.48a22.32,22.32,0,0,1-22.29,22.29Zm-16-22.29a16,16,0,0,0,16,16h87.78a16,16,0,0,0,16-16V126.22a117.75,117.75,0,0,1-119.82-.08Z"></path><path class="cls-1" d="M116.19,7.06a20.72,20.72,0,0,1,20.72,20.73V177.48a20.71,20.71,0,0,1-20.72,20.72H28.41A20.72,20.72,0,0,1,7.69,177.48V27.79A20.73,20.73,0,0,1,28.41,7.06h87.78m-87.78,188h87.78a17.61,17.61,0,0,0,17.59-17.59v-54a116.16,116.16,0,0,1-122.95-.1v54.14a17.59,17.59,0,0,0,17.58,17.59M116.19,3.92H28.41A23.89,23.89,0,0,0,4.56,27.79V177.48a23.88,23.88,0,0,0,23.85,23.86h87.78A23.88,23.88,0,0,0,140,177.48V27.79A23.89,23.89,0,0,0,116.19,3.92m-87.78,188A14.47,14.47,0,0,1,14,177.48V128.85a119.34,119.34,0,0,0,116.69.09v48.54a14.48,14.48,0,0,1-14.46,14.46Z"></path><path class="cls-1" d="M133.78,123.44v54a17.61,17.61,0,0,1-17.59,17.59H28.41a17.59,17.59,0,0,1-17.58-17.59V123.34a116.16,116.16,0,0,0,123,.1"></path><rect class="cls-7" x="32.11" y="157.75" width="2.81" height="14.8"></rect><path class="cls-7" d="M37.79,171.57l.63-2.28a11.25,11.25,0,0,0,1.83.73,6.35,6.35,0,0,0,1.87.31,3.8,3.8,0,0,0,2-.41,1.32,1.32,0,0,0,.67-1.2,1.3,1.3,0,0,0-.53-1,10.28,10.28,0,0,0-1.64-1l-.66-.39c-1-.59-1.74-1.09-2.31-1.51a6.34,6.34,0,0,1-1.48-1.49,3.15,3.15,0,0,1-.62-1.92,3.59,3.59,0,0,1,.6-2,4,4,0,0,1,1.76-1.41,6.65,6.65,0,0,1,2.73-.51,9.68,9.68,0,0,1,4.18,1.11l-.94,2.26a12.65,12.65,0,0,0-1.62-.68,5,5,0,0,0-1.58-.24,3.08,3.08,0,0,0-1.6.38,1.26,1.26,0,0,0-.62,1.13,1.32,1.32,0,0,0,.49,1,12.5,12.5,0,0,0,1.6,1.08l.7.39.63.37a22.18,22.18,0,0,1,2,1.3,5,5,0,0,1,1.28,1.34,3.38,3.38,0,0,1,.51,1.87,3.65,3.65,0,0,1-.64,2.11,4.22,4.22,0,0,1-1.9,1.43,7.69,7.69,0,0,1-3,.52,8.16,8.16,0,0,1-2.27-.4,8.65,8.65,0,0,1-2.1-.86"></path><path class="cls-7" d="M56.24,157.41a7.29,7.29,0,0,1,3.9,1,6.54,6.54,0,0,1,2.51,2.75,8.73,8.73,0,0,1,.86,3.9,8.53,8.53,0,0,1-.91,4A6.77,6.77,0,0,1,60,171.82a7.54,7.54,0,0,1-3.8,1,7.2,7.2,0,0,1-3.88-1,6.58,6.58,0,0,1-2.51-2.74,9.24,9.24,0,0,1,0-7.89,6.79,6.79,0,0,1,2.55-2.76,7.39,7.39,0,0,1,3.79-1m-4.31,7.79a7,7,0,0,0,.52,2.75,4.2,4.2,0,0,0,1.5,1.87,3.92,3.92,0,0,0,2.27.67,4.19,4.19,0,0,0,2.21-.6A4.13,4.13,0,0,0,60,168.06a7.09,7.09,0,0,0,.57-3,6.67,6.67,0,0,0-.52-2.72,4.34,4.34,0,0,0-1.5-1.88,3.89,3.89,0,0,0-2.27-.67,3.82,3.82,0,0,0-2.16.66,4.69,4.69,0,0,0-1.59,1.9,6.35,6.35,0,0,0-.6,2.84"></path><path class="cls-7" d="M77.34,160.62a4.73,4.73,0,0,1,2,1.95,6.43,6.43,0,0,1,.72,3.15,6.83,6.83,0,0,1-1.33,4.19,9.73,9.73,0,0,1-3.28,2.84A11.13,11.13,0,0,1,71.56,174l-.39-2.33q4-1.11,5.49-3.22a5.1,5.1,0,0,1-4.62-.11,4.62,4.62,0,0,1-1.71-1.63,4.31,4.31,0,0,1-.62-2.26,4.54,4.54,0,0,1,.61-2.35,4.31,4.31,0,0,1,1.68-1.6,4.91,4.91,0,0,1,2.41-.58,6.15,6.15,0,0,1,2.93.67m-4.45,5.46a2.22,2.22,0,0,0,1.65.68,4.66,4.66,0,0,0,2.88-.89,4.11,4.11,0,0,0-.81-2.71,2.66,2.66,0,0,0-2.11-.88,2.26,2.26,0,0,0-1.61.61,1.94,1.94,0,0,0-.65,1.48,2.37,2.37,0,0,0,.65,1.71"></path><path class="cls-7" d="M81.14,166.35a6.89,6.89,0,0,1,.78-3.29,5.81,5.81,0,0,1,2.17-2.28,6.27,6.27,0,0,1,6.22,0A5.69,5.69,0,0,1,92.47,163a6.92,6.92,0,0,1,.77,3.27,7,7,0,0,1-.79,3.36,5.94,5.94,0,0,1-10.53,0,7.05,7.05,0,0,1-.78-3.33m2.59-.07a4.92,4.92,0,0,0,.45,2.13,3.52,3.52,0,0,0,1.23,1.48,3.2,3.2,0,0,0,1.8.53,3.27,3.27,0,0,0,1.8-.52,3.56,3.56,0,0,0,1.24-1.44,4.76,4.76,0,0,0,.44-2.07,4.63,4.63,0,0,0-.45-2.07A3.65,3.65,0,0,0,89,162.87a3.16,3.16,0,0,0-1.79-.52,3.22,3.22,0,0,0-1.78.51,3.35,3.35,0,0,0-1.23,1.4,4.44,4.44,0,0,0-.45,2"></path><path class="cls-7" d="M94.33,166.35a6.89,6.89,0,0,1,.78-3.29,5.74,5.74,0,0,1,2.17-2.28,6.27,6.27,0,0,1,6.22,0,5.6,5.6,0,0,1,2.15,2.27,6.81,6.81,0,0,1,.78,3.27,7,7,0,0,1-.79,3.36A6,6,0,0,1,97.28,172a5.78,5.78,0,0,1-2.17-2.32,7.05,7.05,0,0,1-.78-3.33m2.59-.07a5.07,5.07,0,0,0,.44,2.13,3.62,3.62,0,0,0,1.24,1.48,3.2,3.2,0,0,0,1.8.53,3.24,3.24,0,0,0,1.79-.52,3.49,3.49,0,0,0,1.24-1.44,4.63,4.63,0,0,0,.45-2.07,4.5,4.5,0,0,0-.46-2.07,3.55,3.55,0,0,0-1.25-1.45,3.18,3.18,0,0,0-1.79-.52,3.22,3.22,0,0,0-1.78.51,3.45,3.45,0,0,0-1.24,1.4,4.57,4.57,0,0,0-.44,2"></path><polygon class="cls-7" points="110.74 172.55 110.74 163.37 108.25 164.33 107.19 162.22 111.67 160.23 113.56 160.23 113.56 172.55 110.74 172.55"></polygon><path class="cls-1" d="M72.31,65.13a10,10,0,1,1,10-10,10,10,0,0,1-10,10m0-16.25a6.28,6.28,0,1,0,6.28,6.28,6.28,6.28,0,0,0-6.28-6.28"></path><path class="cls-1" d="M54,70.87a24.09,24.09,0,0,1-2-28.72l-3-2.23a27.76,27.76,0,0,0,2.35,33.57Z"></path><path class="cls-1" d="M51.4,36.83,54,39.45a23.91,23.91,0,0,1,2.61-2.62L54,34.21a30.73,30.73,0,0,0-2.61,2.62"></path><path class="cls-1" d="M72.4,27.28a27.69,27.69,0,0,0-15.3,4.59l2.23,2.95A24.15,24.15,0,0,1,89,37.62l3.22-2A27.61,27.61,0,0,0,72.4,27.28"></path><path class="cls-1" d="M83.5,65.51A15.2,15.2,0,1,1,81,42.61l3.37-2.08a18.89,18.89,0,1,0,2.19,27.15Z"></path><path class="cls-1" d="M85.82,75.24a24.09,24.09,0,0,1-29.18-1.75L54,76.1a27.8,27.8,0,0,0,34.1,2.05Z"></path><path class="cls-1" d="M94.74,38.42,83.94,45.1a16.9,16.9,0,0,1,3.64,10.07,15.05,15.05,0,0,1-1.91,7.34l3,2.18a18.88,18.88,0,0,0,.38-18.41l4.5-2.79A24.17,24.17,0,0,1,88.73,73L91,75.86a27.78,27.78,0,0,0,9.23-20.68,28.91,28.91,0,0,0-5.51-16.76"></path><path class="cls-1" d="M52.5,96.87a7.8,7.8,0,1,0,7.82,7.81,7.82,7.82,0,0,0-7.82-7.81m0,12.4a4.6,4.6,0,1,1,4.62-4.59,4.62,4.62,0,0,1-4.62,4.59"></path><path class="cls-1" d="M26.32,112H23.06V98.66h3.26ZM24.69,97a2,2,0,1,1,2-2,2,2,0,0,1-2,2"></path><path class="cls-1" d="M70.77,96.84a7.81,7.81,0,0,0-7.83,7.79v7.49h3.45v-7.73a4.38,4.38,0,0,1,8.75-.08v7.82h3.45v-7.49a7.82,7.82,0,0,0-7.82-7.8"></path><path class="cls-1" d="M89.1,109.53h0s-.51,0-.71,0c-1.4,0-2.07-.36-2.07-2.34V99.6h2.91V97.06H86.33v-3H82.88v3h-2v2.53h2v7.16a8,8,0,0,0,.73,3.76,4,4,0,0,0,3.81,2,9.83,9.83,0,0,0,1.68-.16Z"></path><path class="cls-1" d="M37.21,112.5a7.84,7.84,0,1,1,5.73-13.22l-2.09,2.58a4.78,4.78,0,0,0-3.63-1.76,4.56,4.56,0,1,0,0,9.12,4.68,4.68,0,0,0,3.65-1.8L43,110a7.92,7.92,0,0,1-5.76,2.5"></path><path class="cls-1" d="M116.28,112.5A7.84,7.84,0,1,1,122,99.28l-2.09,2.58a4.78,4.78,0,0,0-3.63-1.76,4.56,4.56,0,1,0,0,9.12,4.68,4.68,0,0,0,3.65-1.8L122,110a7.92,7.92,0,0,1-5.76,2.5"></path><path class="cls-1" d="M98.7,96.76c-4.58,0-7.34,3.8-7.34,7.92a7.47,7.47,0,0,0,7.8,7.82,7.2,7.2,0,0,0,6.4-3.46l-2.35-1.76a4.69,4.69,0,0,1-4,2.12,4.17,4.17,0,0,1-4.47-3.82H105.9s0-.72,0-1c0-3.37-1.68-7.85-7.25-7.85M94.88,103a3.78,3.78,0,0,1,3.85-3.3,3.53,3.53,0,0,1,3.73,3.3Z"></path><path class="cls-1" d="M33.47,240.77,35,240.6a4.42,4.42,0,0,0,.56,1.93,3.12,3.12,0,0,0,1.24,1.11,3.88,3.88,0,0,0,1.82.42,3.3,3.3,0,0,0,2.25-.71,2.32,2.32,0,0,0,.8-1.84,2.2,2.2,0,0,0-.29-1.16,2.17,2.17,0,0,0-.88-.81,16.1,16.1,0,0,0-2.54-.89,9,9,0,0,1-2.47-1,3.69,3.69,0,0,1-1.15-1.33,4,4,0,0,1-.4-1.81,4,4,0,0,1,1.17-3,4.28,4.28,0,0,1,3.17-1.16,5.12,5.12,0,0,1,2.4.54,3.85,3.85,0,0,1,1.59,1.56,5.08,5.08,0,0,1,.61,2.38l-1.56.14a3.3,3.3,0,0,0-.88-2.17,3,3,0,0,0-2.11-.7,3.1,3.1,0,0,0-2.1.62,2,2,0,0,0-.73,1.6,1.88,1.88,0,0,0,.53,1.41,6.43,6.43,0,0,0,2.39,1,17.12,17.12,0,0,1,2.56.87,3.95,3.95,0,0,1,2.27,3.74,4.6,4.6,0,0,1-.61,2.35A4,4,0,0,1,41,245.3a5.34,5.34,0,0,1-2.5.55,4.88,4.88,0,0,1-3.63-1.37A5.22,5.22,0,0,1,33.47,240.77Z"></path><path class="cls-1" d="M54.19,240.34l1.63.5a6.91,6.91,0,0,1-1.9,3.77,4.72,4.72,0,0,1-3.29,1.24,5,5,0,0,1-2.92-.84,5.78,5.78,0,0,1-2-2.67A11.12,11.12,0,0,1,45,238a10.08,10.08,0,0,1,.78-4.19,5.94,5.94,0,0,1,2.09-2.59,5.24,5.24,0,0,1,3-.87,4.54,4.54,0,0,1,3.06,1.11,6,6,0,0,1,1.79,3.24l-1.6.46c-.54-2.07-1.64-3.11-3.28-3.11a3.62,3.62,0,0,0-2.13.63,4.25,4.25,0,0,0-1.44,2,9,9,0,0,0-.54,3.36,8,8,0,0,0,1.09,4.62,3.35,3.35,0,0,0,2.88,1.54,3.13,3.13,0,0,0,2.29-1A5.06,5.06,0,0,0,54.19,240.34Z"></path><path class="cls-1" d="M65.16,243.82v1.77H57a5,5,0,0,1,.65-2.4,13.13,13.13,0,0,1,2.49-3.14A18.13,18.13,0,0,0,63,236.79a4.44,4.44,0,0,0,.65-2.14,2.62,2.62,0,0,0-.67-1.87,2.28,2.28,0,0,0-3.38.06,3.3,3.3,0,0,0-.67,2.23l-1.56-.19a5.06,5.06,0,0,1,1.23-3.25,3.71,3.71,0,0,1,2.78-1.09,3.39,3.39,0,0,1,2.85,1.27,4.67,4.67,0,0,1,1,2.88,5.47,5.47,0,0,1-.75,2.75,20.34,20.34,0,0,1-2.88,3.5c-.89.92-1.48,1.55-1.74,1.88a6.21,6.21,0,0,0-.64,1Z"></path><path class="cls-1" d="M72.44,245.59H70.93V233.87a9.71,9.71,0,0,1-3,2.21v-1.77a9.23,9.23,0,0,0,2.21-1.75,6.74,6.74,0,0,0,1.34-2h1Z"></path><path class="cls-1" d="M76.31,238.2a12.77,12.77,0,0,1,1-5.71,3.23,3.23,0,0,1,3-2,3.13,3.13,0,0,1,2.77,1.58c.82,1.27,1.23,3.29,1.23,6.08a12.78,12.78,0,0,1-1,5.7,3.24,3.24,0,0,1-3,1.95,3.33,3.33,0,0,1-2.87-1.72C76.68,243,76.31,241,76.31,238.2Zm1.54,0c0,2.43.23,4.06.7,4.89a2.06,2.06,0,0,0,1.8,1.24,2,2,0,0,0,1.73-1.25,11.47,11.47,0,0,0,.7-4.88c0-2.45-.24-4.08-.71-4.9a2.05,2.05,0,0,0-1.81-1.24,2,2,0,0,0-1.72,1.26C78.08,234.15,77.85,235.78,77.85,238.2Z"></path><path class="cls-1" d="M91.54,245.59H90V233.87a7.73,7.73,0,0,1-1.4,1.25,8.18,8.18,0,0,1-1.61,1v-1.77a9.37,9.37,0,0,0,2.2-1.75,6.6,6.6,0,0,0,1.35-2h1Z"></path><path class="cls-1" d="M95.26,241.09v-1.85h4.63v1.85Z"></path><path class="cls-1" d="M106.8,245.59h-1.51V233.87a9.71,9.71,0,0,1-3,2.21v-1.77a9.17,9.17,0,0,0,2.2-1.75,6.6,6.6,0,0,0,1.35-2h1Z"></path></svg> 