<?xml version="1.0" encoding="UTF-8"?> <svg xmlns="http://www.w3.org/2000/svg" id="Layer_1" data-name="Layer 1" viewBox="0 0 686.74 612"><defs><style>.cls-1{fill:#fff;}.cls-2{fill:#8dc63f;}.cls-3{fill:#1c75bc;}</style></defs><ellipse class="cls-1" cx="527.2" cy="430.21" rx="51.52" ry="37.05"></ellipse><ellipse class="cls-1" cx="344.36" cy="321.01" rx="248.26" ry="225.4"></ellipse><path class="cls-2" d="M183,301l6.9-.91a7.31,7.31,0,0,1,2.24,0,3.53,3.53,0,0,1,1.62.8,9.19,9.19,0,0,1,1.52,1.69,29.27,29.27,0,0,1,3.42,6,25.63,25.63,0,0,1,1.68,6.48,21.58,21.58,0,0,1-.28,7.74,16,16,0,0,1-2.94,6.32,16.53,16.53,0,0,1-5.41,4.48,22.23,22.23,0,0,1-7.58,2.32,22.79,22.79,0,0,1-7.86-.24,16.05,16.05,0,0,1-6.41-2.9,16.3,16.3,0,0,1-4.51-5.44,22.82,22.82,0,0,1-2.34-7.74,19.9,19.9,0,0,1,.12-6.58,14.35,14.35,0,0,1,1.85-4.87,11,11,0,0,1,2.77-3,6.32,6.32,0,0,1,2.81-1.27,3.15,3.15,0,0,1,2.49.71,3.47,3.47,0,0,1,1.29,2.32,3.35,3.35,0,0,1-.17,1.56,3.49,3.49,0,0,1-.87,1.35,29.74,29.74,0,0,0-2.9,2.71,7.56,7.56,0,0,0-1.48,2.76,9.67,9.67,0,0,0-.2,4.14,11.16,11.16,0,0,0,1.47,4.41,9.3,9.3,0,0,0,3,3.07,11.48,11.48,0,0,0,4.35,1.63,18,18,0,0,0,5.44,0q6.34-.84,9.37-4.2a10.17,10.17,0,0,0,2.35-8.58,16.93,16.93,0,0,0-1.3-4.67,23.72,23.72,0,0,0-2.48-4.26l-5.86.77.75,5.66a6.19,6.19,0,0,1-.21,3.16,2.22,2.22,0,0,1-2,1.33,2.6,2.6,0,0,1-2.1-.61,3.41,3.41,0,0,1-1.1-2.27l-1.1-8.29a10.75,10.75,0,0,1-.07-2.62,2.92,2.92,0,0,1,1-1.86A5,5,0,0,1,183,301Z"></path><path class="cls-2" d="M184.27,277.07l-.39,2.55,11.54,1.78a4.87,4.87,0,0,1,3.21,1.52,3.45,3.45,0,0,1,.67,2.78,3.38,3.38,0,0,1-1.54,2.53,5.09,5.09,0,0,1-3.46.45l-27.65-4.26a3.86,3.86,0,0,1-3.77-5.14l1.82-11.84a35.41,35.41,0,0,1,.85-4.16,10.74,10.74,0,0,1,1.33-3,9.35,9.35,0,0,1,2.49-2.68,9,9,0,0,1,3.38-1.5,10.41,10.41,0,0,1,3.82-.1,9.09,9.09,0,0,1,6.07,3.25,13.13,13.13,0,0,1,2.35,7.4,13.64,13.64,0,0,1,3.61-3.23,31.25,31.25,0,0,1,4.76-2.49,32.74,32.74,0,0,1,4.43-1.53,8.16,8.16,0,0,1,2.63-.39,2.7,2.7,0,0,1,1.34.67,3.28,3.28,0,0,1,.91,1.41,4,4,0,0,1,.13,1.88,3.63,3.63,0,0,1-.89,2,5.73,5.73,0,0,1-1.68,1.21q-1,.47-2.85,1.23l-5.3,2.17a26.39,26.39,0,0,0-4.5,2.18,6.92,6.92,0,0,0-2.3,2.22A8.66,8.66,0,0,0,184.27,277.07Zm-14.46-6.49-1,6.72,9.87,1.52,1-6.52a18.34,18.34,0,0,0,.22-4.48,5.3,5.3,0,0,0-1.12-3,4.45,4.45,0,0,0-2.86-1.4,4.58,4.58,0,0,0-4.78,2.2A15.19,15.19,0,0,0,169.81,270.58Z"></path><path class="cls-2" d="M187.42,216.26l-6.75,15.15,8.16,3.64,6.21-14a3.62,3.62,0,0,1,1.72-2,2.59,2.59,0,0,1,2.16.05,2.65,2.65,0,0,1,1.51,1.57,3.54,3.54,0,0,1-.31,2.63l-6.22,14,9.45,4.2,7-15.67a3.71,3.71,0,0,1,1.8-2.06,2.74,2.74,0,0,1,2.32.07A2.7,2.7,0,0,1,216,225.5a3.78,3.78,0,0,1-.33,2.72l-8.15,18.28a4.68,4.68,0,0,1-2.38,2.73,4.81,4.81,0,0,1-3.58-.44l-25-11.12a6.17,6.17,0,0,1-2.18-1.49,2.91,2.91,0,0,1-.73-1.94,6.17,6.17,0,0,1,.62-2.53L182.23,214a3.82,3.82,0,0,1,1.78-2.08,2.9,2.9,0,0,1,3.76,1.68A3.74,3.74,0,0,1,187.42,216.26Z"></path><path class="cls-2" d="M213,179.75,202.59,192.7l7,5.58,9.55-11.93a3.66,3.66,0,0,1,2.16-1.49,2.63,2.63,0,0,1,2.08.6,2.68,2.68,0,0,1,1.07,1.91,3.55,3.55,0,0,1-1,2.46l-9.55,11.92,8.08,6.47,10.73-13.4a3.78,3.78,0,0,1,2.26-1.54,2.75,2.75,0,0,1,2.22.66,2.66,2.66,0,0,1,1.09,2,3.74,3.74,0,0,1-1,2.55L224.75,214.1a4.72,4.72,0,0,1-3,2,4.78,4.78,0,0,1-3.35-1.33l-21.34-17.09a6,6,0,0,1-1.72-2,2.89,2.89,0,0,1-.22-2.06,6.13,6.13,0,0,1,1.24-2.29l12.16-15.18a3.76,3.76,0,0,1,2.24-1.56,2.92,2.92,0,0,1,3.22,2.58A3.81,3.81,0,0,1,213,179.75Z"></path><path class="cls-2" d="M234.47,157.68l24,9.09-12.66-17.53a4.82,4.82,0,0,1-1.12-3.1,3.07,3.07,0,0,1,1.37-2.28,3.11,3.11,0,0,1,2.65-.61,4.68,4.68,0,0,1,2.59,2l16.74,23.19q2.79,3.89-.42,6.2a5.38,5.38,0,0,1-1.62.82,4.49,4.49,0,0,1-1.73.13,8.45,8.45,0,0,1-1.9-.42c-.64-.21-1.3-.44-2-.68l-23.59-9.09,12.46,17.28a4.48,4.48,0,0,1,1.06,3.12,3.44,3.44,0,0,1-4.05,2.91,4.66,4.66,0,0,1-2.6-2L227.31,164a7.85,7.85,0,0,1-1.32-2.51,4,4,0,0,1,.2-2.39,4.16,4.16,0,0,1,1.5-2,4,4,0,0,1,1.56-.73,4.1,4.1,0,0,1,1.52,0,9.33,9.33,0,0,1,1.71.51Z"></path><path class="cls-2" d="M309.59,125.73l-14.07,3.53,2.26,9,11.76-2.95a3.63,3.63,0,0,1,2.63.13,2.83,2.83,0,0,1,1,3.91,3.71,3.71,0,0,1-2.25,1.33l-11.77,2.94L302,155.27a4.8,4.8,0,0,1-.17,3.53,3.74,3.74,0,0,1-5.15,1.28,4.83,4.83,0,0,1-1.82-3l-6.8-27.13a6.12,6.12,0,0,1-.17-2.63,2.93,2.93,0,0,1,1.07-1.78,6.35,6.35,0,0,1,2.38-1.07l16.84-4.22a3.79,3.79,0,0,1,2.73.13,2.63,2.63,0,0,1,1.33,1.77,2.66,2.66,0,0,1-.33,2.22A3.75,3.75,0,0,1,309.59,125.73Z"></path><path class="cls-2" d="M345.46,116.77a19.37,19.37,0,0,1,9.66,2.48,14.85,14.85,0,0,1,6,6.65,22.32,22.32,0,0,1,1.89,10,24.58,24.58,0,0,1-1.29,7.64,16.77,16.77,0,0,1-3.54,5.91,15,15,0,0,1-5.68,3.75,20.18,20.18,0,0,1-7.64,1.19,20,20,0,0,1-7.61-1.52,15.28,15.28,0,0,1-5.56-4,16.72,16.72,0,0,1-3.29-6.09,24.52,24.52,0,0,1-1-7.64,23.6,23.6,0,0,1,1.36-7.66,16.35,16.35,0,0,1,3.6-5.88,15.07,15.07,0,0,1,5.63-3.65A20,20,0,0,1,345.46,116.77Zm10.1,18.9a17.11,17.11,0,0,0-1.16-6.94,9.63,9.63,0,0,0-3.59-4.5,10.15,10.15,0,0,0-5.46-1.61,9.91,9.91,0,0,0-4.1.75,8.94,8.94,0,0,0-3.27,2.35,11.52,11.52,0,0,0-2.21,4,18,18,0,0,0-.89,5.52,18.74,18.74,0,0,0,.66,5.62,11.54,11.54,0,0,0,2.13,4.2,9.25,9.25,0,0,0,3.22,2.53,10.35,10.35,0,0,0,9.27-.41,9.78,9.78,0,0,0,3.85-4.29A17,17,0,0,0,355.56,135.67Z"></path><path class="cls-2" d="M398.26,125.72a19.4,19.4,0,0,1,8.5,5.22,14.85,14.85,0,0,1,3.79,8.11,22.35,22.35,0,0,1-1.13,10.09,24.28,24.28,0,0,1-3.49,6.92,16.55,16.55,0,0,1-5.12,4.6,14.82,14.82,0,0,1-6.53,1.92,22.1,22.1,0,0,1-14.48-4.81,15.1,15.1,0,0,1-4.13-5.45,16.73,16.73,0,0,1-1.35-6.79,24,24,0,0,1,1.29-7.59,23.59,23.59,0,0,1,3.55-6.93,16.49,16.49,0,0,1,5.17-4.56,15.05,15.05,0,0,1,6.45-1.83A20.05,20.05,0,0,1,398.26,125.72Zm4.08,21a16.83,16.83,0,0,0,.94-7,9.62,9.62,0,0,0-2.11-5.36,10,10,0,0,0-4.75-3.14,9.68,9.68,0,0,0-4.13-.49,8.93,8.93,0,0,0-3.82,1.28,11.62,11.62,0,0,0-3.29,3.19,18.24,18.24,0,0,0-2.48,5,18.75,18.75,0,0,0-1,5.56,11.62,11.62,0,0,0,.8,4.64,9.27,9.27,0,0,0,2.34,3.37,9.78,9.78,0,0,0,13.92-.63A16.91,16.91,0,0,0,402.34,146.75Z"></path><path class="cls-2" d="M446.29,157.8l-6.73-4.38-14.4,22.14a4.87,4.87,0,0,1-2.7,2.29A3.71,3.71,0,0,1,418,175a4.82,4.82,0,0,1,1-3.39l14.4-22.14L426.67,145a4.06,4.06,0,0,1-1.9-2.23,2.82,2.82,0,0,1,.43-2.34,2.78,2.78,0,0,1,2-1.35,4.17,4.17,0,0,1,2.76.82l19.63,12.77a4.17,4.17,0,0,1,1.92,2.26,2.83,2.83,0,0,1-.43,2.35,2.74,2.74,0,0,1-2,1.33A4.18,4.18,0,0,1,446.29,157.8Z"></path><path class="cls-2" d="M458.39,191l-4.58-4.95-7.56,7a4.83,4.83,0,0,1-3.17,1.51,3.68,3.68,0,0,1-3.61-3.89,4.79,4.79,0,0,1,1.74-3l20.58-19a4.62,4.62,0,0,1,3.31-1.54,5.09,5.09,0,0,1,3.17,1.9l6.42,6.94a25.25,25.25,0,0,1,3.9,5.17,9.66,9.66,0,0,1,1.11,4.23,9.24,9.24,0,0,1-.92,4.2,12.15,12.15,0,0,1-2.86,3.8q-4.08,3.78-8.51,3.21T458.39,191Zm11-12.62-3.36-3.64-8.16,7.54,3.36,3.64a14.75,14.75,0,0,0,3.36,2.83,5,5,0,0,0,3.12.74,5.34,5.34,0,0,0,3-1.53,5.5,5.5,0,0,0,1.92-3.69Q472.77,182,469.41,178.39Z"></path><path class="cls-2" d="M480.79,219.66l-1.2-2.29-10.35,5.41a4.83,4.83,0,0,1-3.48.67,3.47,3.47,0,0,1-2.2-1.84,3.39,3.39,0,0,1-.25-3,5,5,0,0,1,2.52-2.41l24.79-12.95a3.86,3.86,0,0,1,6.09,1.91l5.55,10.61a35.83,35.83,0,0,1,1.78,3.86,10.7,10.7,0,0,1,.71,3.21,9.34,9.34,0,0,1-.42,3.63,9.18,9.18,0,0,1-1.84,3.22,10.38,10.38,0,0,1-3,2.34,9.09,9.09,0,0,1-6.82,1,13.2,13.2,0,0,1-6.28-4.57,13.42,13.42,0,0,1-1,4.74,31.74,31.74,0,0,1-2.36,4.83,31.29,31.29,0,0,1-2.66,3.85,8.13,8.13,0,0,1-1.89,1.87A2.57,2.57,0,0,1,477,244a3.22,3.22,0,0,1-1.57-.59,3.85,3.85,0,0,1-1.21-1.44,3.6,3.6,0,0,1-.45-2.11,5.49,5.49,0,0,1,.64-2c.34-.64.86-1.53,1.56-2.68l3-4.89a27.81,27.81,0,0,0,2.33-4.42,7,7,0,0,0,.54-3.15A8.72,8.72,0,0,0,480.79,219.66Zm15.49-3.34-3.15-6-8.86,4.62,3.06,5.85a18.19,18.19,0,0,0,2.47,3.74,5.21,5.21,0,0,0,2.67,1.73,4.48,4.48,0,0,0,3.13-.56,4.6,4.6,0,0,0,2-1.91,4.72,4.72,0,0,0,.54-2.69A15.48,15.48,0,0,0,496.28,216.32Z"></path><path class="cls-2" d="M482.63,253.52l27.58-7.76a4.78,4.78,0,0,1,3.49.07,3.38,3.38,0,0,1,1.79,2.23,3.52,3.52,0,0,1-.33,2.89,4.79,4.79,0,0,1-3,1.9l-27.57,7.76a4.82,4.82,0,0,1-3.53-.08,3.47,3.47,0,0,1-1.8-2.28,3.38,3.38,0,0,1,.38-2.83A4.81,4.81,0,0,1,482.63,253.52Z"></path><path class="cls-2" d="M517.13,280.38l-20.51,15.45,21.59-1.33a4.72,4.72,0,0,1,3.21.71,3.07,3.07,0,0,1,1.2,2.37,3.19,3.19,0,0,1-.9,2.57,4.74,4.74,0,0,1-3.1,1.11L490.08,303c-3.18.2-4.86-1-5-3.67a5.38,5.38,0,0,1,.17-1.79A4.62,4.62,0,0,1,486,296a9.33,9.33,0,0,1,1.37-1.37l1.63-1.3,20.28-15.09-21.26,1.31a4.51,4.51,0,0,1-3.2-.77,3.19,3.19,0,0,1-1.22-2.41,3.12,3.12,0,0,1,.92-2.56,4.61,4.61,0,0,1,3.07-1.14l28-1.73a7.8,7.8,0,0,1,2.82.23,4,4,0,0,1,1.92,1.44,4.3,4.3,0,0,1,.85,2.31,3.87,3.87,0,0,1-1,3,9.1,9.1,0,0,1-1.34,1.17Z"></path><path class="cls-2" d="M509.68,343.37l1.61-7.87-25.88-5.29a4.9,4.9,0,0,1-3.11-1.68,3.4,3.4,0,0,1-.55-2.79,3.44,3.44,0,0,1,1.62-2.39,4.8,4.8,0,0,1,3.51-.34l25.88,5.29,1.61-7.87a4.05,4.05,0,0,1,1.38-2.58,3.08,3.08,0,0,1,4.33.93,4.18,4.18,0,0,1,.25,2.87l-4.69,22.94a4.12,4.12,0,0,1-1.4,2.61,2.86,2.86,0,0,1-2.35.47,2.8,2.8,0,0,1-2-1.36A4.17,4.17,0,0,1,509.68,343.37Z"></path><path class="cls-2" d="M258.58,465.26v4.24a4.55,4.55,0,0,1-.16,1.36,2.14,2.14,0,0,1-.58.91,5.91,5.91,0,0,1-1.09.79,16.85,16.85,0,0,1-3.69,1.58,13.92,13.92,0,0,1-3.86.5,12.1,12.1,0,0,1-4.44-.78,9.18,9.18,0,0,1-3.42-2.28,10.11,10.11,0,0,1-2.17-3.62,14,14,0,0,1-.76-4.76,14.53,14.53,0,0,1,.73-4.73,9.82,9.82,0,0,1,2.16-3.64,9.39,9.39,0,0,1,3.48-2.29,12.72,12.72,0,0,1,4.64-.79,10.7,10.7,0,0,1,3.77.59,8.26,8.26,0,0,1,2.67,1.5,6.93,6.93,0,0,1,1.55,1.92,4.09,4.09,0,0,1,.52,1.8,2,2,0,0,1-2,2,1.86,1.86,0,0,1-.88-.23,2.07,2.07,0,0,1-.72-.63,17.88,17.88,0,0,0-1.34-2,4.3,4.3,0,0,0-1.48-1.11,5.44,5.44,0,0,0-2.37-.46,6.4,6.4,0,0,0-2.65.54,5.6,5.6,0,0,0-2,1.56,7.09,7.09,0,0,0-1.26,2.5,11.27,11.27,0,0,0-.44,3.28,9.25,9.25,0,0,0,1.71,6,5.8,5.8,0,0,0,4.76,2.1,9.36,9.36,0,0,0,2.79-.41,13.79,13.79,0,0,0,2.65-1.16V466h-3.32a3.52,3.52,0,0,1-1.81-.37,1.4,1.4,0,0,1-.61-1.29,1.61,1.61,0,0,1,.51-1.22,1.94,1.94,0,0,1,1.39-.48h4.86a5.93,5.93,0,0,1,1.51.17,1.73,1.73,0,0,1,1,.74A3.15,3.15,0,0,1,258.58,465.26Z"></path><path class="cls-2" d="M265.3,452.12h5.58a14.55,14.55,0,0,1,3.74.42,6.81,6.81,0,0,1,2.82,1.59q3.3,3,3.31,9a18.57,18.57,0,0,1-.33,3.64,11.06,11.06,0,0,1-1,3,8.89,8.89,0,0,1-1.78,2.36,7.25,7.25,0,0,1-1.85,1.29,8.32,8.32,0,0,1-2.17.68,16,16,0,0,1-2.62.2H265.4a3.34,3.34,0,0,1-1.76-.37,1.72,1.72,0,0,1-.77-1,7,7,0,0,1-.18-1.75V454.87a3,3,0,0,1,.62-2.1A2.63,2.63,0,0,1,265.3,452.12Zm1.66,3.54v15h3.24c.72,0,1.27,0,1.68-.06a5,5,0,0,0,1.25-.3,3.33,3.33,0,0,0,1.12-.68c1.44-1.27,2.15-3.46,2.15-6.56a10.05,10.05,0,0,0-1-4.91,4.19,4.19,0,0,0-2.33-2.07,10.84,10.84,0,0,0-3.34-.45Z"></path><path class="cls-2" d="M289.42,468h-4.56a2.22,2.22,0,0,1-1.58-.51,1.88,1.88,0,0,1,0-2.63,2.2,2.2,0,0,1,1.59-.5h4.55a2.23,2.23,0,0,1,1.6.51,1.92,1.92,0,0,1,0,2.63A2.21,2.21,0,0,1,289.42,468Z"></path><path class="cls-2" d="M298.63,470.68h7.52a2.63,2.63,0,0,1,1.72.49,1.61,1.61,0,0,1,.59,1.31,1.71,1.71,0,0,1-1.89,1.77H296a2.2,2.2,0,0,1-1.68-.62,2,2,0,0,1-.61-1.48,3.89,3.89,0,0,1,.39-1.44,5.1,5.1,0,0,1,.85-1.41q1.92-2.09,3.46-3.57a21.24,21.24,0,0,1,2.2-2,13.42,13.42,0,0,0,2-1.76,7,7,0,0,0,1.19-1.82,4.32,4.32,0,0,0,.41-1.81,3.36,3.36,0,0,0-.44-1.74,3.14,3.14,0,0,0-1.19-1.18,3.37,3.37,0,0,0-1.65-.42,3.34,3.34,0,0,0-3,1.74,7.3,7.3,0,0,0-.49,1.24,5.19,5.19,0,0,1-.76,1.55,1.5,1.5,0,0,1-1.25.55,1.57,1.57,0,0,1-1.19-.5,1.88,1.88,0,0,1-.48-1.36,5.91,5.91,0,0,1,.45-2.18A6.13,6.13,0,0,1,295.5,454a6.5,6.5,0,0,1,2.25-1.49,8.22,8.22,0,0,1,3.19-.57,8.73,8.73,0,0,1,3.76.73,5.62,5.62,0,0,1,1.78,1.32,6.39,6.39,0,0,1,1.19,2,6.46,6.46,0,0,1,.42,2.3,6.69,6.69,0,0,1-.88,3.41,10.41,10.41,0,0,1-1.81,2.4q-.91.87-3.09,2.73a23.27,23.27,0,0,0-3,2.89A7.83,7.83,0,0,0,298.63,470.68Z"></path><path class="cls-2" d="M325.73,463.37a27.4,27.4,0,0,1-.29,4.26,10.4,10.4,0,0,1-1.06,3.23,7.28,7.28,0,0,1-2.54,2.75,6.62,6.62,0,0,1-7.39-.33,7.85,7.85,0,0,1-2.62-3.59,13.89,13.89,0,0,1-.65-2.77,25.69,25.69,0,0,1-.22-3.29,33.85,33.85,0,0,1,.23-4.11,15,15,0,0,1,.72-3.14,7.06,7.06,0,0,1,2.47-3.31,6.49,6.49,0,0,1,3.87-1.15,6.91,6.91,0,0,1,2.7.51,6.15,6.15,0,0,1,2.13,1.48,8.62,8.62,0,0,1,1.55,2.41A18,18,0,0,1,325.73,463.37Zm-4-.3a26.39,26.39,0,0,0-.32-4.52,5.67,5.67,0,0,0-1.07-2.66,2.56,2.56,0,0,0-2.08-.9,2.67,2.67,0,0,0-2.64,2,19,19,0,0,0-.74,6.19,28,28,0,0,0,.32,4.66,6,6,0,0,0,1.07,2.74,2.72,2.72,0,0,0,4.11,0,6.3,6.3,0,0,0,1.05-2.77A29.75,29.75,0,0,0,321.78,463.07Z"></path><path class="cls-2" d="M333.72,470.66h7.52a2.69,2.69,0,0,1,1.72.48,1.61,1.61,0,0,1,.59,1.31,1.7,1.7,0,0,1-1.89,1.77H331.05a2.25,2.25,0,0,1-1.69-.63,2.06,2.06,0,0,1-.6-1.47,3.84,3.84,0,0,1,.39-1.44,5.17,5.17,0,0,1,.85-1.42c1.27-1.39,2.43-2.58,3.45-3.57a23.55,23.55,0,0,1,2.21-2,12.87,12.87,0,0,0,2-1.76,7,7,0,0,0,1.19-1.81,4.4,4.4,0,0,0,.41-1.82,3.42,3.42,0,0,0-.44-1.73,3.12,3.12,0,0,0-1.2-1.19,3.42,3.42,0,0,0-4.62,1.32,8.8,8.8,0,0,0-.48,1.24,5.19,5.19,0,0,1-.76,1.55,1.47,1.47,0,0,1-1.25.55,1.57,1.57,0,0,1-1.19-.5,1.87,1.87,0,0,1-.48-1.36,5.86,5.86,0,0,1,.45-2.17,6.17,6.17,0,0,1,1.33-2.06,6.65,6.65,0,0,1,2.25-1.49A8.19,8.19,0,0,1,336,452a8.61,8.61,0,0,1,3.76.72,5.61,5.61,0,0,1,1.78,1.33,6.33,6.33,0,0,1,1.61,4.25,6.69,6.69,0,0,1-.88,3.41,10.7,10.7,0,0,1-1.81,2.4q-.93.87-3.09,2.73a23.27,23.27,0,0,0-3,2.89A8.64,8.64,0,0,0,333.72,470.66Z"></path><path class="cls-2" d="M353,472.15V458.4q-3.66,3-4.93,3a1.42,1.42,0,0,1-1.07-.51,1.62,1.62,0,0,1-.47-1.17,1.34,1.34,0,0,1,.46-1.13,10.86,10.86,0,0,1,1.63-.94,12.24,12.24,0,0,0,2.79-1.81,13,13,0,0,0,1.85-2.13,14.75,14.75,0,0,1,1.05-1.45,1.22,1.22,0,0,1,.92-.27,1.46,1.46,0,0,1,1.23.61,2.89,2.89,0,0,1,.46,1.71v17.29c0,2-.66,3-2,3a1.76,1.76,0,0,1-1.41-.62A2.69,2.69,0,0,1,353,472.15Z"></path><path class="cls-2" d="M369.42,468h-4.55a2.22,2.22,0,0,1-1.58-.51,1.71,1.71,0,0,1-.54-1.31,1.76,1.76,0,0,1,.52-1.32,2.27,2.27,0,0,1,1.6-.5h4.55a2.24,2.24,0,0,1,1.6.51,1.92,1.92,0,0,1,0,2.63A2.19,2.19,0,0,1,369.42,468Z"></path><path class="cls-2" d="M380.38,472.13V458.39c-2.45,2-4.09,2.95-4.93,2.95a1.42,1.42,0,0,1-1.08-.51,1.69,1.69,0,0,1-.47-1.17,1.37,1.37,0,0,1,.46-1.13,10,10,0,0,1,1.63-.94,10.93,10.93,0,0,0,4.64-3.95c.54-.78.89-1.26,1.05-1.45a1.24,1.24,0,0,1,.93-.27,1.45,1.45,0,0,1,1.22.62,2.78,2.78,0,0,1,.46,1.71v17.29c0,2-.65,3-2,3a1.76,1.76,0,0,1-1.41-.62A2.7,2.7,0,0,1,380.38,472.13Z"></path><path class="cls-2" d="M405.73,463.33a26.33,26.33,0,0,1-.28,4.26,10.07,10.07,0,0,1-1.07,3.23,7.18,7.18,0,0,1-2.53,2.75,6.62,6.62,0,0,1-7.39-.33,7.85,7.85,0,0,1-2.62-3.59,13.88,13.88,0,0,1-.66-2.77,24.06,24.06,0,0,1-.21-3.29,33.56,33.56,0,0,1,.23-4.1,14.39,14.39,0,0,1,.72-3.15,7.06,7.06,0,0,1,2.47-3.31,6.55,6.55,0,0,1,3.87-1.14,6.73,6.73,0,0,1,2.7.5,6.11,6.11,0,0,1,2.12,1.48,8.42,8.42,0,0,1,1.56,2.41A18.06,18.06,0,0,1,405.73,463.33Zm-4-.3a26.53,26.53,0,0,0-.31-4.52,5.77,5.77,0,0,0-1.07-2.66,2.56,2.56,0,0,0-2.08-.9,2.67,2.67,0,0,0-2.64,2,19,19,0,0,0-.74,6.19,27,27,0,0,0,.32,4.66,6,6,0,0,0,1.06,2.74,2.52,2.52,0,0,0,2,.92,2.48,2.48,0,0,0,2.07-1,6.18,6.18,0,0,0,1.05-2.77A27.53,27.53,0,0,0,401.78,463Z"></path><path class="cls-2" d="M419.16,464.26A6.67,6.67,0,0,1,417,466a5.74,5.74,0,0,1-2.6.59,5.84,5.84,0,0,1-2.53-.55,6,6,0,0,1-2-1.54,6.76,6.76,0,0,1-1.32-2.31,8.51,8.51,0,0,1,.05-5.72,7.31,7.31,0,0,1,1.48-2.43,6.9,6.9,0,0,1,2.3-1.6,8,8,0,0,1,6.27.14,6.61,6.61,0,0,1,2.45,2.05,10.13,10.13,0,0,1,1.53,3.41,18.82,18.82,0,0,1,.53,4.65,20.68,20.68,0,0,1-.56,5.12,11,11,0,0,1-1.63,3.71,6.92,6.92,0,0,1-2.57,2.24,7.65,7.65,0,0,1-3.4.73,6.85,6.85,0,0,1-3.26-.74,5.6,5.6,0,0,1-2.11-1.86,3.94,3.94,0,0,1-.72-2.14,1.64,1.64,0,0,1,.45-1.13,1.44,1.44,0,0,1,1.13-.5,1.83,1.83,0,0,1,1.14.37,2.25,2.25,0,0,1,.77,1.11,3,3,0,0,0,1.05,1.46,2.74,2.74,0,0,0,1.66.55,3,3,0,0,0,1.56-.44,3.89,3.89,0,0,0,1.25-1.24Q419,468.35,419.16,464.26Zm-.34-4.62a6.71,6.71,0,0,0-.26-1.9,4.8,4.8,0,0,0-.75-1.5,3.68,3.68,0,0,0-1.16-1,3,3,0,0,0-1.46-.36,2.84,2.84,0,0,0-2.32,1.23,5.16,5.16,0,0,0-.95,3.26,5,5,0,0,0,.95,3.2,2.94,2.94,0,0,0,2.41,1.19,3.27,3.27,0,0,0,1.71-.49,3.66,3.66,0,0,0,1.32-1.43A4.53,4.53,0,0,0,418.82,459.64Z"></path><path class="cls-2" d="M440.82,463.31a27.52,27.52,0,0,1-.28,4.26,10.07,10.07,0,0,1-1.07,3.23,7.36,7.36,0,0,1-2.53,2.76,6.67,6.67,0,0,1-7.39-.33,7.93,7.93,0,0,1-2.62-3.6,13.71,13.71,0,0,1-.66-2.77,24,24,0,0,1-.21-3.28,33.85,33.85,0,0,1,.23-4.11,13.62,13.62,0,0,1,.72-3.14,7.09,7.09,0,0,1,2.47-3.32,6.55,6.55,0,0,1,3.87-1.14,6.91,6.91,0,0,1,2.7.5,6.21,6.21,0,0,1,2.12,1.48,8.64,8.64,0,0,1,1.56,2.41A18.06,18.06,0,0,1,440.82,463.31Zm-3.95-.3a25.41,25.41,0,0,0-.32-4.52,5.71,5.71,0,0,0-1.06-2.66,2.57,2.57,0,0,0-2.08-.9,2.67,2.67,0,0,0-2.64,2,18.77,18.77,0,0,0-.74,6.2,27,27,0,0,0,.32,4.65,6,6,0,0,0,1.06,2.74,2.7,2.7,0,0,0,4.11,0,6.18,6.18,0,0,0,1.05-2.76A29.8,29.8,0,0,0,436.87,463Z"></path><path class="cls-2" d="M341.86,104c-111.31,0-201.5,90.34-201.45,201.64a204.53,204.53,0,0,0,1.42,23.75h5.31a196.05,196.05,0,0,1-1.45-23.75c0-108.39,87.77-196.31,196.17-196.37S538.16,197,538.22,305.43a198.11,198.11,0,0,1-1.43,23.75h5.31a202.2,202.2,0,0,0,1.39-23.74C543.43,194.12,453.16,103.93,341.86,104Z"></path><path class="cls-2" d="M472.44,459.11h-8.28a196.26,196.26,0,0,1-244.25.11h-8.28a201.49,201.49,0,0,0,260.81-.12Z"></path><path class="cls-2" d="M89.84,314.14a76.73,76.73,0,0,0,14,10.22,71.45,71.45,0,0,0-12.91,5l39.48,0q-.92-8.28-1.19-16.76l-.59-.3a131.33,131.33,0,0,1-12.37-7.57,45.52,45.52,0,0,0-10.82-5.12c-14.37-4.42-24.23-2-24.09-2.2-.11.2,9.31-3.6,24.78-.31a45.57,45.57,0,0,1,12,4.62c2.41,1.43,5,2.86,7.59,4.26,1.09.67,2.23,1.34,3.37,2,0-.78,0-1.57,0-2.37a216.59,216.59,0,0,1,2.93-35.42l-.48-.39A132.56,132.56,0,0,1,121,259.93a45.14,45.14,0,0,0-9.58-7.18C98.16,245.58,88,246,88.21,245.82c-.16.18,9.83-1.68,24.34,4.63a45.31,45.31,0,0,1,10.87,6.92c2.07,1.86,4.27,3.77,6.6,5.66.92.87,1.88,1.74,2.86,2.6a211.63,211.63,0,0,1,10-35.43c-.11-.15-.25-.31-.37-.45A132.38,132.38,0,0,1,134,218a45.59,45.59,0,0,0-8-8.9c-11.58-9.6-21.57-11.19-21.38-11.28-.19.14,10,.25,23,9.25a45.61,45.61,0,0,1,9.31,8.89c1.68,2.23,3.46,4.53,5.39,6.84.73,1,1.49,2.06,2.28,3.08a211.61,211.61,0,0,1,17.27-33.71,5.79,5.79,0,0,0-.31-.54,129.32,129.32,0,0,1-6-13.22,45.27,45.27,0,0,0-6.1-10.3C140,156.4,130.49,152.85,130.7,152.8c-.21.1,9.73,2.23,20.69,13.63A45.45,45.45,0,0,1,158.77,177c1.19,2.52,2.49,5.13,3.91,7.76.52,1.17,1.06,2.35,1.64,3.52a212.68,212.68,0,0,1,22.22-28.13c-.07-.21-.13-.42-.21-.63A127.14,127.14,0,0,1,183,145.41a45.6,45.6,0,0,0-4-11.27c-7-13.28-15.7-18.57-15.49-18.57-.22.05,9.14,4,17.75,17.29a46.38,46.38,0,0,1,5.23,11.78c.71,2.7,1.47,5.5,2.36,8.37.29,1.24.63,2.51,1,3.78a213.6,213.6,0,0,1,28.78-24.65c0-.22-.05-.43-.07-.63a130.48,130.48,0,0,1-.53-14.5,45.74,45.74,0,0,0-1.69-11.85c-4.28-14.42-11.7-21.31-11.49-21.27-.23,0,8.15,5.75,13.95,20.47a45.58,45.58,0,0,1,2.78,12.58c.16,2.79.36,5.69.66,8.68.05,1.27.11,2.56.19,3.87a212.81,212.81,0,0,1,32.11-18c0-.19,0-.39.06-.58a128.78,128.78,0,0,1,2.29-14.33,45.34,45.34,0,0,0,.62-12c-1.41-15-7.34-23.17-7.15-23.1-.22,0,6.88,7.22,9.72,22.79a45.12,45.12,0,0,1,.3,12.88c-.39,2.77-.75,5.65-1,8.64-.2,1.23-.39,2.5-.56,3.79A211.35,211.35,0,0,1,294.73,98c0-.19.11-.38.17-.57A128.5,128.5,0,0,1,300,83.81a46.46,46.46,0,0,0,3-11.6c1.6-14.95-2.59-24.17-2.41-24.06-.22-.08,5.3,8.46,5,24.27A45.37,45.37,0,0,1,303.3,85.1c-.94,2.63-1.87,5.39-2.74,8.26-.44,1.18-.89,2.39-1.3,3.62a213.66,213.66,0,0,1,35.6-4.15,6.54,6.54,0,0,1,.3-.59,128,128,0,0,1,7.57-12.37,45.78,45.78,0,0,0,5.13-10.82c4.4-14.38,2-24.22,2.19-24.08-.21-.12,3.6,9.31.3,24.77a45.11,45.11,0,0,1-4.63,12c-1.41,2.41-2.84,4.94-4.23,7.59-.68,1.09-1.34,2.21-2,3.36.8,0,1.59,0,2.37,0a214.43,214.43,0,0,1,35.43,2.94c.13-.16.25-.33.39-.48a125.81,125.81,0,0,1,9.89-10.62,45.4,45.4,0,0,0,7.15-9.6c7.19-13.21,6.82-23.33,6.94-23.16-.17-.15,1.69,9.84-4.61,24.34A45.8,45.8,0,0,1,390.11,87c-1.86,2.07-3.77,4.27-5.67,6.6-.87.92-1.73,1.88-2.59,2.86a212.5,212.5,0,0,1,35.42,10c.16-.12.3-.25.45-.38a132.27,132.27,0,0,1,11.76-8.51,45.93,45.93,0,0,0,8.9-8c9.59-11.57,11.19-21.57,11.28-21.38-.14-.18-.25,10-9.24,23a45.77,45.77,0,0,1-8.91,9.32c-2.23,1.68-4.53,3.47-6.83,5.38-1,.73-2.05,1.5-3.09,2.29a212.49,212.49,0,0,1,33.72,17.26l.54-.3a132.6,132.6,0,0,1,13.21-6A45.46,45.46,0,0,0,479.37,113c11.7-9.43,15.25-18.92,15.3-18.72-.1-.21-2.23,9.74-13.62,20.69a45.66,45.66,0,0,1-10.57,7.38c-2.52,1.2-5.13,2.48-7.77,3.9-1.17.52-2.34,1.08-3.52,1.66a214.19,214.19,0,0,1,28.14,22.21l.63-.2a124.93,124.93,0,0,1,14.1-3.39,45.3,45.3,0,0,0,11.27-4c13.28-7,18.57-15.69,18.58-15.48-.06-.22-4,9.13-17.3,17.74A45.43,45.43,0,0,1,502.84,150c-2.71.71-5.52,1.47-8.38,2.37-1.24.3-2.5.62-3.78,1a213,213,0,0,1,24.66,28.77c.21,0,.42-.05.63-.06a125.64,125.64,0,0,1,14.49-.53,44.76,44.76,0,0,0,11.85-1.71c14.42-4.26,21.32-11.68,21.29-11.48,0-.23-5.78,8.15-20.49,13.95A45.26,45.26,0,0,1,530.54,185c-2.79.16-5.69.35-8.68.66-1.26,0-2.55.1-3.86.18A214.5,214.5,0,0,1,536,218l.58.06a131,131,0,0,1,14.32,2.29,45.38,45.38,0,0,0,12,.62c15-1.39,23.17-7.34,23.11-7.14,0-.24-7.24,6.87-22.8,9.72a45.83,45.83,0,0,1-12.88.3c-2.77-.4-5.66-.76-8.64-1-1.24-.2-2.51-.39-3.79-.56a211.61,211.61,0,0,1,11.64,36.05l.57.17a128.7,128.7,0,0,1,13.59,5.1,45.2,45.2,0,0,0,11.6,3c15,1.61,24.17-2.59,24.06-2.41.08-.22-8.46,5.3-24.28,5a45.84,45.84,0,0,1-12.67-2.27c-2.64-.92-5.39-1.86-8.26-2.73-1.19-.45-2.4-.88-3.63-1.31a211.82,211.82,0,0,1,4.15,35.6l.6.31a130.31,130.31,0,0,1,12.36,7.56,45.2,45.2,0,0,0,10.83,5.12c14.37,4.42,24.22,2,24.08,2.19.11-.19-9.31,3.62-24.77.32a45.62,45.62,0,0,1-12-4.62c-2.42-1.42-4.94-2.86-7.59-4.25-1.1-.68-2.22-1.35-3.38-2,0,.79,0,1.58,0,2.38a214.13,214.13,0,0,1-1.32,23.75l40.95,0c9.77-2.95,20.57-8.14,32.42-16.36,0,0-15.45-.18-32.76-15.89A77,77,0,0,0,580,286.69c13-3.61,27.44-12,43-28,0,0-15.21,2.73-35.16-9.4A75,75,0,0,0,569,241c12.78-5.78,26.2-17.12,39.17-37.17,0,0-14.34,5.7-36.33-2.22a75.22,75.22,0,0,0-18.36-4.27c11-8.26,21.44-21.77,30-43.13,0,0-13,8.37-36.08,4.86a74,74,0,0,0-20.67-.43c9.57-10.26,17.59-25.89,21.86-49.39,0,0-11.06,10.78-34.39,11.92A77.77,77.77,0,0,0,497,123.86c6.63-11.72,10.9-27.9,10.66-50.19,0,0-8.81,12.69-31.52,18.22a74.4,74.4,0,0,0-19.26,7.48c4.94-13.13,6.41-30.64,1.41-54,0,0-6.13,14.19-27.26,24.12a75.7,75.7,0,0,0-16,10c1.91-13.59-.22-30.56-9.31-51.68,0,0-3.25,15.1-22.08,28.94A74.69,74.69,0,0,0,368.7,71c-.49-14-5.86-30.74-19.46-50.38,0,0-.2,15.45-15.9,32.76a76.26,76.26,0,0,0-10.22,14c-3.6-13-12-27.44-28-43,0,0,2.75,15.2-9.39,35.17a74.05,74.05,0,0,0-8.35,18.91c-5.78-12.78-17.13-26.2-37.19-39.18,0,0,5.72,14.35-2.21,36.34A75.58,75.58,0,0,0,233.75,94c-8.25-11-21.76-21.45-43.12-30,0,0,8.37,13,4.84,36.08a74.57,74.57,0,0,0-.4,20.66c-10.27-9.58-25.9-17.6-49.39-21.86,0,0,10.78,11,11.91,34.39a77.68,77.68,0,0,0,2.71,17.16c-11.72-6.62-27.9-10.9-50.19-10.66,0,0,12.68,8.82,18.21,31.52a75,75,0,0,0,7.48,19.27c-13.13-4.95-30.63-6.42-54-1.42,0,0,14.19,6.12,24.12,27.28a76.52,76.52,0,0,0,10,16c-13.58-1.91-30.55.23-51.68,9.3,0,0,15.11,3.26,28.94,22.08a74.32,74.32,0,0,0,14.32,14.92c-14,.48-30.74,5.85-50.39,19.46C57.08,298.25,72.54,298.44,89.84,314.14Z"></path><path class="cls-1" d="M349.24,20.65C362.84,40.29,368.21,57,368.7,71a74.69,74.69,0,0,1,14.9-14.31c18.83-13.84,22.08-28.94,22.08-28.94C414.77,48.9,416.9,65.87,415,79.46a75.7,75.7,0,0,1,16-10c21.13-9.93,27.26-24.12,27.26-24.12,5,23.36,3.53,40.87-1.41,54a74.4,74.4,0,0,1,19.26-7.48c22.71-5.53,31.52-18.22,31.52-18.22.24,22.29-4,38.47-10.66,50.19a77.77,77.77,0,0,1,17.17-2.71c23.33-1.14,34.39-11.92,34.39-11.92-4.27,23.5-12.29,39.13-21.86,49.39a66.86,66.86,0,0,1,8.55-.53,79.3,79.3,0,0,1,12.12,1,73.57,73.57,0,0,0,11.09.86c16.12,0,25-5.72,25-5.72-8.53,21.36-19,34.87-30,43.13a75.22,75.22,0,0,1,18.36,4.27,67,67,0,0,0,22.74,4.21c8.6,0,13.59-2,13.59-2-13,20.05-26.39,31.39-39.17,37.17a75,75,0,0,1,18.92,8.35C601.65,257.69,613.14,259,619,259a26,26,0,0,0,4.09-.26c-15.59,15.93-30,24.35-43,28a77,77,0,0,1,14.05,10.21c17.31,15.71,32.76,15.89,32.76,15.89C615,321,604.18,326.2,594.41,329.15l-40.95,0a214.13,214.13,0,0,0,1.32-23.75c0-.8,0-1.59,0-2.38,1.16.66,2.28,1.33,3.38,2,2.65,1.39,5.17,2.83,7.59,4.25a45.62,45.62,0,0,0,12,4.62,59.35,59.35,0,0,0,12.34,1.35,43.21,43.21,0,0,0,12.42-1.67h0a44.76,44.76,0,0,1-6.85.51,58.78,58.78,0,0,1-17.21-2.7,45.2,45.2,0,0,1-10.83-5.12,130.31,130.31,0,0,0-12.36-7.56l-.6-.31a211.82,211.82,0,0,0-4.15-35.6c1.23.43,2.44.86,3.63,1.31,2.87.87,5.62,1.81,8.26,2.73a45.84,45.84,0,0,0,12.67,2.27h1.25c14.53,0,22.57-4.89,23-5h0A50.41,50.41,0,0,1,582,266.9a63,63,0,0,1-6.77-.36,45.2,45.2,0,0,1-11.6-3,128.7,128.7,0,0,0-13.59-5.1l-.57-.17a211.61,211.61,0,0,0-11.64-36.05c1.28.17,2.55.36,3.79.56,3,.28,5.87.64,8.64,1a40,40,0,0,0,5.14.33,52.39,52.39,0,0,0,7.74-.63c15-2.76,22.33-9.49,22.78-9.72h0c-.48.2-8.63,5.79-23.09,7.14-1.24.08-2.53.13-3.86.13a40.18,40.18,0,0,1-8.1-.75,131,131,0,0,0-14.32-2.29L536,218a214.5,214.5,0,0,0-18-32.11c1.31-.08,2.6-.15,3.86-.18,3-.31,5.89-.5,8.68-.66a45.26,45.26,0,0,0,12.57-2.79c14.22-5.61,20.07-13.61,20.47-13.94h0c-.44.3-7.34,7.36-21.27,11.47a45.06,45.06,0,0,1-11.6,1.71h-.25l-2.56,0A118.25,118.25,0,0,0,516,182c-.21,0-.42,0-.63.06a213,213,0,0,0-24.66-28.77c1.28-.35,2.54-.67,3.78-1,2.86-.9,5.67-1.66,8.38-2.37a45.43,45.43,0,0,0,11.77-5.23c12.84-8.33,17-17.35,17.28-17.73h0c-.35.36-5.72,8.66-18.56,15.47a45.3,45.3,0,0,1-11.27,4A124.93,124.93,0,0,0,488,149.9l-.63.2a214.19,214.19,0,0,0-28.14-22.21c1.18-.58,2.35-1.14,3.52-1.66,2.64-1.42,5.25-2.7,7.77-3.9A45.66,45.66,0,0,0,481.05,115c11-10.59,13.37-20.25,13.61-20.68h0c-.28.42-4,9.59-15.29,18.71a45.46,45.46,0,0,1-10.31,6.09,132.6,132.6,0,0,0-13.21,6l-.54.3a212.49,212.49,0,0,0-33.72-17.26c1-.79,2.06-1.56,3.09-2.29,2.3-1.91,4.6-3.7,6.83-5.38a45.77,45.77,0,0,0,8.91-9.32c8.7-12.59,9.08-22.51,9.23-23,0,0,0,0,0,0h0s0,0,0,0c-.19.47-2,10.19-11.27,21.37a45.93,45.93,0,0,1-8.9,8A132.27,132.27,0,0,0,417.72,106c-.15.13-.29.26-.45.38a212.5,212.5,0,0,0-35.42-10c.86-1,1.72-1.94,2.59-2.86,1.9-2.33,3.81-4.53,5.67-6.6A45.8,45.8,0,0,0,397,76.11c6.1-14.06,4.55-23.87,4.6-24.32v0h0v0c-.09.46,0,10.35-6.93,23.14a45.4,45.4,0,0,1-7.15,9.6,125.81,125.81,0,0,0-9.89,10.62c-.14.15-.26.32-.39.48a214,214,0,0,0-35.39-2.94h0c-.78,0-1.57,0-2.37,0,.67-1.15,1.33-2.27,2-3.36,1.39-2.65,2.82-5.18,4.23-7.59a45.11,45.11,0,0,0,4.63-12c3.18-14.9-.24-24.19-.31-24.74v0h0v0c0,.56,2.06,10.21-2.18,24a45.78,45.78,0,0,1-5.13,10.82,128,128,0,0,0-7.57,12.37,6.54,6.54,0,0,0-.3.59A213.66,213.66,0,0,0,299.26,97c.41-1.23.86-2.44,1.3-3.62.87-2.87,1.8-5.63,2.74-8.26a45.37,45.37,0,0,0,2.26-12.68c.3-15.3-4.85-23.79-5-24.25v0h0v0c.1.49,4,9.59,2.42,24a46.46,46.46,0,0,1-3,11.6,128.5,128.5,0,0,0-5.1,13.58c-.06.19-.12.38-.17.57a211.35,211.35,0,0,0-36.05,11.65c.17-1.29.36-2.56.56-3.79.28-3,.64-5.87,1-8.64A45.12,45.12,0,0,0,260,84.3c-2.76-15.1-9.52-22.38-9.72-22.77v0h0v0c.17.42,5.79,8.56,7.15,23.08a45.34,45.34,0,0,1-.62,12,128.78,128.78,0,0,0-2.29,14.33c0,.19,0,.39-.06.58a212.81,212.81,0,0,0-32.11,18c-.08-1.31-.14-2.6-.19-3.87-.3-3-.5-5.89-.66-8.68a45.58,45.58,0,0,0-2.78-12.58C213.06,90.08,205,84.24,204.74,83.9h0c.24.38,7.34,7.28,11.49,21.26A45.74,45.74,0,0,1,217.92,117a130.48,130.48,0,0,0,.53,14.5c0,.2,0,.41.07.63a213.6,213.6,0,0,0-28.78,24.65c-.34-1.27-.68-2.54-1-3.78-.89-2.87-1.65-5.67-2.36-8.37a46.38,46.38,0,0,0-5.23-11.78c-8.34-12.85-17.38-17-17.74-17.27,0,0,0,0,0,0h0s0,0,0,0c.34.33,8.66,5.7,15.48,18.55a45.6,45.6,0,0,1,4,11.27,127.14,127.14,0,0,0,3.38,14.11c.08.21.14.42.21.63a212.68,212.68,0,0,0-22.22,28.13c-.58-1.17-1.12-2.35-1.64-3.52-1.42-2.63-2.72-5.24-3.91-7.76a45.45,45.45,0,0,0-7.38-10.57c-10.65-11.08-20.34-13.4-20.69-13.61h0s0,0,0,0c.34.25,9.56,3.92,18.71,15.29a45.27,45.27,0,0,1,6.1,10.3,129.32,129.32,0,0,0,6,13.22,5.79,5.79,0,0,1,.31.54,211.61,211.61,0,0,0-17.27,33.71c-.79-1-1.55-2.06-2.28-3.08-1.93-2.31-3.71-4.61-5.39-6.84a45.61,45.61,0,0,0-9.31-8.89c-12.57-8.69-22.47-9.09-23-9.24a0,0,0,0,1,0,0h0s0,0,0,0c.49.2,10.19,2,21.37,11.27a45.59,45.59,0,0,1,8,8.9,132.38,132.38,0,0,0,8.52,11.75c.12.14.26.3.37.45a211.63,211.63,0,0,0-10,35.43c-1-.86-1.94-1.73-2.86-2.6-2.33-1.89-4.53-3.8-6.6-5.66a45.31,45.31,0,0,0-10.87-6.92,52.94,52.94,0,0,0-21-4.75c-1.87,0-3,.13-3.26.13h0c.44.11,10.34,0,23.15,6.92a45.14,45.14,0,0,1,9.58,7.18,132.56,132.56,0,0,0,10.63,9.88l.48.39a216.59,216.59,0,0,0-2.93,35.42c0,.8,0,1.59,0,2.37-1.14-.65-2.28-1.32-3.37-2-2.64-1.4-5.18-2.83-7.59-4.26a45.57,45.57,0,0,0-12-4.62,59.41,59.41,0,0,0-12.34-1.35,43,43,0,0,0-12.42,1.67h0a45.26,45.26,0,0,1,6.85-.51,58.54,58.54,0,0,1,17.22,2.7,45.52,45.52,0,0,1,10.82,5.12,131.33,131.33,0,0,0,12.37,7.57l.59.3q.27,8.47,1.19,16.76L91,329.4a71.45,71.45,0,0,1,12.91-5,76.73,76.73,0,0,1-14-10.22c-17.3-15.7-32.76-15.89-32.76-15.89,19.65-13.61,36.37-19,50.39-19.46a74.32,74.32,0,0,1-14.32-14.92c-13.83-18.82-28.94-22.08-28.94-22.08,16.5-7.09,30.46-9.94,42.26-9.94a67.26,67.26,0,0,1,9.42.64,76.52,76.52,0,0,1-10-16C96,195.33,81.81,189.21,81.81,189.21a129.44,129.44,0,0,1,27-3.1,76.25,76.25,0,0,1,27,4.52,75,75,0,0,1-7.48-19.27c-5.53-22.7-18.21-31.52-18.21-31.52h1.79c21.36,0,37,4.22,48.4,10.67a77.68,77.68,0,0,1-2.71-17.16C156.46,110,145.68,99,145.68,99c23.49,4.26,39.12,12.28,49.39,21.86a74.57,74.57,0,0,1,.4-20.66C199,77,190.63,64.07,190.63,64.07c21.36,8.51,34.87,19,43.12,30A75.58,75.58,0,0,1,238,75.67c7.93-22,2.21-36.34,2.21-36.34,20.06,13,31.41,26.4,37.19,39.18a74.05,74.05,0,0,1,8.35-18.91c12.14-20,9.39-35.17,9.39-35.17,15.94,15.59,24.36,30.05,28,43a76.26,76.26,0,0,1,10.22-14c15.7-17.31,15.9-32.76,15.9-32.76M344.49,5.11l-.2,15.45c0,.37-.66,14.13-14.61,29.52q-2.83,3.12-5.25,6.35c-5.19-11.91-13.84-23.83-25.81-35.54L287.53,10.05l2.76,15.26c0,.1,2.14,13.81-8.75,31.72a86.2,86.2,0,0,0-5.07,9.6c-7.47-11.3-18.71-21.85-33.55-31.45l-13-8.43,5.75,14.42c0,.09,4.84,13.1-2.28,32.82a89.74,89.74,0,0,0-2.73,9c-9.44-9.29-22.23-17.19-38.17-23.54l-14.39-5.73,8.4,13c.05.09,7.27,11.93,4.11,32.65a86.27,86.27,0,0,0-1,10.8c-11.25-7.56-25.68-13-43.05-16.12l-15.24-2.76,10.81,11.09c.08.07,9.5,10.24,10.52,31.17.13,2.78.39,5.52.78,8.2-11.65-4.58-25.57-6.89-41.53-6.89h-1.84l-15.5.16,12.73,8.85c.08.06,11.27,8.26,16.23,28.62a86.46,86.46,0,0,0,3.21,10.37,89.83,89.83,0,0,0-18-1.73,134.65,134.65,0,0,0-28,3.21l-15.15,3.24,14.22,6.14c.1,0,12.7,5.86,21.61,24.83a86.06,86.06,0,0,0,4.45,8.31c-13.22.1-27.9,3.58-43.65,10.35L48,243.36l15.15,3.27c.1,0,13.59,3.29,26,20.17a86.09,86.09,0,0,0,7,8.34c-13.3,2.61-27.33,9-41.85,19L41.52,303,57,303.2c.1,0,14,.52,29.48,14.6,2.08,1.88,4.2,3.64,6.36,5.25q-2.06.9-4.11,1.92L70,334.35H91l39.49,0H136l-.61-5.49c-.6-5.46-1-11-1.17-16.36l-.07-2.21,0-2.33v-.79c0-.5,0-1,0-1.5A212.26,212.26,0,0,1,136.94,271l.37-2.18.43-2.28a207.75,207.75,0,0,1,9.74-34.6l.88-2.32.76-1.89A207.38,207.38,0,0,1,166,194.81l1.45-2.29,1-1.51a209.6,209.6,0,0,1,21.71-27.48l1.79-1.92,1.33-1.36a209.54,209.54,0,0,1,28.12-24.08L223,135l2.12-1.44A208.09,208.09,0,0,1,256.46,116l2.07-.93,2.08-.89a208.07,208.07,0,0,1,35.21-11.37l2.43-.55,2-.41A209.84,209.84,0,0,1,335,97.77l2.66-.08,1.84,0,1.13,0h1.21a210.63,210.63,0,0,1,34.6,2.87l2.52.42,1.95.37a207.52,207.52,0,0,1,34.59,9.75l2.24.85,2,.8a207.36,207.36,0,0,1,32.93,16.86l1.7,1.07,2.09,1.39A209.85,209.85,0,0,1,484,153.71l1.52,1.43,1.75,1.71A207.91,207.91,0,0,1,511.31,185l1.65,2.33.95,1.39A210.12,210.12,0,0,1,531.51,220l.75,1.68,1.06,2.47a207.15,207.15,0,0,1,11.37,35.21l.59,2.61.37,1.81a208.75,208.75,0,0,1,4,33.16l.16,6.2c0,.76,0,1.52,0,2.29a210.05,210.05,0,0,1-1.3,23.17l-.61,5.49h5.53l40.95,0h.73l.69-.21c10.86-3.28,22.24-9,33.82-17L642.38,308l-15.5-.19c-.1,0-14-.52-29.49-14.6-2.06-1.88-4.18-3.63-6.34-5.25,11.91-5.19,23.83-13.84,35.53-25.8l10.83-11.07-15.24,2.74h0a22.18,22.18,0,0,1-3.21.19c-5.15,0-15.7-1.17-28.5-9a86.13,86.13,0,0,0-9.61-5.06c11.3-7.47,21.84-18.7,31.45-33.54l8.42-13-14.41,5.73a36.78,36.78,0,0,1-11.76,1.63,62.29,62.29,0,0,1-21.07-3.92,88.19,88.19,0,0,0-9-2.73C573.75,184.76,581.65,172,588,156l5.75-14.39-13,8.39s-8,4.93-22.31,4.93a68.4,68.4,0,0,1-10.35-.81,86.47,86.47,0,0,0-10.81-1c7.56-11.24,13-25.67,16.13-43l2.77-15.24-11.09,10.81c-.08.07-10.26,9.5-31.18,10.52-2.8.14-5.55.4-8.21.78,4.76-12.09,7.07-26.63,6.89-43.37l-.17-15.5-8.84,12.73c-.06.08-8.27,11.27-28.64,16.23a86.14,86.14,0,0,0-10.35,3.21c2.71-13.27,2.22-28.67-1.48-45.95L459.86,29.2l-6.14,14.21c0,.1-5.87,12.7-24.82,21.61a85.41,85.41,0,0,0-8.33,4.45c-.1-13.26-3.56-27.89-10.35-43.65L404.1,11.6l-3.26,15.14c0,.1-3.28,13.58-20.17,26a86,86,0,0,0-8.33,7c-2.61-13.31-9-27.34-19-41.85L344.49,5.11Z"></path><path class="cls-2" d="M563.44,459.06l-63.84,0q.76,3.36,1.37,6.54a45.85,45.85,0,0,0,4,11.27c7,13.28,15.7,18.56,15.48,18.57.23-.06-9.13-4-17.73-17.29a45.21,45.21,0,0,1-5.23-11.78c-.63-2.36-1.3-4.81-2.06-7.31h-6.18a212.87,212.87,0,0,1-23.88,19.81c0,.2.05.42.07.63A127.94,127.94,0,0,1,466,494a44.81,44.81,0,0,0,1.71,11.84c4.26,14.42,11.69,21.31,11.47,21.28.24,0-8.14-5.76-13.94-20.47a45.29,45.29,0,0,1-2.79-12.59c-.15-2.79-.35-5.69-.66-8.67,0-1.27-.09-2.57-.18-3.87a213.73,213.73,0,0,1-32.12,18c0,.19,0,.39-.05.58a128.71,128.71,0,0,1-2.3,14.33,45,45,0,0,0-.61,12c1.4,15,7.34,23.17,7.14,23.1.23,0-6.88-7.23-9.73-22.79a45.52,45.52,0,0,1-.29-12.88c.39-2.77.76-5.66,1-8.64.21-1.24.4-2.51.57-3.8a211.46,211.46,0,0,1-36.06,11.65c-.06.19-.11.39-.17.58a127.14,127.14,0,0,1-5.1,13.58,45.4,45.4,0,0,0-3,11.59c-1.61,14.95,2.59,24.17,2.4,24.06.23.07-5.29-8.46-5-24.26A46,46,0,0,1,380.61,526c.94-2.64,1.87-5.39,2.74-8.27.44-1.18.88-2.39,1.29-3.62a213.3,213.3,0,0,1-35.58,4.16c-.11.19-.2.39-.3.58a130.06,130.06,0,0,1-7.58,12.37A45.52,45.52,0,0,0,336.06,542c-4.4,14.37-2,24.22-2.19,24.08.2.13-3.61-9.3-.32-24.77a45.8,45.8,0,0,1,4.63-12c1.41-2.41,2.85-4.93,4.24-7.6.69-1.08,1.35-2.21,2-3.35l-2.36,0a215.31,215.31,0,0,1-35.42-2.92,5.84,5.84,0,0,0-.39.48,127.28,127.28,0,0,1-9.89,10.61,46,46,0,0,0-7.17,9.59c-7.18,13.22-6.81,23.34-6.93,23.17.18.16-1.69-9.83,4.62-24.35a45.58,45.58,0,0,1,6.92-10.86c1.87-2.08,3.78-4.27,5.67-6.59.87-.93,1.74-1.88,2.6-2.87a210.85,210.85,0,0,1-35.44-10,4.19,4.19,0,0,1-.45.39,128.8,128.8,0,0,1-11.75,8.51,45.85,45.85,0,0,0-8.89,8c-9.6,11.57-11.19,21.58-11.28,21.39.14.19.25-10,9.23-23a45.48,45.48,0,0,1,8.91-9.31c2.22-1.68,4.53-3.47,6.83-5.38,1-.74,2.06-1.5,3.09-2.3a212.39,212.39,0,0,1-33.71-17.26c-.18.1-.37.21-.56.3a128.27,128.27,0,0,1-13.2,6,46.44,46.44,0,0,0-10.31,6.09c-11.71,9.43-15.25,18.92-15.31,18.72.11.21,2.24-9.72,13.64-20.7a45.64,45.64,0,0,1,10.56-7.36c2.52-1.2,5.13-2.49,7.77-3.91,1.16-.53,2.34-1.08,3.51-1.65a214.35,214.35,0,0,1-28.13-22.22l-.62.2a130.12,130.12,0,0,1-14.11,3.39,46.23,46.23,0,0,0-11.28,4C157.29,475.61,152,484.25,152,484c0,.22,4-9.13,17.3-17.74a45.55,45.55,0,0,1,11.76-5.23c2.12-.55,4.32-1.17,6.56-1.83l-35.93,0c-7.08,10-12.9,23.76-16.32,42.56,0,0,11.06-10.8,34.4-11.93a77.19,77.19,0,0,0,17.16-2.71c-6.63,11.72-10.9,27.9-10.65,50.19,0,0,8.8-12.68,31.52-18.22a74.46,74.46,0,0,0,19.26-7.48c-4.95,13.13-6.43,30.64-1.42,54,0,0,6.12-14.18,27.27-24.11a75.46,75.46,0,0,0,16-10c-1.9,13.59.23,30.56,9.31,51.68,0,0,3.25-15.09,22.08-28.94A74.76,74.76,0,0,0,315.22,540c.48,14,5.86,30.75,19.47,50.38,0,0,.18-15.45,15.88-32.76a77.1,77.1,0,0,0,10.23-14c3.59,13,12,27.44,28,43,0,0-2.75-15.21,9.38-35.18a73.7,73.7,0,0,0,8.35-18.91c5.79,12.78,17.13,26.2,37.17,39.18,0,0-5.69-14.35,2.24-36.34A75.53,75.53,0,0,0,450.16,517c8.26,11,21.77,21.45,43.12,30,0,0-8.37-13-4.85-36.08a74.32,74.32,0,0,0,.42-20.67c10.28,9.58,25.9,17.61,49.4,21.87,0,0-10.79-11.06-11.93-34.4a77.38,77.38,0,0,0-2.71-17.17c11.73,6.64,27.9,10.91,50.2,10.67C573.81,471.2,568.63,467.58,563.44,459.06Z"></path><path class="cls-1" d="M563.44,459.06c5.19,8.52,10.37,12.14,10.37,12.14H572c-21.37,0-37-4.22-48.39-10.68a77.38,77.38,0,0,1,2.71,17.17c1.14,23.34,11.93,34.4,11.93,34.4-23.5-4.26-39.12-12.29-49.4-21.87a74.32,74.32,0,0,1-.42,20.67C484.91,534,493.28,547,493.28,547c-21.35-8.52-34.86-19-43.12-30a75.53,75.53,0,0,1-4.26,18.36c-7.93,22-2.24,36.34-2.24,36.34-20-13-31.38-26.4-37.17-39.18a73.7,73.7,0,0,1-8.35,18.91c-12.13,20-9.38,35.18-9.38,35.18-15.95-15.59-24.37-30-28-43a77.1,77.1,0,0,1-10.23,14c-15.7,17.31-15.88,32.76-15.88,32.76-13.61-19.63-19-36.35-19.47-50.38a74.76,74.76,0,0,1-14.91,14.31c-18.83,13.85-22.08,28.94-22.08,28.94-9.08-21.12-11.21-38.09-9.31-51.68a75.46,75.46,0,0,1-16,10c-21.15,9.93-27.27,24.11-27.27,24.11-5-23.35-3.53-40.86,1.42-54a74.46,74.46,0,0,1-19.26,7.48c-22.72,5.54-31.52,18.22-31.52,18.22-.25-22.29,4-38.47,10.65-50.19a77.19,77.19,0,0,1-17.16,2.71c-23.34,1.13-34.4,11.93-34.4,11.93,3.42-18.8,9.24-32.56,16.32-42.56l35.93,0c-2.24.66-4.44,1.28-6.56,1.83a45.55,45.55,0,0,0-11.76,5.23c-12.91,8.37-17,17.45-17.29,17.74h0c.29-.27,5.64-8.63,18.55-15.48a46.23,46.23,0,0,1,11.28-4A130.12,130.12,0,0,0,196,461.14l.62-.2a214.35,214.35,0,0,0,28.13,22.22c-1.17.57-2.35,1.12-3.51,1.65-2.64,1.42-5.25,2.71-7.77,3.91a45.64,45.64,0,0,0-10.56,7.36c-11,10.61-13.38,20.25-13.62,20.69h0c.28-.43,4-9.6,15.29-18.71A46.44,46.44,0,0,1,214.85,492a128.27,128.27,0,0,0,13.2-6c.19-.09.38-.2.56-.3a212.39,212.39,0,0,0,33.71,17.26c-1,.8-2.05,1.56-3.09,2.3-2.3,1.91-4.61,3.7-6.83,5.38a45.48,45.48,0,0,0-8.91,9.31c-8.71,12.62-9.08,22.55-9.22,23h0c.19-.43,2-10.17,11.27-21.38a45.85,45.85,0,0,1,8.89-8A128.8,128.8,0,0,0,266.18,505a4.19,4.19,0,0,0,.45-.39,210.85,210.85,0,0,0,35.44,10c-.86,1-1.73,1.94-2.6,2.87-1.89,2.32-3.8,4.51-5.67,6.59a45.58,45.58,0,0,0-6.92,10.86c-6.1,14-4.56,23.83-4.61,24.33,0,0,0,0,0,0h0s0,0,0,0c.1-.51,0-10.38,6.92-23.15a46,46,0,0,1,7.17-9.59,127.28,127.28,0,0,0,9.89-10.61,5.84,5.84,0,0,1,.39-.48A214.22,214.22,0,0,0,342,518.34h.38l2.07,0c-.65,1.14-1.31,2.27-2,3.36-1.39,2.66-2.83,5.18-4.24,7.59a45.8,45.8,0,0,0-4.63,12c-3.18,15,.29,24.29.33,24.75v0h0v0c0-.47-2.08-10.15,2.18-24.06a45.52,45.52,0,0,1,5.12-10.82,130.06,130.06,0,0,0,7.58-12.37c.1-.19.19-.39.3-.58a213.3,213.3,0,0,0,35.58-4.16c-.41,1.23-.85,2.44-1.29,3.62-.87,2.88-1.8,5.63-2.74,8.27a46,46,0,0,0-2.26,12.68c-.29,15.27,4.85,23.75,5,24.24,0,0,0,0,0,0h0s0,0,0,0c-.1-.52-3.95-9.61-2.4-24a45.4,45.4,0,0,1,3-11.59,127.14,127.14,0,0,0,5.1-13.58c.06-.19.11-.39.17-.58a211.46,211.46,0,0,0,36.06-11.65c-.17,1.29-.36,2.56-.57,3.8-.27,3-.64,5.87-1,8.64a45.52,45.52,0,0,0,.29,12.88c2.75,15,9.49,22.32,9.73,22.76v0h0s0,0,0,0c-.2-.47-5.79-8.62-7.14-23.07a45,45,0,0,1,.61-12,128.71,128.71,0,0,0,2.3-14.33c0-.19,0-.39.05-.58a213.73,213.73,0,0,0,32.12-18c.09,1.3.14,2.6.18,3.87.31,3,.51,5.88.66,8.67a45.29,45.29,0,0,0,2.79,12.59c5.63,14.28,13.69,20.12,13.94,20.45v0h0v0c-.22-.36-7.34-7.27-11.47-21.26A44.81,44.81,0,0,1,466,494a127.94,127.94,0,0,0-.53-14.5c0-.21,0-.43-.07-.63a212.87,212.87,0,0,0,23.88-19.81h6.18c.76,2.5,1.43,5,2.06,7.31a45.21,45.21,0,0,0,5.23,11.78c8.34,12.86,17.39,17,17.73,17.28h0a0,0,0,0,0,0,0c-.32-.33-8.65-5.7-15.48-18.56a45.85,45.85,0,0,1-4-11.27q-.6-3.18-1.37-6.54l63.84,0m2.78-4.95h-2.78l-63.84,0H487.28l-1.44,1.38a210.1,210.1,0,0,1-23.32,19.35l-2,1.45-1.67,1.14a208.06,208.06,0,0,1-31.37,17.59l-2.36,1.07-1.78.75a206.63,206.63,0,0,1-35.21,11.37l-2.35.54-2.08.42a208.78,208.78,0,0,1-34.77,4.06l-2.86.09H342a210.71,210.71,0,0,1-34.51-2.85l-1.95-.33-2.52-.47a206.59,206.59,0,0,1-34.6-9.75l-2.4-.91-1.82-.74a207.61,207.61,0,0,1-32.92-16.86l-2.14-1.34L227.44,479a210.43,210.43,0,0,1-24.64-19.09L222,454.28l-34.41,0H149.14l-1.47,2.09c-8.09,11.42-13.86,26.41-17.15,44.53l-2.77,15.26,11.09-10.83c.08-.08,10.25-9.51,31.18-10.53,2.8-.14,5.54-.4,8.2-.78-4.76,12.09-7.07,26.63-6.88,43.38l.17,15.49,8.84-12.73c.06-.08,8.26-11.27,28.63-16.23a89.47,89.47,0,0,0,10.36-3.21c-2.72,13.28-2.23,28.69,1.48,46l3.25,15.14,6.13-14.22c0-.09,5.86-12.68,24.82-21.59a87.49,87.49,0,0,0,8.32-4.46c.11,13.26,3.57,27.89,10.35,43.65l6.12,14.24,3.26-15.16c0-.1,3.28-13.58,20.17-26a88.57,88.57,0,0,0,8.34-7c2.6,13.3,9,27.33,19,41.85l8.82,12.74.19-15.49c0-.11.53-14,14.61-29.49q2.82-3.11,5.25-6.35c5.18,11.91,13.83,23.83,25.81,35.54L396.38,601l-2.76-15.25c0-.11-2.13-13.82,8.75-31.73a84.48,84.48,0,0,0,5.07-9.6c7.47,11.31,18.71,21.85,33.53,31.46l13,8.41-5.71-14.39c0-.1-4.82-13.12,2.29-32.84a90.53,90.53,0,0,0,2.73-9c9.45,9.3,22.24,17.19,38.17,23.55l14.39,5.74-8.4-13c-.05-.09-7.27-11.93-4.12-32.65a86.8,86.8,0,0,0,1-10.82c11.26,7.57,25.69,13,43.06,16.13l15.24,2.77-10.81-11.09c-.07-.08-9.5-10.25-10.53-31.19-.13-2.78-.39-5.52-.78-8.19,11.65,4.58,25.56,6.89,41.52,6.89h1.86l15.42-.17-12.64-8.83s-4.47-3.27-9-10.65l-1.45-2.38Z"></path><path class="cls-3" d="M410.88,168.33a1.26,1.26,0,0,0-1.67.19v0a68.68,68.68,0,0,1-15.46,13.31,44.1,44.1,0,0,1-19.13,6.84,44.71,44.71,0,0,1-10.11-1c-3.51-.6-7.15-1.14-10.88-1.48a71.63,71.63,0,0,0-11.25.07,77.74,77.74,0,0,0-11,1.93c-7.1,1.83-14.33,4.53-20.41,8.81a50.81,50.81,0,0,0-14.74,15.72c-7.28,12.21-8.93,26.52-6.5,39.65l.36.3.36-.37c-.35-13.2,2.8-26.42,10.12-37.2a49,49,0,0,1,14-13.54A57.6,57.6,0,0,1,333,194.13a78.74,78.74,0,0,1,20.31-2.35c3.44,0,6.91.25,10.51.56s7.3.69,11.29.08c7.55-1.39,14.11-4.78,20-8.75a74,74,0,0,0,8.4-6.46c1.55-1.33,3-2.74,4.49-4.16a100.69,100.69,0,0,1-3.86,11.74,94.62,94.62,0,0,1-7.24,14.83c-5.64,9.32-13,18.06-22.9,22.28a49.65,49.65,0,0,1-7.87,2.45,71.83,71.83,0,0,1-8.34,1.51,102.7,102.7,0,0,1-17.13.57c-5.8-.21-11.76-.76-18.07-.67a50.09,50.09,0,0,0-9.68,1.05,1.89,1.89,0,0,1-.32.1,38.76,38.76,0,0,1,4.3-5,50.61,50.61,0,0,1,13.16-9A57.78,57.78,0,0,1,346,208.17a76.09,76.09,0,0,1,17.1-.61l.36-.27-.27-.42a68.62,68.62,0,0,0-17.52-1.42,57.76,57.76,0,0,0-17.45,3.6A50.45,50.45,0,0,0,312.81,218a47,47,0,0,0-6.22,6.4,25.12,25.12,0,0,0-4.4,8.26,3,3,0,0,0,.4,2.4,3.49,3.49,0,0,0,4.6,1l.22-.12c4.44-2.5,9.65-3.26,15.27-3.21s11.59.76,17.7.92a91.54,91.54,0,0,0,18.59-.94,85.69,85.69,0,0,0,9.13-2,58.07,58.07,0,0,0,9-3.09,44.41,44.41,0,0,0,14.73-11.29,65.46,65.46,0,0,0,9.55-14.75,126.69,126.69,0,0,0,10-32.27A1.09,1.09,0,0,0,410.88,168.33Z"></path><path class="cls-3" d="M378.25,242.7l-17.75,3.64,0,24.15-19.6,2.56V249.87l-17.76,3.64v21.86l-19.61,2.55,0-20.9-17.72,3.66,0,19.56L249.4,285l0,46.47c0,4.82,4.24,8.77,9.49,8.77l123.24-.05c5.23,0,9.51-4,9.49-8.79l0-65-13.36,1.75Zm-39.5,45.89h11.57v20H338.76Zm-28.26.45,3.34-.44H324v20l-13.48,0Zm68.07-.47v20.05H365.09V288.58Z"></path><path class="cls-3" d="M638.68,375.77l28.87-44-105.68.05,34.44,23.47-508.2.25L122.54,332l-105.68.06,28.91,44L16.9,420.73l70.45,0,0,23.48,509.31-.25V420.45l70.92,0Zm-42-19.91v-.36l.14.1Z"></path><path class="cls-1" d="M667.55,331.76h0m0,0-28.87,44,28.91,44.65-70.92,0v23.48l-509.31.25,0-23.48-70.45,0,28.87-44.67-28.91-44L122.54,332,88.11,355.53l508.2-.25-34.44-23.47,105.68-.05m-70.9,24.1.13-.26-.14-.1v.36m80.07-29.05h-9.17l-105.69.05h-16l13.25,9,21.2,14.44-476.14.23,21.19-14.46,13.24-9h-16l-105.67.05H7.69l5,7.66,27.13,41.28L12.75,418l-4.94,7.64H16.9l65.51,0v23.48h5l509.32-.25h4.94V425.39l66,0h9.1l-4.94-7.63-27.16-41.94,27.1-41.31,5-7.67Zm-9.17,0h0Zm0,9.9Z"></path><path class="cls-1" d="M188.23,394.42l-7.75.57q-.16-7.86-5.23-7.85-5.79,0-5.79,12.1,0,7,1.58,9.47a5,5,0,0,0,4.41,2.48q4.59,0,5.61-7l7.18.51q-.69,6.66-4.22,10.12a11.88,11.88,0,0,1-8.65,3.47,12.32,12.32,0,0,1-10.2-5.07q-3.91-5.08-3.93-14,0-8.4,3.79-13.76a12.06,12.06,0,0,1,10.37-5.35Q186.79,380,188.23,394.42Z"></path><path class="cls-1" d="M205.32,380.6l9.9,37.09h-7.95l-2-7.64H195.1l-2,7.63h-6.49l10.11-37.1Zm-8.44,22.62h6.69l-3.32-13Z"></path><path class="cls-1" d="M223.7,403v14.7h-7.45l0-37.09h13.89a15.38,15.38,0,0,1,6.17,1,8.44,8.44,0,0,1,3.85,3.84,12.77,12.77,0,0,1,1.53,6.22q0,6.69-5.48,9.59l5.84,16.4h-8.18L229,403Zm0-15.79v9.45h4.54a10.08,10.08,0,0,0,3.23-.37,3.7,3.7,0,0,0,1.79-1.63,5.31,5.31,0,0,0,.78-2.89,5,5,0,0,0-.78-2.77,3.34,3.34,0,0,0-1.72-1.51,13.72,13.72,0,0,0-3.47-.29Z"></path><path class="cls-1" d="M245,380.58h14.72a12.17,12.17,0,0,1,5.95,1.13A9.33,9.33,0,0,1,269,385a9.73,9.73,0,0,1,1.29,5.16q0,6.17-5.69,8.23a8,8,0,0,1,4.94,3.45,10.33,10.33,0,0,1,1.64,5.63,10.48,10.48,0,0,1-2.68,7.19q-2.69,3-8.72,3H245Zm7.38,6.55v8.12H258c2.05,0,3.34-.48,3.87-1.43a5.52,5.52,0,0,0,.8-2.73,4.37,4.37,0,0,0-.66-2.43,2.88,2.88,0,0,0-1.45-1.28,12.13,12.13,0,0,0-3.1-.25Zm0,14.73v8.94h5.69c1.94,0,3.31-.4,4.11-1.2a5,5,0,0,0,0-6.44,4.9,4.9,0,0,0-3.83-1.31Z"></path><path class="cls-1" d="M285.42,418.23a11,11,0,0,1-9.88-5.62A25.3,25.3,0,0,1,272,399q0-8.13,3.53-13.57A11.35,11.35,0,0,1,285.65,380a10.84,10.84,0,0,1,10,5.8A26,26,0,0,1,299,399.06a25.24,25.24,0,0,1-3.47,13.62A11.2,11.2,0,0,1,285.42,418.23Zm.19-31.14q-5.82,0-5.82,12t5.83,12q5.64,0,5.63-12T285.61,387.09Z"></path><path class="cls-1" d="M325.77,380.54l0,37.1h-6.32L307.1,392.59c0,.64,0,1.05,0,1.25.06.64.1,1.17.1,1.6v22.21h-5.77l0-37.09h8l10.76,21.87c-.09-1.09-.14-1.91-.14-2.47v-19.4Z"></path><path class="cls-1" d="M341.62,418.2a11,11,0,0,1-9.88-5.62A25.39,25.39,0,0,1,328.25,399q0-8.13,3.53-13.57A11.37,11.37,0,0,1,341.86,380a10.86,10.86,0,0,1,10,5.8A25.9,25.9,0,0,1,355.21,399a25.13,25.13,0,0,1-3.46,13.62A11.22,11.22,0,0,1,341.62,418.2Zm.2-31.14q-5.82,0-5.82,12t5.83,12q5.64,0,5.63-12C347.46,391.07,345.57,387.06,341.82,387.06Z"></path><path class="cls-1" d="M391.46,380.51l0,37.1h-6.32l-12.37-25.05c0,.63,0,1.05,0,1.25.06.63.1,1.17.1,1.6v22.2h-5.77l0-37.1h8l10.76,21.87c-.09-1.09-.14-1.91-.14-2.47V380.51Z"></path><path class="cls-1" d="M418,387.56H403v7.61h11.83v7H403v8.1h15v7.33H395.45l0-37.09H418Z"></path><path class="cls-1" d="M445,380.49v23.09a23.78,23.78,0,0,1-1.08,8.33,9.14,9.14,0,0,1-4,4.49,17.13,17.13,0,0,1-14.75.18,9.78,9.78,0,0,1-4-4.48q-1.35-2.91-1.35-8.5V380.5h8l0,23.1a16.2,16.2,0,0,0,.43,4.4,4,4,0,0,0,1.71,2.25,5.74,5.74,0,0,0,3.16.82,6.35,6.35,0,0,0,3.39-.81,4,4,0,0,0,1.74-2.17,16.73,16.73,0,0,0,.42-4.49v-23.1Z"></path><path class="cls-1" d="M468.51,380.47v7.34h-7.83l0,29.76h-7.5l0-29.76h-7.87v-7.33Z"></path><path class="cls-1" d="M476.78,402.86v14.7h-7.46v-37.1H483.2a15,15,0,0,1,6.17,1,8.41,8.41,0,0,1,3.86,3.84,12.74,12.74,0,0,1,1.53,6.22q0,6.68-5.48,9.59l5.84,16.39h-8.18l-4.86-14.7Zm0-15.79v9.46h4.53a10.34,10.34,0,0,0,3.23-.37,3.77,3.77,0,0,0,1.8-1.63,5.4,5.4,0,0,0,.78-2.9,5,5,0,0,0-.79-2.77,3.33,3.33,0,0,0-1.71-1.51,14,14,0,0,0-3.47-.28Z"></path><path class="cls-1" d="M509.36,418.12a11,11,0,0,1-9.88-5.62,25.31,25.31,0,0,1-3.5-13.62q0-8.11,3.53-13.56a11.35,11.35,0,0,1,10.08-5.44,10.87,10.87,0,0,1,10,5.8A26,26,0,0,1,523,399a25.24,25.24,0,0,1-3.46,13.62A11.23,11.23,0,0,1,509.36,418.12Zm.19-31.14q-5.82,0-5.81,12t5.82,12q5.64,0,5.63-12T509.55,387Z"></path></svg> 