<?xml version="1.0" encoding="UTF-8"?> <svg xmlns="http://www.w3.org/2000/svg" xmlns:xlink="http://www.w3.org/1999/xlink" id="Layer_1" data-name="Layer 1" viewBox="0 0 1019.28 663.51"><defs><style>.cls-1,.cls-3,.cls-5{fill:none;}.cls-2{fill:#fff;}.cls-2,.cls-3{fill-rule:evenodd;}.cls-3,.cls-5{stroke:#fff;stroke-miterlimit:3.86;}.cls-3{stroke-width:8.32px;}.cls-4{clip-path:url(#clip-path);}.cls-5{stroke-width:8.95px;}</style><clipPath id="clip-path"><path class="cls-1" d="M375.45,397s12.31-5.6,33.57-4.48,133.12,39.16,147.66,36.92,31.33-7.83,38-11.18,51.46-92.84,51.46-92.84l-71.6-132L424.64,190,366.53,273.9l-1.12,91.75Z"></path></clipPath></defs><path class="cls-2" d="M266.43,196l-4-6.43q7.1-2.42,9.45-5.42,4.26-5.46-.34-9-3.29-2.58-9.77.85a55.44,55.44,0,0,1-7.09,3.28,15.91,15.91,0,0,1-4.1.73,10.46,10.46,0,0,1-7.19-2.29,9.61,9.61,0,0,1-4-8,15.65,15.65,0,0,1,3.79-9.57q2.84-3.65,9.44-7.37l4.14,5.93a14.37,14.37,0,0,0-8.29,4.86,7.72,7.72,0,0,0-1.78,4.33,3.71,3.71,0,0,0,1.39,3.4q3.18,2.51,7.67.17l5.22-2.73a18.8,18.8,0,0,1,8.43-2.49,11.36,11.36,0,0,1,7,2.68,10.79,10.79,0,0,1,4.56,8.59q.06,5.1-4.24,10.64A25.06,25.06,0,0,1,266.43,196Z"></path><path class="cls-2" d="M276.2,153.8q-6.57-7.26-6.64-15.23a17.51,17.51,0,0,1,6.25-13.7q6.72-6.06,14.29-5.11t14.43,8.55q6.81,7.58,7,15.37t-6.4,13.69q-6.69,6-14.41,5T276.2,153.8Zm5.87-5.28q10.59,11.78,18.9,4.3a9.46,9.46,0,0,0,3.24-8.63q-.66-5.13-5.56-10.6Q288.18,122,279.9,129.41a9.56,9.56,0,0,0-3.27,8.54Q277.17,143.11,282.07,148.52Z"></path><path class="cls-2" d="M323.72,137.52l-1.63-7.36q7.47,0,10.65-2,5.79-3.76,2.62-8.65-2.3-3.48-9.53-2.39a54.68,54.68,0,0,1-7.76.77,15.47,15.47,0,0,1-4.12-.64,11.11,11.11,0,0,1-3.45-1.7,10.63,10.63,0,0,1-2.59-2.8,9.6,9.6,0,0,1-1.24-8.86,15.78,15.78,0,0,1,6.7-7.83q3.87-2.52,11.33-3.89l2,7a14.44,14.44,0,0,0-9.42,1.9,7.66,7.66,0,0,0-3.08,3.53,3.73,3.73,0,0,0,.2,3.67c1.46,2.27,3.86,3.16,7.2,2.65l5.81-.86a18.64,18.64,0,0,1,8.78.4,11.4,11.4,0,0,1,5.8,4.82,10.8,10.8,0,0,1,1.51,9.61q-1.58,4.85-7.46,8.65A25,25,0,0,1,323.72,137.52Z"></path><path class="cls-2" d="M343.53,86.28l-4.42,2.15-2.58-5.32L341,81l-3.87-7.85,5.45-5.9,5.12,10.5,10.42-5.08,2.58,5.28L350.23,83l9.18,18.84c1.55,3.18,3.19,5.19,4.92,6s3.78.65,6.18-.52a14.11,14.11,0,0,0,4.73-3.92l3.87,5.4a42.09,42.09,0,0,1-8.65,5.56,11.13,11.13,0,0,1-9.24.37,13.25,13.25,0,0,1-7.22-6.93Z"></path><path class="cls-2" d="M416.43,75.88l-29,8.86q2.13,7.07,7.18,9.69a12.81,12.81,0,0,0,9.83.62,15.55,15.55,0,0,0,9.11-6.75l4.58,4.25A14.08,14.08,0,0,1,413.94,97a29.19,29.19,0,0,1-9.07,4.51,18.61,18.61,0,0,1-14.47-1.22q-7.65-3.87-10.58-13.48Q376.76,76.79,381,69a18.37,18.37,0,0,1,11.18-9.29q8.61-2.64,15,.74,6.16,3.23,8.53,10.95A17.43,17.43,0,0,1,416.43,75.88ZM394.32,65.54a11.63,11.63,0,0,0-7.1,5.57A11.8,11.8,0,0,0,386,79.54l22.34-6.83a10.84,10.84,0,0,0-4.92-6.46A11,11,0,0,0,394.32,65.54Z"></path><path class="cls-2" d="M458.53,89l-3.82-24.22q-1.05-6.64-3.47-9c-1.62-1.56-4-2.1-7.1-1.6a11.11,11.11,0,0,0-5,2.35,11.88,11.88,0,0,0-3.65,4.4l4.92,30.94L433,93.08l-6.59-41.6,5-.81,3.19,5q2.67-6.73,11-8,13.67-2.23,16.29,14.44L466,87.88Z"></path><path class="cls-2" d="M484.18,29.3A4.59,4.59,0,1,1,479.72,34,4.52,4.52,0,0,1,481,30.76,4.46,4.46,0,0,1,484.18,29.3Zm-2.11,58.18-1.25-35.82-5.79.2-.22-6.28,13.28-.47,1.44,42.11Z"></path><path class="cls-2" d="M509.83,84.51,507,88.11l-3.73-.27,4.19-60,7.48.52-1.42,20.28a9.25,9.25,0,0,1,4.17-2.39,15.19,15.19,0,0,1,5.83-.82,18,18,0,0,1,13.58,7q4.92,6.34,4.3,15.45Q540.6,78.36,534.8,84t-15,5A16.4,16.4,0,0,1,514,87.48,11.79,11.79,0,0,1,509.83,84.51Zm3.23-30.17-1.7,24.29c0,.42.85,1.18,2.64,2.26a10.7,10.7,0,0,0,4.13,1.73q7.59.54,11.16-2.89t4.15-12q.49-7.16-3.06-11.43t-10.07-4.73a9.74,9.74,0,0,0-3.91.91,9.47,9.47,0,0,0-3.34,1.86Z"></path><path class="cls-2" d="M568.46,36.65a4.6,4.6,0,1,1-3.47.7A4.48,4.48,0,0,1,568.46,36.65ZM553.32,92.87l6.84-35.18-5.69-1.09,1.2-6.17,13,2.54-8,41.35Z"></path><path class="cls-2" d="M577.47,86.28l13.06-45.62,7.2,2.06L585,87.11a7.17,7.17,0,0,0,.39,5.65A6.8,6.8,0,0,0,589.77,96l-1.84,6.43Q574,98.48,577.47,86.28Z"></path><path class="cls-2" d="M625.59,53.74a4.63,4.63,0,0,1-3.09,8.73l-.08,0h-.15A4.42,4.42,0,0,1,619.73,60a4.61,4.61,0,0,1,5.86-6.21Zm-24.66,52.73L613.78,73l-5.42-2.07,2.25-5.83L623,69.88l-15.1,39.23Z"></path><path class="cls-2" d="M644.53,127l1.46-2.73q-5.25,1.56-11.81-1.94a16.12,16.12,0,0,1-8.66-11q-1.68-7.31,2.73-15.64a24.16,24.16,0,0,1,12.56-11.62q8.15-3.26,15.06.42,5.76,3.06,7.31,7.36l9.16-17.21L679,78.19,651.1,130.62Zm15.21-28.61a8.84,8.84,0,0,0-4.84-7.38,12,12,0,0,0-10.69-.62,17.3,17.3,0,0,0-8.64,8.33q-7.14,13.42,5.07,19.92a10.57,10.57,0,0,0,4.28,1,6.16,6.16,0,0,0,3.86-.64Z"></path><path class="cls-2" d="M683.88,150.4q-7.05,1.44-14.12-4.49a11.71,11.71,0,0,1-4.25-8.28,12.06,12.06,0,0,1,3-9.2q4.13-4.92,11.26-4.72t13.76,5.78a16.64,16.64,0,0,1,3.42,4.23q6.54-7.83-.42-13.7-5.35-4.5-10.68-4l1.64-6.84a18.67,18.67,0,0,1,6.4,1.52,23,23,0,0,1,6.29,3.67q7,5.89,7.52,11.75T702.35,139l-9.74,11.6q-3.55,4.23-2.18,7.79l-2.38,2.77c-2.33-2-3.8-3.75-4.4-5.38A7.27,7.27,0,0,1,683.88,150.4Zm9.65-12.61a26.87,26.87,0,0,0-3.28-3.79,14,14,0,0,0-8.93-3.68,8.68,8.68,0,0,0-7.18,3q-4.26,5.06,1.68,10,4.32,3.65,11.12,2.3Z"></path><path class="cls-2" d="M713.27,190.39l2.46-1.92q-5.43-.71-10-6.55a16.17,16.17,0,0,1-3.44-13.59q1.44-7.37,8.9-13.19a24.26,24.26,0,0,1,16.24-5.5q8.76.35,13.59,6.51,4,5.13,3.69,9.7l15.36-12,4.61,5.89-46.79,36.54Zm25.54-19.95a8.91,8.91,0,0,0-1.43-8.74,12,12,0,0,0-9.51-4.91,17.2,17.2,0,0,0-11.27,4.09q-12,9.36-3.47,20.26a10.58,10.58,0,0,0,3.5,2.65,6.08,6.08,0,0,0,3.78,1Z"></path><path class="cls-3" d="M271.3,303.31c-1.77-99.64,95.85-182.13,217.93-184.2S711.73,196,713.53,295.66s-95.86,182.14-218,184.25S273.06,403,271.3,303.31Z"></path><g class="cls-4"><circle class="cls-5" cx="495.72" cy="327.04" r="122.49"></circle></g><path class="cls-2" d="M489.53,324.24s-6.71-2.23-8.95,5.6-7.83,16.78-1.09,17.9,11.18-5.6,11.18-13.43S489.53,324.24,489.53,324.24ZM501.83,407s-5.59-43.65-2.23-52.58,17.9-1.09,17.9-8.95-2.24-20.14,11.19-20.14,45.87-3.35,42.5-13.42-17.89-6.71-12.3-23.48-5.59-24.61-14.54-24.61-10.07-4.48-14.54-11.19S517.5,254.9,509.67,246s-11.14-24.61-23.45-15.66-5.6,20.13-17.9,20.13-6.71,3.36-14.54,11.19-19,5.59-17.9,15.66,10.06,12.31,19,11.19,39.16,6.71,23.49,11.19-45.84-1.09-45.84,7.82,2.23,13.43,9,24.62-21.26,25.73-10.07,24.61,36.91-12.31,41.38-3.36,15.67,22.39,15.67,35.8S484,405.92,489.55,407a39.83,39.83,0,0,0,12.33,0Z"></path><path class="cls-2" d="M363.15,399.2s47-33.56,115.23-3.36S592.53,421.57,620.45,407c0,0-39.16,43.62-121.94,13.42S399,394.72,388.88,394.72,363.15,399.2,363.15,399.2Z"></path><path class="cls-2" d="M298.34,275.4s18.57-.65,35.28,4.28S359,291.25,359,291.25s-11,4.91-31.59-1.15S298.34,275.4,298.34,275.4Z"></path><path class="cls-2" d="M428,140.7s10.12,15.57,14.49,32.41,3.16,27.72,3.16,27.72-9.88-6.9-15.29-27.68S428,140.7,428,140.7Z"></path><path class="cls-2" d="M620.1,172.36s-8.42,16.55-20.85,28.75-22.4,16.59-22.4,16.59,1-12,16.33-27.08S620.1,172.36,620.1,172.36Z"></path><path class="cls-2" d="M700.89,326.05s-17.55,6.05-35,6.2-27.66-3.64-27.66-3.64,9.09-7.93,30.55-8.14S700.89,326.05,700.89,326.05Z"></path><path class="cls-2" d="M311.31,389.11s16.53-8.43,33.78-11,27.9-.25,27.9-.25-7.89,9.12-29.13,12.31S311.31,389.11,311.31,389.11Z"></path><path class="cls-2" d="M369.88,212.45A68.92,68.92,0,0,1,385.24,224c6.49,6.83,8.73,12.27,8.73,12.27s-6.44-.67-14.44-9.08S369.88,212.45,369.88,212.45Z"></path><path class="cls-2" d="M328.53,341.18a68.36,68.36,0,0,1,18.84-3.69c9.42-.26,15,1.7,15,1.7s-4.84,4.37-16.43,4.69S328.53,341.18,328.53,341.18Z"></path><path class="cls-2" d="M523,191.36a68.62,68.62,0,0,1,.31-19.2c1.71-9.28,4.78-14.3,4.78-14.3s3.27,5.64,1.16,17S523,191.36,523,191.36Z"></path><path class="cls-2" d="M659.22,254.38A67.91,67.91,0,0,1,642.6,264c-8.82,3.27-14.74,3.27-14.74,3.27s3.15-5.7,14-9.78S659.22,254.38,659.22,254.38Z"></path><path class="cls-2" d="M626.53,379a69.28,69.28,0,0,1,18.38,5.59c8.44,4.19,12.42,8.53,12.42,8.53s-6.32,1.59-16.7-3.58S626.53,379,626.53,379Z"></path><path class="cls-2" d="M340.84,536.82c0,2.29-1.06,3.44-3.2,3.44H327.23c-2.09,0-3.23-1.21-3.43-3.61V507.8q1.44-8.55,10.47-9.08h50.35c1.82,0,2.73.76,2.73,2.27v5.53q0,2.61-2.73,2.61H343.81a2.63,2.63,0,0,0-3,2.2,2.68,2.68,0,0,0,0,.8c0,1.66,1,2.5,3,2.5h40.6q3,0,3,2.73v4.42c0,1.59-1,2.39-3,2.39H343.58q-2.73,0-2.73,3Z"></path><path class="cls-2" d="M417.32,509.6q-4.32,0-4.3,4.3v11.21q0,4.08,3.28,4.07h21q3.18,0,3.2-3.49v-12c0-2.6-1.36-4-4.07-4.07Zm20.21,30.66H403.94q-8-.82-9.13-8.15V506.63q1.23-7.15,10-7.91h43.8q8.49.69,9.78,7.91v26.12q-1.35,7.11-9.08,7.51Z"></path><path class="cls-2" d="M488.34,509.6c-2.88,0-4.31,1.43-4.31,4.3v11.21q0,4.08,3.28,4.07h21c2.14,0,3.2-1.16,3.2-3.49v-7.85a2.41,2.41,0,0,1,2-2.73,2.58,2.58,0,0,1,.68,0h12.68a2.22,2.22,0,0,1,2.5,1.88,2.15,2.15,0,0,1,0,.62V532.8q-1.32,7.1-9.07,7.5H475q-8-.81-9.14-8.15V506.64q1.23-7.15,10-7.91h50.84c1.82,0,2.73.83,2.73,2.5v6.11c0,1.51-.84,2.26-2.5,2.26Z"></path><path class="cls-2" d="M597.92,529.61a2.22,2.22,0,0,1,2.5,1.88,2.15,2.15,0,0,1,0,.62v5.41c0,1.82-.84,2.73-2.5,2.73H547.31q-10.24,0-10.47-9.08V507.79q1.44-8.55,10.47-9.07h50.61c1.66,0,2.5,1,2.5,3v4.83c0,1.74-.84,2.62-2.5,2.62H556.85a2.62,2.62,0,0,0-3,2.18,2.26,2.26,0,0,0,0,.82c0,1.67,1,2.5,3,2.51h40.83a2.41,2.41,0,0,1,2.73,2,2.66,2.66,0,0,1,0,.69v4.42c0,1.58-.83,2.38-2.5,2.38H556.64q-2.73,0-2.73,3c0,1.67.91,2.5,2.73,2.5Z"></path><path class="cls-2" d="M623.32,498.72a5.2,5.2,0,0,1,2.73,4.3v22.09q0,4.08,3.28,4.07H668.1q3.38,0,3.38,3v4.71a3.38,3.38,0,0,1-3,3.44H617q-8-.83-9.13-8.15V502.56a6,6,0,0,1,3.67-3.82Z"></path><path class="cls-2" d="M40.84,616.55l-7.1-19.44q-2.37,0-6.5-.31l-3.46,19.73H17.31l8-45.23c.84,0,2.5-.11,5-.26s4.52-.24,6.1-.24q7.17,0,11,2.57a8.29,8.29,0,0,1,3.87,7.35,15.62,15.62,0,0,1-3.35,9.92,14.54,14.54,0,0,1-8.4,5.41l8.41,20.5ZM30.78,576.9l-2.6,14.67a32.49,32.49,0,0,0,4.3.32,15.46,15.46,0,0,0,8.86-2.28,7.21,7.21,0,0,0,3.36-6.27q0-3.66-2.36-5.21c-1.57-1-4.18-1.55-7.85-1.54A33,33,0,0,0,30.78,576.9Z"></path><path class="cls-2" d="M61.59,600.93a15.13,15.13,0,0,0-.28,2.85,8.33,8.33,0,0,0,2.29,6.33A8.77,8.77,0,0,0,70,612.3a12.4,12.4,0,0,0,7.34-2.73l-.62,6A28.33,28.33,0,0,1,68,617.2q-12.81,0-12.79-14.34a20,20,0,0,1,5.35-14.23,17.75,17.75,0,0,1,13.53-5.78,13.17,13.17,0,0,1,7.83,2.1,6.94,6.94,0,0,1,2.94,6,9.81,9.81,0,0,1-4.56,8.52,19.42,19.42,0,0,1-11.2,3.12A15.49,15.49,0,0,1,61.59,600.93Zm1-4.26a13.36,13.36,0,0,0,5.51,1.06A17.19,17.19,0,0,0,76,596.16a4.94,4.94,0,0,0,3-4.56q0-3.83-5.24-3.82-8,0-11.18,8.87Z"></path><path class="cls-2" d="M113.69,575.41a11.85,11.85,0,0,0-3.65-.86q-5.61,0-7.13,8.92h7.62l-.49,4h-7.77L97,618.65a11.43,11.43,0,0,1-4,7.1,15,15,0,0,1-7.92,3.36l-.54-3.61A7.78,7.78,0,0,0,88.4,623a9.15,9.15,0,0,0,2.34-4.33l5.46-31.18H91.53l.68-4h4.51Q99.45,570,110.37,570a9.56,9.56,0,0,1,4.37.93Z"></path><path class="cls-2" d="M137.18,589.25a6.75,6.75,0,0,0-4.33-1.48,8.35,8.35,0,0,0-6,2.89,12.76,12.76,0,0,0-3.57,6.91l-3.37,19H114l5.82-33.1h5.86l-.9,5.32q4.26-6,10.63-5.95a20.45,20.45,0,0,1,3.38.44Z"></path><path class="cls-2" d="M151.53,570.56a4.08,4.08,0,0,1,4.08,4h0a3.9,3.9,0,0,1-1.2,2.88,4.09,4.09,0,0,1-6-5.57l.22-.22A4,4,0,0,1,151.53,570.56Zm-9.45,46,5-28.08h-4.33l1.09-4.87h10l-5.82,33Z"></path><path class="cls-2" d="M156.65,625.81l2.78-4.3q5.67,2.82,9.38,2.82a13.78,13.78,0,0,0,6.81-1.51,4.64,4.64,0,0,0,2.73-4.23,2.93,2.93,0,0,0-.91-2.23,6,6,0,0,0-3.11-1.25l-5.46-.92c-2.2-.56-3.31-1.68-3.31-3.37,0-1.36,1.76-2.72,5.28-4.1h-1a9.28,9.28,0,0,1-9.07-9.22,14.16,14.16,0,0,1,4.17-10.59,14.55,14.55,0,0,1,10.66-4.1A11.23,11.23,0,0,1,183,585l2.78-3.15,3.25,3.34-3,3.18a7.07,7.07,0,0,1,.9,4,15.35,15.35,0,0,1-2.69,9.12,14.09,14.09,0,0,1-7,5.33q-4.35,1.53-4.33,2.87c0,.72.39,1.09,1.17,1.09a9.28,9.28,0,0,0,1.28-.14,9.11,9.11,0,0,1,1.28-.14q7.71,0,7.71,7a10.09,10.09,0,0,1-4.86,8.74,20.32,20.32,0,0,1-11.58,3.28C163.19,629.53,159.53,628.28,156.65,625.81Zm18.45-38.22a7.61,7.61,0,0,0-6,2.76,9.52,9.52,0,0,0-2.42,6.51c0,4.49,1.69,6.74,5.09,6.73,2.3,0,4.33-1.13,6.11-3.38a11.55,11.55,0,0,0,2.65-7.18,5.31,5.31,0,0,0-1.48-4,5.4,5.4,0,0,0-4-1.48Z"></path><path class="cls-2" d="M198.43,600.93a15.13,15.13,0,0,0-.28,2.85,8.31,8.31,0,0,0,2.29,6.29,8.77,8.77,0,0,0,6.38,2.19,12.4,12.4,0,0,0,7.34-2.73l-.62,6a28.34,28.34,0,0,1-8.74,1.63q-12.78,0-12.78-14.34a20,20,0,0,1,5.37-14.2,17.75,17.75,0,0,1,13.52-5.78,13.18,13.18,0,0,1,7.84,2.1,7,7,0,0,1,2.94,6,9.87,9.87,0,0,1-4.57,8.52,19.39,19.39,0,0,1-11.19,3.12A15.47,15.47,0,0,1,198.43,600.93Zm1-4.26a13.36,13.36,0,0,0,5.51,1.06,17.32,17.32,0,0,0,7.86-1.57,4.91,4.91,0,0,0,3-4.56c0-2.55-1.75-3.82-5.23-3.82q-8,0-11.18,8.87Z"></path><path class="cls-2" d="M248.65,589.25a6.85,6.85,0,0,0-4.34-1.48,8.46,8.46,0,0,0-6,2.89,12.78,12.78,0,0,0-3.56,6.91l-3.38,19h-5.84l5.81-33.1h5.86l-.91,5.32q4.26-6,10.64-5.95a20.45,20.45,0,0,1,3.38.44Z"></path><path class="cls-2" d="M281.69,585.53l-4.05,19.25a13.58,13.58,0,0,0-.25,2.84,25.41,25.41,0,0,0,1.52,8.93h-6a16.34,16.34,0,0,1-1-3.35,10.15,10.15,0,0,1-4.38,2.91,16.69,16.69,0,0,1-6.09,1.09,10,10,0,0,1-7.62-2.89q-2.74-2.88-2.73-8.3a25.88,25.88,0,0,1,5.36-16.12,16.64,16.64,0,0,1,13.81-7Q278.23,582.85,281.69,585.53ZM275.18,589c-.55-.88-2.43-1.32-5.62-1.32s-6.11,1.73-8.58,5.18-3.71,7.78-3.71,13q0,6.55,5.87,6.55c2,0,3.95-1,5.74-3.17a18.07,18.07,0,0,0,3.73-8.1Z"></path><path class="cls-2" d="M311.17,584.48l-1.09,5.07a9.3,9.3,0,0,0-6-1.78,11.13,11.13,0,0,0-9.19,4.5,17.36,17.36,0,0,0-3.51,11,8.91,8.91,0,0,0,2.27,6.42,6.89,6.89,0,0,0,5.16,2.39,15.3,15.3,0,0,0,8.57-2.73l-.63,6a22,22,0,0,1-8.88,1.77q-6.14,0-9.4-3.51a13.06,13.06,0,0,1-3.28-9.32q0-9.46,5.2-15.49a16.73,16.73,0,0,1,13.24-6A14.54,14.54,0,0,1,311.17,584.48Z"></path><path class="cls-2" d="M325.33,570.56a4.08,4.08,0,0,1,4.08,4.07h0a3.9,3.9,0,0,1-1.2,2.88,4.08,4.08,0,1,1-5.76-5.79A4,4,0,0,1,325.33,570.56Zm-9.44,46,5-28.08h-4.36l1.09-4.87h10.06l-5.84,33Z"></path><path class="cls-2" d="M333.21,604.38a23.15,23.15,0,0,1,5.19-15.2,16.27,16.27,0,0,1,13.18-6.34q6,0,9.2,3.28T364,595.4a28.62,28.62,0,0,1-1.89,9.9,19.28,19.28,0,0,1-6.2,8.53,16.21,16.21,0,0,1-10.33,3.4q-6,0-9.14-3.35T333.21,604.38Zm6.2-.37q0,8.37,7,8.37,5.22,0,8.28-5.06a22.29,22.29,0,0,0,3.07-11.71q0-8-7-8a8.76,8.76,0,0,0-6.24,2.53,14.35,14.35,0,0,0-3.91,6.48,25.18,25.18,0,0,0-1.2,7.35Zm19.8-35.6-7,10.31h-4.3l5.25-10.31Z"></path><path class="cls-2" d="M387.42,616.55l3.42-19.24a25.35,25.35,0,0,0,.46-4.26q0-5.28-5.46-5.28a9.78,9.78,0,0,0-4.49,1.24,11.93,11.93,0,0,0-3.82,2.94l-4.28,24.57h-5.89l4.4-25.08a13.36,13.36,0,0,0,.15-2,20.51,20.51,0,0,0-.65-5.46l5.68-1.09c.56,3,.82,4.66.8,4.92,2.52-3.28,6.13-4.92,10.86-4.92q8.94,0,8.94,9.16a24.21,24.21,0,0,1-.4,4.08l-3.61,20.43Z"></path><path class="cls-2" d="M447.29,584.48l-1.09,5.07a9.28,9.28,0,0,0-6-1.78,11.13,11.13,0,0,0-9.19,4.5,17.36,17.36,0,0,0-3.51,11,8.91,8.91,0,0,0,2.27,6.42,6.89,6.89,0,0,0,5.16,2.39,15.3,15.3,0,0,0,8.58-2.73l-.64,6a22,22,0,0,1-8.88,1.77q-6.14,0-9.4-3.51a13.06,13.06,0,0,1-3.28-9.32q0-9.46,5.2-15.49a16.76,16.76,0,0,1,13.25-6A14.53,14.53,0,0,1,447.29,584.48Z"></path><path class="cls-2" d="M450,604.38a23.15,23.15,0,0,1,5.19-15.2,16.31,16.31,0,0,1,13.17-6.34q6,0,9.21,3.28t3.17,9.28a28.4,28.4,0,0,1-1.9,9.9,19.15,19.15,0,0,1-6.2,8.53,16.21,16.21,0,0,1-10.33,3.4q-5.94,0-9.13-3.35T450,604.38Zm6.2-.37q0,8.37,7,8.37,5.2,0,8.28-5.06a22.39,22.39,0,0,0,3.08-11.71q0-8-7-8a8.78,8.78,0,0,0-6.25,2.53,14.38,14.38,0,0,0-3.9,6.48,25.53,25.53,0,0,0-1.21,7.35Z"></path><path class="cls-2" d="M504.17,616.55l3.43-19.24a26.43,26.43,0,0,0,.46-4.26q0-5.28-5.46-5.28a9.78,9.78,0,0,0-4.49,1.24,12.22,12.22,0,0,0-3.82,2.94L490,616.52h-5.87l4.39-25.08a13.37,13.37,0,0,0,.16-2A20.51,20.51,0,0,0,488,584l5.68-1.09c.55,3,.82,4.66.8,4.92q3.75-4.92,10.86-4.92,8.94,0,8.94,9.16a23.23,23.23,0,0,1-.41,4.08l-3.57,20.47Z"></path><path class="cls-2" d="M561.18,589.25a6.8,6.8,0,0,0-4.37-1.48,8.39,8.39,0,0,0-6,2.89,12.78,12.78,0,0,0-3.56,6.91l-3.38,19h-5.81l5.81-33.08h5.87l-.91,5.31q4.29-5.94,10.64-5.94a20.43,20.43,0,0,1,3.38.43Z"></path><path class="cls-2" d="M571.39,600.93a15.13,15.13,0,0,0-.28,2.85,8.28,8.28,0,0,0,2.28,6.29,8.75,8.75,0,0,0,6.39,2.19,12.4,12.4,0,0,0,7.34-2.73l-.62,6a28.34,28.34,0,0,1-8.74,1.63q-12.78,0-12.78-14.34a20,20,0,0,1,5.37-14.2,17.75,17.75,0,0,1,13.52-5.78,13.18,13.18,0,0,1,7.84,2.1,7,7,0,0,1,2.94,6,9.87,9.87,0,0,1-4.57,8.52,19.39,19.39,0,0,1-11.19,3.12A15.47,15.47,0,0,1,571.39,600.93Zm1-4.26a13.36,13.36,0,0,0,5.51,1.06,17.32,17.32,0,0,0,7.86-1.57,4.91,4.91,0,0,0,3-4.56c0-2.55-1.75-3.82-5.23-3.82q-8,0-11.21,8.87Z"></path><path class="cls-2" d="M596,614.58l3.06-5.56a11.35,11.35,0,0,0,3.46,2.21,9.56,9.56,0,0,0,3.86,1,6.91,6.91,0,0,0,4.54-1.48,5,5,0,0,0,1.78-4,3.34,3.34,0,0,0-.94-2.32,14.88,14.88,0,0,0-3.26-2.32l-4.37-2.42a7.83,7.83,0,0,1-3-2.88,7.3,7.3,0,0,1-1-3.73,8.87,8.87,0,0,1,3.59-7.4,13.85,13.85,0,0,1,8.82-2.8,22.34,22.34,0,0,1,8.73,2.28l-2.63,5.43a9.55,9.55,0,0,0-6.55-2.78,6.84,6.84,0,0,0-4,1.19,3.66,3.66,0,0,0-1.69,3.14,3.45,3.45,0,0,0,1,2.45,13.61,13.61,0,0,0,3.28,2.29l4.34,2.35a7.44,7.44,0,0,1,3,2.78,7.35,7.35,0,0,1,1,3.71,10.25,10.25,0,0,1-3.92,8.39,15,15,0,0,1-9.76,3.09A17.2,17.2,0,0,1,596,614.58Z"></path><path class="cls-2" d="M629.37,614.87l-2.6,14.84h-5.94l6.55-36.35a25.21,25.21,0,0,0,.44-4.67,23.18,23.18,0,0,0-.46-4.55l5.88-1.09a37.62,37.62,0,0,1,.54,4.23,11.07,11.07,0,0,1,4.18-3,12.47,12.47,0,0,1,5.06-1.22q6.18,0,9.29,3.06t3.07,9.19q0,9.39-5.2,15.71a16.88,16.88,0,0,1-13.65,6.32,14.85,14.85,0,0,1-4.19-.72C630.74,616.11,629.75,615.55,629.37,614.87Zm.86-4.84a4.27,4.27,0,0,0,2.25,1.64,8.43,8.43,0,0,0,3.18.68q6.42,0,9.94-4.37t3.5-11.93c0-2.71-.69-4.74-2.05-6.09s-3.42-2-6.15-2a9,9,0,0,0-4.15,1.24,9.47,9.47,0,0,0-3.34,2.61Z"></path><path class="cls-2" d="M659,604.38a23.15,23.15,0,0,1,5.19-15.2,16.27,16.27,0,0,1,13.18-6.34q6,0,9.19,3.28t3.19,9.28a28.4,28.4,0,0,1-1.9,9.9,19.3,19.3,0,0,1-6.21,8.53,16.18,16.18,0,0,1-10.32,3.4q-6,0-9.14-3.35T659,604.38Zm6.2-.37q0,8.37,7,8.37,5.22,0,8.28-5.06a22.2,22.2,0,0,0,3.1-11.71q0-8-7-8a8.76,8.76,0,0,0-6.24,2.53,14.33,14.33,0,0,0-3.9,6.48,25.53,25.53,0,0,0-1.21,7.35Z"></path><path class="cls-2" d="M713.16,616.55l3.42-19.24a25.35,25.35,0,0,0,.46-4.26q0-5.28-5.46-5.28A9.78,9.78,0,0,0,707.1,589a12.26,12.26,0,0,0-3.83,2.94L699,616.52h-5.89l4.42-25.08a13.36,13.36,0,0,0,.15-2A20.51,20.51,0,0,0,697,584l5.68-1.09c.55,3,.83,4.67.81,4.92q3.75-4.92,10.85-4.92,8.94,0,8.94,9.16a24.21,24.21,0,0,1-.4,4.08l-3.58,20.47Z"></path><path class="cls-2" d="M725.53,614.58l3.05-5.56a11.35,11.35,0,0,0,3.46,2.21,9.56,9.56,0,0,0,3.86,1,6.91,6.91,0,0,0,4.54-1.48,5,5,0,0,0,1.78-4,3.25,3.25,0,0,0-.94-2.32,14.58,14.58,0,0,0-3.25-2.32l-4.37-2.42a7.83,7.83,0,0,1-3-2.88,7.39,7.39,0,0,1-1-3.73,8.93,8.93,0,0,1,3.59-7.4,13.91,13.91,0,0,1,8.82-2.8,22.34,22.34,0,0,1,8.73,2.28l-2.63,5.43a9.6,9.6,0,0,0-6.55-2.78,6.84,6.84,0,0,0-4,1.19,3.65,3.65,0,0,0-1.69,3.14,3.41,3.41,0,0,0,1,2.45,13.15,13.15,0,0,0,3.28,2.29l4.33,2.35a7.44,7.44,0,0,1,3,2.78,7.35,7.35,0,0,1,1,3.71,10.28,10.28,0,0,1-3.82,8.41,15.1,15.1,0,0,1-9.77,3.09A17,17,0,0,1,725.53,614.58Z"></path><path class="cls-2" d="M783.43,585.53l-4.06,19.25a13.57,13.57,0,0,0-.24,2.84,25.19,25.19,0,0,0,1.52,8.93h-6a16.51,16.51,0,0,1-1.06-3.35,10.2,10.2,0,0,1-4.32,2.88,16.75,16.75,0,0,1-6.1,1.09,10.06,10.06,0,0,1-7.64-2.89q-2.76-2.88-2.73-8.3a25.83,25.83,0,0,1,5.37-16.12,16.61,16.61,0,0,1,13.8-7Q780,582.85,783.43,585.53ZM776.92,589c-.56-.88-2.44-1.32-5.62-1.32s-6,1.73-8.58,5.18-3.72,7.79-3.71,13q0,6.55,5.86,6.55a7.43,7.43,0,0,0,5.75-3.17,18.07,18.07,0,0,0,3.73-8.1Z"></path><path class="cls-2" d="M792,613.38l-3.12,3.83H785a92.78,92.78,0,0,0,3.39-13.44L794.33,570H800l-2.73,17c1.55-2.74,4.29-4.11,8.25-4.11a11.19,11.19,0,0,1,8.78,3.94q3.48,3.94,3.48,10.59a20,20,0,0,1-5.41,13.82,17.28,17.28,0,0,1-13.37,6C795.66,617.19,793.31,615.92,792,613.38Zm4.45-21.07-3.09,16.14a3.09,3.09,0,0,0,.68,1.4,6.3,6.3,0,0,0,2.08,1.79,5.52,5.52,0,0,0,2.69.74,11,11,0,0,0,8.92-4.64,15.73,15.73,0,0,0,3.67-9.88q0-10.08-8.88-10.09-3.54,0-6.09,4.54Z"></path><path class="cls-2" d="M833.23,570.56a4.08,4.08,0,0,1,4.08,4h0a3.89,3.89,0,0,1-1.19,2.88,4.09,4.09,0,0,1-5.77-5.79A4,4,0,0,1,833.23,570.56Zm-9.44,46,5-28.08h-4.37l1.09-4.87h10l-5.82,33Z"></path><path class="cls-2" d="M854,612.89l-.68,4.29q-9.94,0-9.94-7.35a66.31,66.31,0,0,1,1.54-9.91l5.93-30h6.11l-5.63,28.19a78.7,78.7,0,0,0-1.75,11Q849.53,612.89,854,612.89Z"></path><path class="cls-2" d="M872.83,570.56a4.09,4.09,0,0,1,4.08,4h0a3.9,3.9,0,0,1-1.2,2.88,4.08,4.08,0,1,1-5.76-5.79A4,4,0,0,1,872.83,570.56Zm-9.44,46,5-28.08h-4.34l1.09-4.87H875.2l-5.82,33Z"></path><path class="cls-2" d="M901.47,616.55l.7-3.75a12,12,0,0,1-9.79,4.37q-5.37,0-8.4-3.28t-3-9q0-9.67,5.18-15.84a16.57,16.57,0,0,1,13.26-6.17,8.07,8.07,0,0,1,7.19,3.9l3.1-16.87h5.62l-8,46.62Zm4-23.93a4.55,4.55,0,0,0-.81-1.71,6.94,6.94,0,0,0-2.13-2.25,4.79,4.79,0,0,0-2.64-.83,11.18,11.18,0,0,0-9,4.45,17.49,17.49,0,0,0-3.59,11.39q0,8.77,7.18,8.77c2.16,0,4.17-1.07,6-3.21a16.37,16.37,0,0,0,3.64-8.3Z"></path><path class="cls-2" d="M946.23,585.53l-4.06,19.25a13.57,13.57,0,0,0-.24,2.84,25.19,25.19,0,0,0,1.52,8.93h-6a17,17,0,0,1-1-3.35,10.17,10.17,0,0,1-4.33,2.88,16.69,16.69,0,0,1-6.09,1.09,10.06,10.06,0,0,1-7.64-2.89q-2.77-2.88-2.73-8.3A25.88,25.88,0,0,1,921,589.86a16.64,16.64,0,0,1,13.81-7Q942.77,582.85,946.23,585.53ZM939.71,589q-.84-1.32-5.61-1.32t-8.57,5.18q-3.72,5.19-3.7,13,0,6.55,5.87,6.55a7.37,7.37,0,0,0,5.73-3.17,18.09,18.09,0,0,0,3.74-8.1Z"></path><path class="cls-2" d="M970,616.55l.7-3.75a12,12,0,0,1-9.79,4.37q-5.37,0-8.4-3.28t-3-9q0-9.67,5.19-15.84A16.57,16.57,0,0,1,968,582.88a8.07,8.07,0,0,1,7.19,3.9l3.09-16.87h5.62l-8,46.62Zm4-23.93a4.59,4.59,0,0,0-.82-1.71,7,7,0,0,0-2.12-2.25,4.79,4.79,0,0,0-2.64-.83,11.15,11.15,0,0,0-9.05,4.45,17.52,17.52,0,0,0-3.6,11.39q0,8.77,7.19,8.77c2.16,0,4.17-1.07,6-3.21a16.37,16.37,0,0,0,3.64-8.3Z"></path><path class="cls-2" d="M992,607.89a4.63,4.63,0,1,1,0,9.26,4.6,4.6,0,0,1-3.15-1.24l-.11-.11a4.54,4.54,0,0,1-1.36-3.28,4.64,4.64,0,0,1,4.62-4.63Z"></path></svg> 