<svg id="Layer_1" data-name="Layer 1" xmlns="http://www.w3.org/2000/svg" viewBox="0 0 300 300"><defs><style>.cls-1{fill:none;stroke:#000;stroke-linecap:round;stroke-linejoin:round;stroke-width:1.96px;}.cls-2{fill:#fff;}</style></defs><path d="M75.31,45.5l148.61,1.33,14.49,12.26v.71l-4.26.05v17.2h4.68V235H62.13L62.07,77.15h3.27l.13-5.78.14-5.69.15-6.25-3.2.1v-.79L75.31,45.5m-2.5-6L56.64,56.35v9.29l3-.1-.14,5.69h-3.4l.06,169.67H244.75V71.13h-4.68V65.69l4.26,0v-9.3L226.11,40.93,72.81,39.55Z"/><rect class="cls-1" x="189.85" y="214.81" width="44.26" height="16.47" rx="4.7"/><rect class="cls-1" x="208.12" y="218.04" width="21.74" height="9.81"/><ellipse class="cls-1" cx="198.48" cy="222.95" rx="4.56" ry="4.91"/><rect x="56.05" y="71.73" width="188.54" height="4.57"/><polygon points="243.97 59.27 57.51 59.27 62.24 54.4 239.23 54.4 243.97 59.27"/><rect x="56.67" y="64.57" width="187.66" height="4.93"/><rect class="cls-2" x="61.19" y="59.06" width="179.41" height="5.88"/><rect x="78.7" y="238.52" width="11.62" height="21.62" rx="5.22"/><rect x="205.8" y="237.87" width="11.62" height="21.62" rx="5.22"/></svg>