<svg id="Layer_1" data-name="Layer 1" xmlns="http://www.w3.org/2000/svg" viewBox="0 0 300 300"><defs><style>.cls-1{stroke:#000;stroke-miterlimit:10;stroke-width:1.17px;}</style></defs><path class="cls-1" d="M108.59,171a3.2,3.2,0,0,0-3.2,3.2v8.37a3.2,3.2,0,1,0,6.39,0V174.2a3.19,3.19,0,0,0-3.19-3.2Z"/><path class="cls-1" d="M111.78,129.25,158,102.58a3.19,3.19,0,1,0-3.2-5.53l-46.18,26.66L62.41,97.05a3.19,3.19,0,1,0-3.2,5.53l46.18,26.67v30a3.2,3.2,0,0,0,6.39,0Z"/><path class="cls-1" d="M183.43,144.4l18.27-10.55a3.19,3.19,0,0,0-3.19-5.53l-18.27,10.55a3.19,3.19,0,1,0,3.19,5.53Z"/><path class="cls-1" d="M200.1,233.31a3.19,3.19,0,0,0,3.2-3.19V184.68L242.64,162a3.2,3.2,0,0,0-3.19-5.54L200.1,179.15l-39.34-22.72a3.2,3.2,0,0,0-3.2,5.54l39.35,22.71v45.44A3.19,3.19,0,0,0,200.1,233.31Z"/><path class="cls-1" d="M45.63,169.49l58,33.47a10,10,0,0,0,9.94,0l27.88-16.1v24.67a9,9,0,0,0,4.49,7.77L195.62,248a9,9,0,0,0,9,0l49.69-28.69a9,9,0,0,0,4.49-7.77V190a3.2,3.2,0,0,0-6.39,0v21.57a2.59,2.59,0,0,1-1.29,2.23l-49.7,28.69a2.58,2.58,0,0,1-2.58,0l-49.69-28.69a2.59,2.59,0,0,1-1.29-2.23V154.15a2.61,2.61,0,0,1,1.29-2.24l49.69-28.69a2.58,2.58,0,0,1,2.58,0l49.7,28.69a2.61,2.61,0,0,1,1.29,2.24v20.9a3.2,3.2,0,1,0,6.39,0v-20.9a9,9,0,0,0-4.49-7.77l-49.69-28.69a9,9,0,0,0-9,0l-19.11,11V93.92a10,10,0,0,0-5-8.6l-58-33.48a10,10,0,0,0-9.94,0l-12.08,7a3.19,3.19,0,0,0,3.19,5.53l12.09-7a3.55,3.55,0,0,1,3.54,0l58,33.48a3.56,3.56,0,0,1,1.77,3.07v38.49l-24.19,14a9,9,0,0,0-4.49,7.77v25.34l-31.08,17.94a3.55,3.55,0,0,1-3.54,0L48.83,164a3.56,3.56,0,0,1-1.77-3.07v-67a3.56,3.56,0,0,1,1.77-3.07l32.89-19a3.19,3.19,0,0,0-3.19-5.53l-32.9,19a10,10,0,0,0-5,8.6v67A10,10,0,0,0,45.63,169.49Z"/><path class="cls-1" d="M65.17,90a3.19,3.19,0,0,0,4.36,1.17L88.45,80.28a3.2,3.2,0,1,0-3.2-5.54L66.34,85.66A3.2,3.2,0,0,0,65.17,90Z"/></svg>