<svg id="Layer_1" data-name="Layer 1" xmlns="http://www.w3.org/2000/svg" viewBox="0 0 300 300"><path d="M222.38,84.92A36.36,36.36,0,0,0,186,121.28h18.18a18.18,18.18,0,1,1,18.17,18.18H95.14v18.18H222.38a36.36,36.36,0,1,0,0-72.72Z"/><path d="M185.37,175.81H77V194H185.37a18.17,18.17,0,0,1,18.17,18.18v.66A17.52,17.52,0,0,1,186,230.35v18.17a35.69,35.69,0,0,0,35.69-35.69v-.66A36.35,36.35,0,0,0,185.37,175.81Z"/><rect x="40.61" y="139.46" width="36.36" height="18.18"/><path d="M131.39,48.57a35.8,35.8,0,0,0-35.81,35.8v2.3h18.18v-2.3a17.63,17.63,0,0,1,35.25,0v.55a18.18,18.18,0,0,1-18.18,18.18H58.78v18.18h72.05a36.36,36.36,0,0,0,36.36-36.36v-.55A35.8,35.8,0,0,0,131.39,48.57Z"/></svg>